<?xml version="1.0" encoding="utf-8"?>
<!-- Generator: Adobe Illustrator 23.0.6, SVG Export Plug-In . SVG Version: 6.00 Build 0)  -->
<svg version="1.1" id="Layer_1" xmlns="http://www.w3.org/2000/svg" xmlns:xlink="http://www.w3.org/1999/xlink" x="0px" y="0px"
	 viewBox="0 0 39.3 40" style="enable-background:new 0 0 39.3 40;" xml:space="preserve">
<style type="text/css">
	.st0{fill-rule:evenodd;clip-rule:evenodd;fill:#FFFFFF;}
</style>
<path class="st0" d="M19.4,0.6c2.3,0,4,1.1,5.5,1.9c0.5,0.3,1,0.6,1.5,0.8c0.5,0.2,1.1,0.3,1.7,0.5c1.6,0.4,3.6,0.9,5.1,2.5
	c1.5,1.6,2.1,3.6,2.5,5.2c0.2,0.6,0.3,1.2,0.5,1.7c0.2,0.4,0.5,0.9,0.8,1.5c0.8,1.4,1.9,3.2,1.9,5.5c0,2.3-1.1,4.1-1.9,5.5
	c-0.3,0.5-0.6,1.1-0.8,1.5c-0.2,0.5-0.3,1.1-0.5,1.7c-0.4,1.6-0.9,3.6-2.5,5.2c-1.5,1.6-3.5,2.1-5.1,2.5c-0.6,0.2-1.2,0.3-1.7,0.5
	c-0.4,0.2-0.9,0.5-1.5,0.8c-1.4,0.9-3.2,1.9-5.5,1.9s-4-1.1-5.5-1.9c-0.5-0.3-1-0.6-1.5-0.8c-0.5-0.2-1-0.3-1.7-0.5
	c-1.6-0.4-3.6-0.9-5.1-2.5s-2.1-3.6-2.5-5.2c-0.2-0.6-0.3-1.2-0.5-1.7c-0.2-0.4-0.5-0.9-0.8-1.5C1.1,24.3,0,22.5,0,20.2
	c0-2.3,1.1-4.1,1.9-5.5c0.3-0.5,0.6-1.1,0.8-1.5c0.2-0.5,0.3-1.1,0.5-1.7c0.4-1.6,0.9-3.6,2.5-5.2c1.5-1.6,3.5-2.1,5.1-2.5
	c0.6-0.2,1.2-0.3,1.7-0.5c0.4-0.2,0.9-0.5,1.5-0.8C15.4,1.7,17.1,0.6,19.4,0.6z M14.7,36.5c1.3,0.8,2.8,1.7,4.6,1.7
	c1.8,0,3.3-0.9,4.6-1.7c0.6-0.4,1.1-0.7,1.7-0.9c0.6-0.2,1.2-0.4,1.9-0.6c1.5-0.4,3.1-0.8,4.4-2.1c1.2-1.3,1.7-2.9,2.1-4.4
	c0.2-0.7,0.3-1.3,0.6-1.9c0.2-0.5,0.5-1.1,0.9-1.7c0.8-1.3,1.7-2.9,1.7-4.7c0-1.8-0.9-3.4-1.7-4.7c-0.3-0.6-0.7-1.2-0.9-1.7v0
	c-0.2-0.6-0.4-1.2-0.6-1.9c-0.4-1.5-0.8-3.2-2.1-4.4c-1.2-1.3-2.9-1.7-4.4-2.1c-0.7-0.2-1.3-0.4-1.9-0.6c-0.5-0.2-1.1-0.5-1.7-0.9
	c-1.3-0.8-2.8-1.7-4.6-1.7c-1.8,0-3.3,0.9-4.6,1.7c-0.6,0.4-1.1,0.7-1.7,0.9c-0.6,0.2-1.2,0.4-1.9,0.6C9.7,5.8,8,6.2,6.8,7.5
	s-1.7,2.9-2.1,4.4c-0.2,0.7-0.3,1.3-0.6,1.9c-0.2,0.5-0.5,1.1-0.9,1.7c-0.8,1.3-1.7,2.9-1.7,4.7c0,1.8,0.9,3.4,1.7,4.7
	c0.3,0.6,0.7,1.2,0.9,1.7c0.2,0.6,0.4,1.2,0.6,1.9c0.4,1.5,0.8,3.2,2.1,4.4c1.2,1.3,2.9,1.7,4.4,2.1c0.7,0.2,1.3,0.4,1.9,0.6
	C13.6,35.8,14.2,36.1,14.7,36.5z M21.1,10.6c0.2,0,0.4,0,0.5,0c1.4,0,2.8,0.1,4.2,0.4c0.7,0.2,1.4,0.4,1.9,0.9
	c0.3,0.2,0.5,0.5,0.6,0.9c0,0.3-0.2,0.7-0.5,0.8c-0.1,0-0.2,0-0.4,0c-0.2,0-0.4-0.1-0.5,0c-0.2,0.1-0.2,0.4-0.1,0.6
	c0.3,1.3,1.8,2.1,2.2,3.4c0.1,0.2,0.1,0.4,0,0.5c-0.1,0.1-0.2,0.1-0.4,0.2c-0.7,0.1-1.3,0.2-2,0.2c-0.7,0-1.4-0.2-1.9-0.6
	c-0.8-0.6-1.1-1.6-1.7-2.4c-0.7-0.8-1.6-1.4-2.7-1.6c-0.2-0.1-0.4-0.1-0.6-0.1c-1.3-0.2-2.5-0.1-3.8,0c-1.3,0.1-2.6,0.1-3.8-0.2
	c-0.3-0.1-0.5-0.2-0.7-0.3c-0.8-0.8,0.5-1.3,1.1-1.4C15.2,10.9,18.1,10.6,21.1,10.6z M15.6,16.5c1.2-0.2,2.3-0.3,3.5-0.3
	c0.1,0,0.2,0,0.4,0c0.5,0,1.1,0.1,1.6,0.4c0.5,0.4,0.7,1,0.9,1.6c0,0.1,0.1,0.2,0.1,0.3c0,0.1,0,0.1,0,0.2c0,0.2-0.2,0.3-0.3,0.4
	c-1,0.9-2.2,1.4-3.5,1.5s-2.6-0.1-3.9-0.4c-0.4-0.1-0.7-0.2-1-0.5c-0.5-0.6-0.3-1.6,0.2-2.2C14,16.9,14.9,16.7,15.6,16.5z
	 M22.7,20.5c0.3-0.2,0.6-0.2,1-0.2c0.2,0,0.4,0,0.7,0.1c0.4,0.1,0.9,0.3,1.3,0.5c0.5,0.2,0.8,0.5,0.9,1.1c0,0.3,0,0.7,0,1
	c0,0.6-0.3,1-0.7,1.2c-0.5,0.3-0.9,0.5-1.4,0.8c-0.3,0.2-0.7,0.3-1,0.3c-0.3,0-0.5,0-0.8-0.1c-0.6-0.1-1.1-0.3-1.7-0.5
	c-0.2-0.1-0.5-0.2-0.7-0.3C20,24.3,19.9,24,20,23.8c0-0.2,0-0.4,0-0.6c0-0.2,0-0.4,0-0.6c0-0.3,0.1-0.5,0.3-0.7
	c0.2-0.2,0.4-0.4,0.7-0.5C21.5,21.1,22.1,20.8,22.7,20.5z M27.3,25.2c0.2-0.1,0.3-0.1,0.5-0.1c0.2,0,0.4,0.1,0.6,0.2
	c0.2,0.2,0.5,0.3,0.7,0.5c0.4,0.3,0.5,0.7,0.4,1.1c-0.1,0.5-0.1,1-0.2,1.6c-0.1,0.5-0.3,0.9-0.7,1.1c-0.4,0.2-0.9,0.5-1.3,0.7
	c-0.2,0.1-0.5,0.2-0.8,0.2c-0.2-0.1-0.4-0.1-0.6-0.2c-0.4-0.2-0.8-0.4-1.2-0.6c-0.4-0.2-0.6-0.5-0.4-1c0.1-0.5,0.3-1,0.4-1.5
	c0.1-0.4,0.4-0.8,0.8-1C26.1,25.9,26.7,25.5,27.3,25.2z M29.9,20C29.9,20,29.9,20,29.9,20c0.1,0,0.2,0.1,0.3,0.1
	c0.7,0.6,1,1.6,1.1,2.5c0,0.3,0.1,0.6,0.1,0.9c0,0.1,0,0.2,0,0.3c-0.1,0.4-0.3,0.8-0.7,1c-0.1,0-0.1,0.1-0.2,0
	c-0.1,0-0.1-0.1-0.2-0.1c-0.4-0.3-0.7-0.5-0.9-0.9c-0.7-1.1-0.6-2.9,0.4-3.7C29.8,20,29.8,20,29.9,20z"/>
</svg>
