<svg xmlns="http://www.w3.org/2000/svg" xmlns:xlink="http://www.w3.org/1999/xlink" viewBox="0 0 92 141" fill="#fff"><defs><path id="a" d="M21.8 64.3C15.9 66.7 11.3 71.8 9.2 78c-2.1 6-1.4 12.1 2.1 16.4 4.1 4.9 11.7 7.4 22.6 6.3 11.5-1.1 20.6-5.9 27.3-14.3l.3-.3-.2-.3c-3.9-7.1-9.3-13-16.3-17.6l-.5-.3c-8.2-5.3-16.1-6.3-22.7-3.6zm57.4-59c3.2 37.2-.6 64.2-11.6 80.8l-.2.3c2.9 6.1 5 12.9 6.3 20.3l.1.6 3.4 13.9 4.9-17.3c.4-1.3 1.8-2.1 3.1-1.7 1.3.4 2.1 1.6 1.8 2.9v.2l-7.4 26.5-1.2 4.3-3.1-3.2-18.9-20c-.9-1-.9-2.6.1-3.5 1-.9 2.5-.9 3.4 0l.1.1 12.4 13.1-3.4-13.9v-.2c-1-6.1-2.6-11.7-4.7-16.8l-.4-.7-.5.6c-7.1 7.9-16.4 12.6-27.9 13.9l-1.1.1c-12.5 1.2-21.8-1.7-27-8.1-4.7-5.7-5.6-13.6-3-21.2 2.5-7.5 8.2-13.7 15.5-16.7 8.2-3.3 17.8-2.2 27.3 3.9 7.4 4.7 13.1 10.6 17.3 17.7l.1.1.2-.4c9-15.4 12.2-39.8 9.5-73.4l-.2-1.8C74 4.3 75 3.1 76.4 3c1.5-.1 2.7.9 2.8 2.3z"/></defs><use xlink:href="#a" overflow="visible"/><clipPath id="b"><use xlink:href="#a" overflow="visible"/></clipPath><g clip-path="url(#b)"><defs><path id="c" d="M-676-402H764v855H-676z"/></defs><clipPath id="d"><use xlink:href="#c" overflow="visible"/></clipPath><path clip-path="url(#d)" d="M-2-2h94v143H-2z"/></g></svg>
