<?xml version="1.0" encoding="UTF-8"?>
<svg width="64px" height="64px" viewBox="0 0 64 64" version="1.1" xmlns="http://www.w3.org/2000/svg" xmlns:xlink="http://www.w3.org/1999/xlink">
    <!-- Generator: Sketch 60.1 (88133) - https://sketch.com -->
    <title>Group 10</title>
    <desc>Created with Sketch.</desc>
    <g id="Page-1" stroke="none" stroke-width="1" fill="none" fill-rule="evenodd">
        <g id="home" transform="translate(-497.000000, -5576.000000)">
            <g id="Group-10" transform="translate(498.000000, 5577.000000)">
                <g id="Group-57" stroke="#222829" stroke-width="2">
                    <polyline id="Stroke-1" points="8 27 8 0 46 0 54 8 54 27"></polyline>
                    <polyline id="Stroke-3" stroke-linejoin="round" points="4 54 4 51 0 39 3.07 30 8 27"></polyline>
                    <path d="M16,55 L16,42 L14,33 L14,27 C14,25.343 12.752,24 11.094,24 C9.438,24 8,25.343 8,27 L8,35 L7,42" id="Stroke-5"></path>
                    <polyline id="Stroke-7" stroke-linejoin="round" points="2 63 2 54 18 54 18 63"></polyline>
                    <line x1="15" y1="58" x2="13" y2="58" id="Stroke-9"></line>
                    <polyline id="Stroke-11" stroke-linejoin="round" points="58 54 58 51 62 39 58.93 30 54 27"></polyline>
                    <path d="M46,54 L46,42 L48,33 L48,27 C48,25.343 49.248,24 50.906,24 C52.562,24 54,25.343 54,27 L54,35 L55,42" id="Stroke-13"></path>
                    <line x1="47" y1="58" x2="49" y2="58" id="Stroke-15"></line>
                    <path d="M44,63 L44,55 C44,54.447 44.447,54 45,54 L58,54 C58.553,54 59,54.447 59,55 L59,63" id="Stroke-17"></path>
                    <polyline id="Stroke-19" points="54 8 46 8 46 0"></polyline>
                    <line x1="13" y1="6" x2="15" y2="6" id="Stroke-21" stroke-linejoin="round"></line>
                    <line x1="17" y1="6" x2="19" y2="6" id="Stroke-23" stroke-linejoin="round"></line>
                    <line x1="21" y1="6" x2="23" y2="6" id="Stroke-25" stroke-linejoin="round"></line>
                    <line x1="13" y1="12" x2="41" y2="12" id="Stroke-27" stroke-linejoin="round"></line>
                    <line x1="13" y1="16" x2="49" y2="16" id="Stroke-29" stroke-linejoin="round"></line>
                    <line x1="13" y1="20" x2="49" y2="20" id="Stroke-31" stroke-linejoin="round"></line>
                    <line x1="20" y1="27" x2="22" y2="27" id="Stroke-43" stroke-linejoin="round"></line>
                    <line x1="24" y1="27" x2="26" y2="27" id="Stroke-47" stroke-linejoin="round"></line>
                    <line x1="28" y1="27" x2="30" y2="27" id="Stroke-49" stroke-linejoin="round"></line>
                    <line x1="32" y1="27" x2="34" y2="27" id="Stroke-51" stroke-linejoin="round"></line>
                    <line x1="36" y1="27" x2="38" y2="27" id="Stroke-53" stroke-linejoin="round"></line>
                    <line x1="40" y1="27" x2="42" y2="27" id="Stroke-55" stroke-linejoin="round"></line>
                </g>
                <rect id="Rectangle-Copy-31" stroke="#FFC500" stroke-width="3" x="8.5" y="1.5" width="21" height="21"></rect>
            </g>
        </g>
    </g>
</svg>