<?xml version="1.0" encoding="utf-8"?>
<!-- Generator: Adobe Illustrator 24.0.0, SVG Export Plug-In . SVG Version: 6.00 Build 0)  -->
<svg version="1.1" id="Layer_1" xmlns="http://www.w3.org/2000/svg" xmlns:xlink="http://www.w3.org/1999/xlink" x="0px" y="0px"
	 viewBox="0 0 200 33" style="enable-background:new 0 0 200 33;" xml:space="preserve">
<style type="text/css">
	.st0{fill:#fff;}
	.st1{fill:none;}
	.st2{fill:#fff;}
	.st3{fill:#fff;}
	.st4{fill:#fff;}
	.st5{fill:#fff;}
	.st6{fill:#fff;}
	.st7{fill:#fff;}
	.st8{fill:#fff;}
	.st9{fill:#fff;}
	.st10{fill:#fff;}
	.st11{fill:#fff;}
	.st12{fill:#fff;}
	<!-- .st0{fill:#0094D9;}
	.st1{fill:#FFFFFF;}
	.st2{fill:#A2D39B;}
	.st3{fill:#39B54A;}
	.st4{fill:#F49AC1;}
	.st5{fill:#EC008C;}
	.st6{fill:#74BDE9;}
	.st7{fill:#E9EC9A;}
	.st8{fill:#D7DF23;}
	.st9{fill:#FDC689;}
	.st10{fill:#F7931E;}
	.st11{fill:#F69679;}
	.st12{fill:#ED1C24;} -->
</style>
<title>Asset 1</title>
<path class="st0" d="M158.2,18.7c0.7,0.2,1.5-0.3,1.7-1s-0.3-1.5-1-1.7s-1.5,0.3-1.7,1c0,0.2,0,0.4,0,0.6
	C157.3,18.2,157.7,18.6,158.2,18.7L158.2,18.7z M85.6,28.7c0.7,0,1.5-0.3,2-0.8c0.1,0.2,0.1,0.4,0.3,0.6h2v-9.1
	c-1-0.3-2.1-0.5-3.1-0.5c-2.8,0-5.6,2-4.8,6C82.4,27.2,83.9,28.7,85.6,28.7z M86.6,21c0.2,0,0.5,0,0.7,0l0,5.2
	c-0.3,0.3-0.7,0.4-1.1,0.4c-0.5,0-1.3-0.5-1.6-1.9C84.2,22.5,85.4,21,86.6,21L86.6,21z M49.6,20l0,8.6h2.7l0-7.2
	c0.5-0.2,1.1-0.2,1.6-0.2c0.1,0,0.3,0,0.4,0v-2c0,0-0.1,0-0.1,0C52.6,19.2,51,19.4,49.6,20z M44.9,15.8c-2.9,0.3-3.8,1-3.8,1v11.7
	h2.8l0-5.2H48v-2.2H44v-2.8c0.7-0.4,1.4-0.5,2.2-0.5c0.9-0.1,1.9,0.1,2.8,0.4l0.6-2C48,15.8,46.5,15.6,44.9,15.8L44.9,15.8z
	 M79.7,28.9c0.5,0,1.1-0.1,1.6-0.2l-0.6-2.1c-0.1,0-0.2,0-0.3,0c-0.5,0-0.8-0.3-0.8-1.1v-9.2c-0.4-0.1-0.9-0.2-1.3-0.1
	c-0.4,0-0.9,0-1.3,0.1h0v9.3C77,28.4,78.6,28.9,79.7,28.9L79.7,28.9z M199.2,19.4c-0.5-0.3-1.1-0.4-1.7-0.4c-0.2,0-0.4,0-0.6,0
	c-0.9,0.1-1.8,0.2-2.6,0.5v6.3h2v-4.7c0.3-0.1,0.6-0.1,1-0.1c0.2,0,0.4,0,0.5,0.1c0.1,0.1,0.1,0.1,0.1,0.4c0,0.3-0.1,0.6-0.2,0.8
	c-0.2,0.5-0.3,1-0.5,1.5v2h1.4c0,0,1.1-2.7,1.2-3.5c0.1-0.4,0.1-0.8,0.2-1.2C200.1,20.6,199.7,19.9,199.2,19.4z M191.8,18.7
	c0.7,0.2,1.5-0.3,1.7-1c0.2-0.7-0.3-1.5-1-1.7s-1.5,0.3-1.7,1c0,0.2,0,0.4,0,0.6C190.8,18.2,191.2,18.6,191.8,18.7L191.8,18.7z
	 M191,19.7v6.3h2.2v-6.3c-0.4-0.1-0.7-0.1-1.1-0.1C191.7,19.6,191.3,19.6,191,19.7L191,19.7z M118.1,29c1,0,2-0.2,3-0.6l-1-2.1
	c-0.6,0.2-1.2,0.3-1.9,0.4c-1.8,0-2.5-1.8-2.5-4.2c0-2.2,0.5-4.2,2.4-4.2c0.7,0,1.4,0.2,1.9,0.7l1.4-1.8c-0.9-0.8-2.1-1.2-3.2-1.1
	c-2.9,0-5.3,1.9-5.3,6.4C112.7,27.1,114.9,28.9,118.1,29z M157.2,20.3v8.3h2.6v-8.3C159,20.5,158.1,20.5,157.2,20.3z M56,20.3v8.3
	h2.6v-8.3C57.7,20.5,56.8,20.5,56,20.3z M186.9,23.9c-0.2-0.5-0.4-1-0.5-1.5c-0.1-0.3-0.1-0.5-0.2-0.8c0-0.2,0.1-0.3,0.1-0.4
	c0.2-0.1,0.3-0.1,0.5-0.1c0.3,0,0.6,0.1,1,0.1v4.7h2.1v-6.3c-0.8-0.3-1.7-0.5-2.6-0.5c-0.2,0-0.4,0-0.6,0c-0.6,0-1.2,0.1-1.7,0.4
	c-0.6,0.4-0.9,1.1-0.8,1.8c0,0.4,0.1,0.8,0.2,1.2c0.2,0.8,1.2,3.4,1.2,3.5h1.4V23.9z M97.6,23.5l0,5.1h2.6l0-4.6
	c0-0.6,0-1.3-0.1-1.9c-0.3-1.9-2-3.2-3.9-3.1c-1.4,0-2.9,0.3-4.2,0.8v8.8h2.7l0-7.3c0.4-0.2,0.8-0.2,1.3-0.2
	c0.7-0.1,1.4,0.4,1.5,1.1c0,0,0,0,0,0C97.6,22.6,97.7,23.1,97.6,23.5z M150,28.4c0.5,0.2,1,0.3,1.5,0.3c1.9,0,3.5-1.5,3.8-3.4
	c0.9-4.4-2.1-6.2-4.8-6.2c-1.1,0-2.1,0.1-3.1,0.4V33h2.7L150,28.4z M150,21.1c0.2,0,0.5,0,0.7,0c1.1,0,2.3,1.4,2,3.8
	c-0.4,2.6-2.4,2-2.7,1.8L150,21.1z M166.2,19c-1.4,0-2.9,0.3-4.2,0.8l0,8.8h2.7l0-7.3c0.4-0.2,0.8-0.2,1.3-0.2
	c0.7-0.1,1.4,0.4,1.5,1.1c0,0,0,0,0,0c0.1,0.4,0.1,0.9,0.1,1.3l0,5.1h2.7l0-4.6c0-0.6,0-1.3-0.1-1.9C169.8,20.3,168.1,18.9,166.2,19
	L166.2,19z M145.3,22.1c-0.3-1.9-2-3.2-3.9-3.1c-1.1,0-2.1,0.2-3.1,0.7c-0.7-0.5-1.6-0.7-2.4-0.7c-1.4,0-2.9,0.3-4.2,0.8v8.8h2.7
	l0-7.3c0.4-0.2,0.8-0.2,1.3-0.2c0.7-0.1,1.4,0.4,1.5,1.1c0,0,0,0,0,0c0.1,0.4,0.1,0.9,0.1,1.3l0,5.1h2.7l0-5.2c0-0.7-0.1-1.4-0.3-2
	c0.5-0.2,1-0.4,1.6-0.4c0.7-0.1,1.4,0.4,1.6,1.2c0.1,0.4,0.1,0.9,0.1,1.3v5.1h2.7l0-4.6C145.5,23.4,145.4,22.8,145.3,22.1
	L145.3,22.1z M107.6,16.2l0,2.9c-0.2,0-0.5-0.1-0.7-0.1c-2.7,0-5.5,1.7-4.7,6.1c0.4,2.1,2,3.7,3.9,3.7c0.7,0,1.4-0.3,1.9-0.8
	l0.3,0.5h2V16.2c-0.4-0.1-0.9-0.2-1.4-0.1C108.5,16.1,108.1,16.1,107.6,16.2z M106.4,26.8c-0.5,0-1.3-0.5-1.6-1.9
	c-0.3-1.3,0.1-2.7,1-3.7c0.5-0.3,1.2-0.4,1.7-0.1l0,5.2C107.3,26.6,106.9,26.8,106.4,26.8z M75.4,25.6c-0.3-1.1-1.1-2-2.1-2.5
	c-1-0.6-1.7-0.9-1.8-1.3c-0.1-0.5,0.2-0.9,0.7-1c0.1,0,0.1,0,0.2,0c0.8,0,1.5,0.3,2.2,0.7v-2C73.8,19.2,73,19,72.1,19
	c-1.8,0-3.3,1-2.9,2.9c0.2,1,0.8,1.8,1.7,2.2c0.9,0.6,1.9,1.1,2,1.7c0.1,0.5-0.2,1.2-1.4,1.2c-0.8-0.1-1.5-0.4-2.1-0.8v2
	c0.8,0.3,1.6,0.4,2.4,0.4C74.2,28.9,75.8,27.9,75.4,25.6L75.4,25.6z M64.3,19L64.3,19c-2.4,0-4.1,1.4-4.1,4.9v0
	c0.1,3.5,1.7,4.9,4.2,4.9c0,0,0,0,0,0c1,0,2-0.2,2.9-0.7v-2c-0.8,0.5-1.7,0.7-2.7,0.7c-1,0.1-1.8-0.7-1.9-1.7c0-0.1,0-0.2,0-0.3h2.5
	c0.5,0,1.2,0,1.7,0l0.6,0c0.1-0.6,0.2-1.2,0.2-1.7C67.7,19.9,66.2,19.1,64.3,19z M65.7,23.3h-2.9c0,0-0.2-2.4,1.6-2.5c0,0,0,0,0,0h0
	c0.7-0.1,1.3,0.8,1.3,1.9L65.7,23.3z M185.9,28.6h12.3v-1.8h-12.3V28.6z M57.3,15.9c-0.8,0-1.4,0.6-1.4,1.4c0,0.8,0.6,1.4,1.4,1.4
	c0.8,0,1.4-0.6,1.4-1.4c0,0,0,0,0,0C58.7,16.6,58,16,57.3,15.9z M121.6,25c0.4,2.1,2,3.7,3.7,3.7c0.7,0,1.5-0.3,2-0.8
	c0.1,0.2,0.1,0.4,0.3,0.6h2v-9.1c-1-0.3-2.1-0.5-3.1-0.5C123.7,19.1,120.8,21.1,121.6,25L121.6,25z M126.9,26.3
	c-0.3,0.3-0.7,0.4-1.1,0.4c-0.5,0-1.3-0.5-1.6-1.9c-0.4-2.3,0.8-3.8,2-3.8c0.2,0,0.5,0,0.7,0L126.9,26.3z M172.1,25
	c0.4,2.1,2,3.7,3.7,3.7c0.7,0,1.5-0.3,2-0.8c0.1,0.2,0.1,0.4,0.3,0.6h2v-9.1c-1-0.3-2.1-0.5-3.1-0.5C174.1,19.1,171.3,21.1,172.1,25
	z M177.3,26.3c-0.3,0.3-0.7,0.4-1.1,0.4c-0.5,0-1.3-0.5-1.6-1.9c-0.4-2.3,0.8-3.8,2-3.8c0.2,0,0.5,0,0.7,0L177.3,26.3z"/>
<path class="st1" d="M35.8,13c0.1-0.7,0.1-1.4,0-2.1c0-0.1,0-0.2,0-0.3c-0.1-0.3-0.1-0.6-0.2-0.8c-0.2-0.7-0.5-1.3-0.9-1.9
	c-1.5,0.2-3,0.4-4.6,0.6c-3.4,0.5-6.4,0.5-7.5-0.5c-1-1-0.3-4.3,0.4-6.7c-0.5-0.4-1.1-0.7-1.7-0.9c0,0-0.1,0-0.2-0.1
	c-0.1,0-0.3-0.1-0.3-0.1c-0.1,0-0.1,0-0.2,0C19.9,0,19,0,18.2,0.1c0,0-0.1,0-0.1,0h0c-0.4,1.1-0.9,2.1-1.5,3.1
	c-0.7,1.2-1.6,2.4-2.7,2.5c-1.8,0.3-4.2-2.5-6.6-5.4l0,0C6.6,0.6,6,0.8,5.4,1.2c0,0-0.1,0-0.1,0.1c0,0-0.1,0.1-0.3,0.2
	c0,0-0.1,0.1-0.1,0.1c-0.4,0.3-0.7,0.7-1,1C3.7,3,3.5,3.3,3.3,3.7C4.9,5.2,6.1,7,7.1,9c1,2-0.1,2.6-1.5,3.2
	c-1.8,0.5-3.6,0.9-5.4,1.2h0C0,14-0.1,14.8,0,15.5c0,0,0,0.2,0,0.3c0,0.1,0,0.1,0,0.2c0.1,0.9,0.5,1.7,1,2.5
	c1.3-0.2,2.6-0.3,3.9-0.3c3.6,0,3.7,1,3.5,3.9c-0.4,2.5-1.1,5-2.2,7.4c0.2,0.2,0.4,0.4,0.7,0.5c0.4,0.2,0.7,0.4,1.1,0.5l0,0
	c0.1,0,0.1,0,0.2,0.1c0.1,0,0.2,0.1,0.2,0.1c0.9,0.3,1.8,0.4,2.6,0.3c0.1-0.2,3.7-9.5,6.1-9.9c1.9-0.3,4.8,3.6,5.3,4.3
	c0.7,0,1.5-0.2,2.2-0.5c0,0,0.1,0,0.3-0.1c0.1-0.1,0.3-0.1,0.3-0.1c0.7-0.5,1.4-1.1,1.8-1.8l0-0.1c0.1,0.1-3.1-4.1-2.8-5.9
	C24.9,15,33.1,13.5,35.8,13L35.8,13z"/>
<path class="st2" d="M21.2,0.8c-0.8,2.1-1.5,4.2-2,6.4C19,8,18.9,8.7,18.9,9.4c-0.1,1.2,0.8,2.2,1.9,2.4c1,0.2,2,0.2,3,0.1
	c1.2-0.1,2.5-0.2,3.8-0.4c1.9-0.2,5.6-0.8,7.5-1.1c-2.8,0.4-5.6,0.7-8.4,0.8c-1,0-2.1,0-3.1-0.2c-0.9-0.1-1.7-0.5-2.4-1
	c-0.5-0.4-0.8-1-1-1.6C20,7.9,20,7.3,20,6.7c0-1.5,0.3-3,0.8-4.5C20.8,1.8,21,1.3,21.2,0.8l0.1-0.2L21.2,0.8z"/>
<path class="st3" d="M20,6.7c0,0.6,0.1,1.2,0.3,1.7c0.2,0.6,0.5,1.1,1,1.6c0.7,0.6,1.6,0.9,2.4,1c1,0.2,2.1,0.2,3.1,0.2
	c2.8-0.1,5.6-0.4,8.4-0.8c0.2,0,0.4-0.1,0.6-0.1c0-0.2-0.1-0.4-0.2-0.6c-0.2-0.7-0.5-1.3-0.9-1.9c-1.5,0.2-3,0.4-4.6,0.6
	c-3.4,0.5-6.4,0.5-7.5-0.5c-1-1-0.3-4.3,0.4-6.7c-0.5-0.4-1.1-0.7-1.7-0.9c0,0.1,0,0.1-0.1,0.2c-0.2,0.5-0.4,1.1-0.6,1.7
	C20.2,3.7,20,5.2,20,6.7L20,6.7z"/>
<path class="st4" d="M8.7,30.7c1.1-3.1,2.6-6,4.3-8.8c0.5-0.8,1.2-1.6,1.9-2.2c0.4-0.3,0.8-0.6,1.3-0.7c0.3-0.1,0.6-0.1,0.9-0.1
	c0.8,0,1.5,0.2,2.2,0.7c0.7,0.4,1.4,0.9,2,1.4c1.3,1.3,2.5,2.7,3.6,4.1h0c0,0-2.3-3.2-3.7-4.7c-0.7-0.8-1.4-1.5-2.2-2.1
	c-0.4-0.3-0.7-0.5-1.2-0.7c-0.4-0.2-0.9-0.3-1.4-0.3c-0.2,0-0.4,0-0.6,0.1c-0.5,0.2-1,0.5-1.4,0.9c-0.7,0.9-1.2,1.8-1.7,2.7
	C11.3,24.1,9.9,27.4,8.7,30.7L8.7,30.7z"/>
<path class="st5" d="M22.7,25.6c0.7,0,1.5-0.2,2.2-0.5c-1.1-1.5-2.3-2.8-3.6-4.1c-0.6-0.5-1.3-1-2-1.4c-0.7-0.4-1.4-0.6-2.2-0.7
	c-0.3,0-0.6,0-0.9,0.1c-0.5,0.1-0.9,0.4-1.3,0.7c-0.7,0.7-1.4,1.4-1.9,2.2c-1.7,2.8-3.2,5.7-4.3,8.8c0.9,0.3,1.8,0.4,2.6,0.3
	c0.1-0.2,3.7-9.5,6.1-9.9C19.3,20.9,22.2,24.8,22.7,25.6z"/>
<path class="st6" d="M27.8,12.5c2.6-0.7,5.3-1.2,8-1.5c-1.3,0.2-6,0.9-10.3,1.7c-4.3,0.9-6.4,1.7-5.4,4.5c0.9,2.6,4.7,7,5.2,7.6
	c-1.1-1.4-2.1-2.9-2.9-4.5C20.2,15.4,23.8,13.5,27.8,12.5z"/>
<path class="st0" d="M35.8,13c0.1-0.7,0.1-1.4,0-2.1l0,0c-2.7,0.4-5.3,0.9-8,1.5c-4,1-7.6,3-5.4,7.7c0.8,1.6,1.8,3.1,2.9,4.5
	l0.1,0.1c0.7-0.5,1.4-1.1,1.8-1.8l0-0.1c0.1,0.1-3.1-4.1-2.8-5.9C24.9,15,33.1,13.5,35.8,13z"/>
<g>
	<path class="st7" d="M5.9,1.8L5.9,1.8C7,3.3,8.1,4.6,9.3,5.9c0.8,1,1.7,1.8,2.7,2.7c0.4,0.3,0.9,0.6,1.3,0.9c1,0.6,2.3,0.5,3.2-0.3
		c0.7-0.6,1.2-1.3,1.6-2.1c0.7-1.3,1.2-2.7,1.7-4.1c0.3-0.8,0.6-1.7,0.8-2.4c-0.4,0.9-0.7,1.8-1.2,2.7C19,4.6,18.1,5.8,17,6.8
		c-0.8,0.7-1.8,1.1-2.8,1.2c-0.1,0-0.2,0-0.3,0c-1-0.1-1.9-0.4-2.7-1C10.3,6.5,9.5,5.8,8.7,5C7.8,4.1,6.8,3,5.9,1.8L5.9,1.8L5.9,1.8
		z"/>
	<path class="st8" d="M11.2,7.1C12,7.7,13,8.1,14,8.1c0.1,0,0.2,0,0.3,0c1-0.1,2-0.5,2.8-1.2c1.1-1,1.9-2.3,2.5-3.6
		c0.4-0.9,0.8-1.8,1.2-2.7c0.1-0.2,0.1-0.2,0.1-0.3c-0.1,0-0.1,0-0.2,0c-0.8-0.2-1.7-0.2-2.6,0c-0.5,1.2-2,5.3-4.1,5.7
		c-1.8,0.3-4.2-2.6-6.6-5.4C6.6,0.6,6,0.9,5.4,1.3c0,0,0,0,0.1,0.1c1,1.3,2.2,2.6,3.3,3.7C9.5,5.8,10.3,6.5,11.2,7.1z"/>
	<path class="st9" d="M11.6,10.4c-0.3-0.8-0.8-1.5-1.2-2.2C9.9,7.6,9.4,7,9,6.4C7.9,5,6.9,3.7,5.7,2.5C5.5,2.2,5.2,1.9,4.9,1.6l0,0
		C6.7,3.5,8.2,5.7,9.4,8c0.4,0.8,1.4,3.2-0.4,4.8c-1.8,1.6-5.5,2.1-8.9,2.6c1.6-0.2,3.2-0.4,4.8-0.6c1.2-0.2,2.3-0.4,3.5-0.6
		c1-0.2,1.9-0.5,2.8-1.1c0.4-0.3,0.7-0.8,0.8-1.3C11.9,11.4,11.8,10.9,11.6,10.4z"/>
	<path class="st10" d="M3.3,3.7C4.9,5.2,6.1,7,7.1,9c1,2-0.1,2.6-1.5,3.2c-1.8,0.5-3.6,0.9-5.4,1.2h0C0,14-0.1,14.8,0,15.5h0
		c3.4-0.5,7.1-1,8.9-2.6c1.8-1.6,0.8-4,0.4-4.8C8.2,5.7,6.7,3.5,4.9,1.6l0,0c-0.4,0.3-0.7,0.7-1,1C3.7,3,3.5,3.3,3.3,3.7"/>
	<path class="st11" d="M11.5,16.3c-0.5-0.5-1.2-0.8-1.9-0.9c-0.7-0.1-1.4-0.1-2.1-0.1C5,15.4,2.6,15.6,0.1,16l0,0
		c1.6-0.2,3.3-0.3,4.9-0.4c1,0,2,0.1,3,0.4c0.1,0,0.1,0,0.2,0.1l0.1,0l0,0c1.8,0.7,2.3,2.2,2.3,3.9c-0.1,2-0.5,4.1-1,6
		c-0.4,1.5-0.9,3-1.4,4.5c0.6-1.6,1.3-3.2,1.8-4.9c0.6-1.7,1.2-3.5,1.7-5.3c0.2-0.8,0.3-1.6,0.4-2.4C12.1,17.4,11.9,16.8,11.5,16.3z
		"/>
	<path class="st12" d="M10.6,20.1c0-1.8-0.5-3.2-2.3-3.9l0,0l-0.1,0c-0.1,0-0.1,0-0.2-0.1c-1-0.3-2-0.4-3-0.4
		c-1.6,0-3.3,0.1-4.9,0.4c0.1,0.9,0.5,1.7,1,2.5c1.3-0.2,2.6-0.3,3.9-0.3c3.6,0,3.7,1,3.5,3.9c-0.4,2.5-1.1,5-2.2,7.4
		c0.2,0.2,0.4,0.4,0.7,0.5c0.4,0.2,0.7,0.4,1.1,0.5l0,0c0.5-1.3,1-2.9,1.4-4.5C10.2,24.1,10.5,22.1,10.6,20.1L10.6,20.1z"/>
</g>
</svg>
