<?xml version="1.0" encoding="utf-8"?>
<!-- Generator: Adobe Illustrator 24.0.0, SVG Export Plug-In . SVG Version: 6.00 Build 0)  -->
<svg version="1.1" id="Layer_1" xmlns="http://www.w3.org/2000/svg" xmlns:xlink="http://www.w3.org/1999/xlink" x="0px" y="0px"
	 viewBox="0 0 200 58" style="enable-background:new 0 0 200 58;" xml:space="preserve">
<style type="text/css">
	.st0{fill:#FFFFFF;}
</style>
<g>
	<path class="st0" d="M38.1,4.3H33c-0.7,0-1.3,0.6-1.3,1.3v15.9l0,0.1c-2.6-1.9-5.4-2.8-9.2-2.8c-4.2,0-7.9,1.4-10.8,4.2
		c-3.4,3.1-5.4,7.6-5.4,12.2c0,5.1,2.1,9.6,5.9,12.9c2.8,2.4,6.3,3.7,10.3,3.7c3.5,0,6.5-1,9.2-2.9l0,0v0.8c0,0.7,0.6,1.3,1.3,1.3
		h5.2c0.7,0,1.3-0.6,1.3-1.3V5.6C39.4,4.9,38.8,4.3,38.1,4.3 M23.3,44c-5.1,0-8.9-3.6-8.9-8.6c0-4.8,3.8-8.7,8.5-8.7
		c4.8,0,8.3,3.8,8.3,8.8C31.3,40.3,27.8,44,23.3,44"/>
	<path class="st0" d="M75.1,31.6H62.8v0v-26c0-0.7-0.6-1.3-1.3-1.3h-5.2c-0.7,0-1.3,0.6-1.3,1.3l0,32.5c0,0.7,0.6,1.3,1.3,1.3h18.8
		c0.7,0,1.3-0.6,1.3-1.3v-5.1C76.5,32.2,75.9,31.6,75.1,31.6"/>
	<path class="st0" d="M75.1,43.3l-24,0l0-37.7c0-0.7-0.6-1.3-1.3-1.3h-5.2c-0.7,0-1.3,0.6-1.3,1.3v44.1c0,0.7,0.6,1.3,1.3,1.4h30.5
		c0.7,0,1.3-0.7,1.3-1.4v-5.1C76.4,43.9,75.8,43.3,75.1,43.3"/>
	<path class="st0" d="M138.4,37.6c0.3,0.3,0.6,0.5,0.9,0.6c0.4,0.2,0.8,0.2,1.2,0.2c0.5,0,0.8-0.1,1.1-0.2c0.3-0.1,0.5-0.4,0.5-0.7
		c0-0.2,0-0.3-0.1-0.4c-0.1-0.1-0.2-0.2-0.3-0.3c-0.2-0.1-0.4-0.2-0.6-0.2c-0.3-0.1-0.6-0.2-1-0.3c-0.3-0.1-0.5-0.1-0.8-0.2
		c-0.3-0.1-0.5-0.2-0.7-0.4c-0.2-0.2-0.4-0.4-0.5-0.6c-0.1-0.2-0.2-0.5-0.2-0.9c0-0.3,0.1-0.6,0.2-0.9c0.2-0.3,0.4-0.5,0.6-0.7
		c0.3-0.2,0.6-0.3,0.9-0.4c0.3-0.1,0.7-0.1,1-0.1c0.6,0,1.1,0.1,1.5,0.2c0.4,0.2,0.8,0.4,1.1,0.7l-0.7,0.9c-0.2-0.2-0.5-0.4-0.8-0.5
		c-0.3-0.1-0.7-0.2-1.1-0.2c-0.4,0-0.8,0.1-1,0.2c-0.3,0.1-0.4,0.4-0.4,0.7c0,0.3,0.2,0.5,0.5,0.7c0.3,0.1,0.8,0.3,1.4,0.4
		c0.3,0.1,0.6,0.2,0.9,0.3c0.3,0.1,0.5,0.2,0.8,0.4c0.2,0.2,0.4,0.4,0.5,0.6c0.1,0.2,0.2,0.5,0.2,0.9c0,0.4-0.1,0.7-0.2,0.9
		c-0.2,0.3-0.4,0.5-0.7,0.7c-0.3,0.2-0.6,0.3-0.9,0.4c-0.4,0.1-0.7,0.1-1.1,0.1c-1.3,0-2.3-0.4-3-1.1L138.4,37.6z"/>
	<path class="st0" d="M148.1,39.6c-0.5,0-1-0.1-1.5-0.3c-0.5-0.2-0.8-0.5-1.2-0.8c-0.3-0.3-0.6-0.7-0.8-1.2
		c-0.2-0.4-0.3-0.9-0.3-1.4c0-0.5,0.1-1,0.3-1.4c0.2-0.4,0.4-0.8,0.8-1.2c0.3-0.3,0.7-0.6,1.2-0.8c0.5-0.2,1-0.3,1.5-0.3
		c0.5,0,1,0.1,1.5,0.3c0.5,0.2,0.8,0.5,1.2,0.8c0.3,0.3,0.6,0.7,0.8,1.2c0.2,0.5,0.3,0.9,0.3,1.4c0,0.5-0.1,1-0.3,1.4
		c-0.2,0.4-0.4,0.8-0.8,1.2c-0.3,0.3-0.7,0.6-1.2,0.8C149.1,39.5,148.6,39.6,148.1,39.6 M148.1,38.4c0.4,0,0.7-0.1,1-0.2
		c0.3-0.1,0.5-0.3,0.7-0.6c0.2-0.2,0.4-0.5,0.5-0.8c0.1-0.3,0.2-0.6,0.2-0.9c0-0.3-0.1-0.6-0.2-0.9c-0.1-0.3-0.3-0.6-0.5-0.8
		c-0.2-0.2-0.5-0.4-0.7-0.6c-0.3-0.1-0.6-0.2-1-0.2c-0.4,0-0.7,0.1-1,0.2c-0.3,0.1-0.5,0.3-0.7,0.6c-0.2,0.2-0.4,0.5-0.5,0.8
		c-0.1,0.3-0.2,0.6-0.2,0.9c0,0.3,0.1,0.6,0.2,0.9c0.1,0.3,0.3,0.6,0.5,0.8c0.2,0.2,0.5,0.4,0.7,0.6
		C147.4,38.3,147.7,38.4,148.1,38.4"/>
	<rect x="153" y="29.3" class="st0" width="1.4" height="10.1"/>
	<path class="st0" d="M155.8,32.3h1.4v4.1c0,0.7,0.1,1.1,0.4,1.4c0.3,0.3,0.7,0.4,1.2,0.4c0.4,0,0.7-0.1,1-0.2
		c0.3-0.2,0.5-0.4,0.6-0.6c0.2-0.3,0.3-0.6,0.3-0.9c0.1-0.3,0.1-0.7,0.1-1v-3.3h1.4v5.5v0.8c0,0.2,0,0.5,0,0.7h-1.3l0-1
		c-0.1,0.1-0.2,0.3-0.3,0.4c-0.1,0.1-0.3,0.3-0.5,0.4c-0.2,0.1-0.4,0.2-0.7,0.3c-0.3,0.1-0.5,0.1-0.9,0.1c-0.9,0-1.6-0.3-2-0.8
		c-0.4-0.5-0.7-1.3-0.7-2.2V32.3z"/>
	<path class="st0" d="M164.5,33.5h-1.3v-1.1h1.3V30h1.4v2.3h2.1v1.1h-2.1v3.5c0,0.6,0.1,1,0.3,1.2c0.2,0.2,0.4,0.3,0.7,0.3
		c0.3,0,0.5,0,0.7-0.1c0.2-0.1,0.3-0.2,0.5-0.4l0.6,0.8c-0.3,0.3-0.6,0.5-0.9,0.6c-0.3,0.1-0.7,0.2-1.1,0.2c-0.7,0-1.3-0.2-1.6-0.6
		c-0.3-0.4-0.5-1-0.5-1.9V33.5z"/>
	<path class="st0" d="M169.5,29.5h1.5v1.5h-1.5V29.5z M169.6,32.3h1.4v7h-1.4V32.3z"/>
	<path class="st0" d="M175.9,39.6c-0.5,0-1-0.1-1.5-0.3c-0.5-0.2-0.8-0.5-1.2-0.8c-0.3-0.3-0.6-0.7-0.8-1.2
		c-0.2-0.4-0.3-0.9-0.3-1.4c0-0.5,0.1-1,0.3-1.4c0.2-0.4,0.4-0.8,0.8-1.2c0.3-0.3,0.7-0.6,1.2-0.8c0.5-0.2,1-0.3,1.5-0.3
		c0.5,0,1,0.1,1.5,0.3c0.5,0.2,0.8,0.5,1.2,0.8c0.3,0.3,0.6,0.7,0.8,1.2c0.2,0.5,0.3,0.9,0.3,1.4c0,0.5-0.1,1-0.3,1.4
		c-0.2,0.4-0.4,0.8-0.8,1.2c-0.3,0.3-0.7,0.6-1.2,0.8C177,39.5,176.5,39.6,175.9,39.6 M175.9,38.4c0.4,0,0.7-0.1,1-0.2
		s0.5-0.3,0.7-0.6c0.2-0.2,0.4-0.5,0.5-0.8c0.1-0.3,0.2-0.6,0.2-0.9c0-0.3-0.1-0.6-0.2-0.9c-0.1-0.3-0.3-0.6-0.5-0.8
		c-0.2-0.2-0.5-0.4-0.7-0.6c-0.3-0.1-0.6-0.2-1-0.2c-0.4,0-0.7,0.1-1,0.2c-0.3,0.1-0.5,0.3-0.7,0.6c-0.2,0.2-0.4,0.5-0.5,0.8
		c-0.1,0.3-0.2,0.6-0.2,0.9c0,0.3,0.1,0.6,0.2,0.9c0.1,0.3,0.3,0.6,0.5,0.8c0.2,0.2,0.5,0.4,0.7,0.6
		C175.3,38.3,175.6,38.4,175.9,38.4"/>
	<path class="st0" d="M180.8,33.8V33c0-0.2,0-0.5,0-0.7h1.3l0,1.1c0.1-0.1,0.2-0.3,0.3-0.4c0.1-0.1,0.3-0.3,0.5-0.4
		c0.2-0.1,0.4-0.2,0.7-0.3c0.3-0.1,0.5-0.1,0.9-0.1c0.9,0,1.6,0.3,2,0.8c0.4,0.5,0.7,1.3,0.7,2.2v4.2h-1.4v-4.1
		c0-0.7-0.1-1.1-0.4-1.4c-0.3-0.3-0.7-0.5-1.2-0.5c-0.4,0-0.7,0.1-1,0.2c-0.3,0.2-0.5,0.4-0.6,0.6c-0.2,0.3-0.3,0.5-0.3,0.9
		c-0.1,0.3-0.1,0.7-0.1,1v3.3h-1.4V33.8z"/>
	<path class="st0" d="M189.1,37.6c0.3,0.3,0.6,0.5,0.9,0.6c0.4,0.2,0.8,0.2,1.2,0.2c0.5,0,0.8-0.1,1.1-0.2c0.3-0.1,0.5-0.4,0.5-0.7
		c0-0.2,0-0.3-0.1-0.4c-0.1-0.1-0.2-0.2-0.3-0.3c-0.2-0.1-0.4-0.2-0.6-0.2c-0.3-0.1-0.6-0.2-1-0.3c-0.3-0.1-0.5-0.1-0.8-0.2
		c-0.3-0.1-0.5-0.2-0.7-0.4c-0.2-0.2-0.4-0.4-0.5-0.6c-0.1-0.2-0.2-0.5-0.2-0.9c0-0.3,0.1-0.6,0.2-0.9c0.2-0.3,0.4-0.5,0.6-0.7
		c0.3-0.2,0.6-0.3,0.9-0.4c0.3-0.1,0.7-0.1,1-0.1c0.6,0,1.1,0.1,1.5,0.2c0.4,0.2,0.8,0.4,1.1,0.7l-0.7,0.9c-0.2-0.2-0.5-0.4-0.8-0.5
		c-0.3-0.1-0.7-0.2-1.1-0.2c-0.4,0-0.8,0.1-1,0.2c-0.3,0.1-0.4,0.4-0.4,0.7c0,0.3,0.2,0.5,0.5,0.7c0.3,0.1,0.8,0.3,1.4,0.4
		c0.3,0.1,0.6,0.2,0.9,0.3c0.3,0.1,0.5,0.2,0.8,0.4c0.2,0.2,0.4,0.4,0.5,0.6c0.1,0.2,0.2,0.5,0.2,0.9c0,0.4-0.1,0.7-0.2,0.9
		c-0.2,0.3-0.4,0.5-0.7,0.7c-0.3,0.2-0.6,0.3-0.9,0.4c-0.4,0.1-0.7,0.1-1.1,0.1c-1.3,0-2.3-0.4-3-1.1L189.1,37.6z"/>
	<path class="st0" d="M91.1,33.9v-0.8c0-0.2,0-0.5,0-0.7h1.3l0,1.1c0.1-0.1,0.2-0.3,0.3-0.4c0.1-0.1,0.3-0.3,0.5-0.4
		c0.2-0.1,0.4-0.2,0.7-0.3c0.3-0.1,0.5-0.1,0.9-0.1c0.9,0,1.6,0.3,2,0.8c0.4,0.5,0.7,1.3,0.7,2.2v4.2h-1.4v-4.1
		c0-0.7-0.1-1.1-0.4-1.4c-0.3-0.3-0.7-0.5-1.2-0.5c-0.4,0-0.7,0.1-1,0.2c-0.3,0.2-0.5,0.4-0.6,0.6c-0.2,0.3-0.3,0.5-0.3,0.9
		c-0.1,0.3-0.1,0.7-0.1,1v3.3h-1.4V33.9z"/>
	<path class="st0" d="M103.5,38.5c-0.3,0.4-0.6,0.6-1,0.8c-0.4,0.2-0.9,0.3-1.3,0.3c-0.3,0-0.6,0-0.9-0.1c-0.3-0.1-0.6-0.2-0.8-0.4
		c-0.2-0.2-0.4-0.4-0.6-0.7c-0.1-0.3-0.2-0.6-0.2-1c0-0.8,0.3-1.4,0.8-1.8c0.5-0.5,1.3-0.7,2.3-0.7c0.2,0,0.3,0,0.5,0
		c0.2,0,0.4,0,0.5,0c0.2,0,0.3,0,0.4,0c0.1,0,0.2,0,0.3,0v-0.3c0-0.5-0.2-0.9-0.5-1.1c-0.3-0.2-0.8-0.3-1.3-0.3
		c-0.5,0-1,0.1-1.3,0.2c-0.3,0.1-0.6,0.3-0.8,0.4L99,33c0.1-0.1,0.3-0.2,0.4-0.3c0.2-0.1,0.4-0.2,0.6-0.3c0.2-0.1,0.5-0.2,0.8-0.2
		c0.3-0.1,0.6-0.1,1-0.1c0.9,0,1.6,0.2,2.1,0.7c0.5,0.4,0.8,1.1,0.8,1.9V38v0.8c0,0.2,0,0.5,0,0.6h-1.3L103.5,38.5z M103.5,36.1
		c0,0-0.1,0-0.2,0c-0.1,0-0.2,0-0.4,0c-0.2,0-0.3,0-0.5,0c-0.2,0-0.3,0-0.5,0c-0.4,0-0.7,0-0.9,0.1c-0.2,0.1-0.4,0.2-0.6,0.3
		c-0.1,0.1-0.2,0.3-0.3,0.5c-0.1,0.2-0.1,0.3-0.1,0.5c0,0.4,0.1,0.7,0.4,0.9c0.3,0.2,0.6,0.3,1.1,0.3c0.3,0,0.5,0,0.8-0.1
		c0.2-0.1,0.4-0.2,0.6-0.4c0.2-0.2,0.3-0.3,0.4-0.5c0.1-0.2,0.2-0.4,0.2-0.6V36.1z"/>
	<path class="st0" d="M106.3,33.9v-0.8c0-0.2,0-0.5,0-0.7h1.3l0,1.1c0.1-0.1,0.2-0.3,0.3-0.4c0.1-0.1,0.3-0.3,0.5-0.4
		c0.2-0.1,0.4-0.2,0.7-0.3c0.3-0.1,0.5-0.1,0.9-0.1c0.9,0,1.6,0.3,2,0.8c0.4,0.5,0.7,1.3,0.7,2.2v4.2h-1.4v-4.1
		c0-0.7-0.1-1.1-0.4-1.4c-0.3-0.3-0.7-0.5-1.2-0.5c-0.4,0-0.7,0.1-1,0.2c-0.3,0.2-0.5,0.4-0.6,0.6c-0.2,0.3-0.3,0.5-0.3,0.9
		c-0.1,0.3-0.1,0.7-0.1,1v3.3h-1.4V33.9z"/>
	<path class="st0" d="M120.2,38.4c-0.3,0.4-0.7,0.6-1.2,0.9s-1,0.3-1.6,0.3c-0.6,0-1.1-0.1-1.5-0.3c-0.5-0.2-0.8-0.4-1.2-0.8
		c-0.3-0.3-0.6-0.7-0.7-1.2c-0.2-0.5-0.3-1-0.3-1.5c0-0.5,0.1-1,0.3-1.5c0.2-0.5,0.4-0.9,0.8-1.2c0.3-0.3,0.7-0.6,1.2-0.8
		c0.4-0.2,0.9-0.3,1.5-0.3c0.6,0,1.1,0.1,1.6,0.3c0.5,0.2,0.8,0.5,1.2,0.9l-0.9,0.9c-0.2-0.3-0.5-0.5-0.8-0.6
		c-0.3-0.2-0.7-0.2-1.1-0.2c-0.4,0-0.7,0.1-1,0.2c-0.3,0.1-0.5,0.3-0.7,0.6c-0.2,0.2-0.3,0.5-0.5,0.8c-0.1,0.3-0.2,0.6-0.2,1
		c0,0.3,0.1,0.6,0.2,0.9c0.1,0.3,0.3,0.6,0.5,0.8c0.2,0.2,0.4,0.4,0.7,0.6c0.3,0.1,0.6,0.2,1,0.2c0.4,0,0.8-0.1,1.1-0.2
		c0.3-0.2,0.6-0.4,0.8-0.6L120.2,38.4z"/>
	<path class="st0" d="M121.3,29.6h1.5v1.5h-1.5V29.6z M121.4,32.3h1.4v7h-1.4V32.3z"/>
	<path class="st0" d="M128.8,38.5c-0.3,0.4-0.6,0.6-1,0.8c-0.4,0.2-0.9,0.3-1.3,0.3c-0.3,0-0.6,0-0.9-0.1c-0.3-0.1-0.6-0.2-0.8-0.4
		c-0.2-0.2-0.4-0.4-0.6-0.7c-0.1-0.3-0.2-0.6-0.2-1c0-0.8,0.3-1.4,0.8-1.8c0.5-0.5,1.3-0.7,2.3-0.7c0.2,0,0.3,0,0.5,0
		c0.2,0,0.4,0,0.5,0c0.2,0,0.3,0,0.4,0c0.1,0,0.2,0,0.3,0v-0.3c0-0.5-0.2-0.9-0.5-1.1c-0.3-0.2-0.8-0.3-1.3-0.3
		c-0.5,0-1,0.1-1.3,0.2c-0.3,0.1-0.6,0.3-0.8,0.4l-0.6-0.9c0.1-0.1,0.3-0.2,0.4-0.3c0.2-0.1,0.4-0.2,0.6-0.3
		c0.2-0.1,0.5-0.2,0.8-0.2c0.3-0.1,0.6-0.1,1-0.1c0.9,0,1.6,0.2,2.1,0.7c0.5,0.4,0.8,1.1,0.8,1.9V38v0.8c0,0.2,0,0.5,0,0.6h-1.3
		L128.8,38.5z M128.8,36.1c0,0-0.1,0-0.2,0c-0.1,0-0.3,0-0.4,0c-0.1,0-0.3,0-0.5,0c-0.2,0-0.3,0-0.5,0c-0.4,0-0.7,0-0.9,0.1
		c-0.2,0.1-0.4,0.2-0.6,0.3c-0.1,0.1-0.2,0.3-0.3,0.5c-0.1,0.2-0.1,0.3-0.1,0.5c0,0.4,0.1,0.7,0.4,0.9c0.3,0.2,0.6,0.3,1.1,0.3
		c0.3,0,0.5,0,0.7-0.1c0.2-0.1,0.4-0.2,0.6-0.4c0.2-0.2,0.3-0.3,0.4-0.5c0.1-0.2,0.2-0.4,0.2-0.6V36.1z"/>
	<rect x="131.8" y="29.3" class="st0" width="1.4" height="10.1"/>
	<path class="st0" d="M87.9,29.6h1.5v1.5h-1.5V29.6z M87.9,32.3h1.4v7h-1.4V32.3z"/>
	<path class="st0" d="M86.5,29.2c-0.4-0.1-0.7-0.2-1.1-0.2c-0.3,0-0.6,0.1-0.9,0.2c-0.3,0.1-0.6,0.3-0.8,0.5
		c-0.2,0.2-0.4,0.5-0.5,0.9c-0.1,0.3-0.2,0.8-0.2,1.2v0.6h-1.3v1.1h1.3v5.9h1.4v-5.9h2v-1.1h-2v-0.5c0-0.6,0.1-1.1,0.4-1.3
		c0.2-0.3,0.6-0.4,0.9-0.4c0.2,0,0.5,0.1,0.7,0.1l0.7-0.9C86.8,29.3,86.6,29.3,86.5,29.2"/>
	<path class="st0" d="M82.4,45.6v-0.8c0-0.2,0-0.5,0-0.7h1.3l0,1c0.1-0.1,0.2-0.2,0.3-0.3c0.1-0.1,0.3-0.3,0.5-0.4
		c0.2-0.1,0.4-0.2,0.7-0.3c0.3-0.1,0.6-0.1,0.9-0.1c0.5,0,1,0.1,1.4,0.3c0.4,0.2,0.7,0.5,1,0.8c0.3,0.3,0.5,0.7,0.6,1.2
		c0.1,0.4,0.2,0.9,0.2,1.4c0,0.6-0.1,1.2-0.3,1.7c-0.2,0.5-0.5,0.8-0.8,1.2c-0.3,0.3-0.7,0.5-1.2,0.7c-0.4,0.1-0.9,0.2-1.3,0.2
		c-0.5,0-0.9,0-1.1-0.1c-0.3-0.1-0.6-0.2-0.8-0.3v3.3h-1.4V45.6z M83.7,49.6c0.2,0.1,0.4,0.3,0.7,0.4c0.3,0.1,0.7,0.2,1.1,0.2
		c0.3,0,0.7-0.1,0.9-0.2c0.3-0.1,0.5-0.3,0.7-0.5c0.2-0.2,0.4-0.5,0.5-0.8s0.2-0.6,0.2-1c0-0.3,0-0.7-0.1-1
		c-0.1-0.3-0.2-0.6-0.4-0.8c-0.2-0.2-0.4-0.4-0.6-0.6c-0.3-0.1-0.6-0.2-1-0.2c-0.5,0-0.9,0.1-1.2,0.4c-0.3,0.3-0.6,0.7-0.7,1.2
		c-0.1,0.2-0.1,0.3-0.1,0.5c0,0.2,0,0.4,0,0.6V49.6z"/>
	<path class="st0" d="M95,50.2c-0.3,0.4-0.6,0.6-1,0.8c-0.4,0.2-0.9,0.3-1.3,0.3c-0.3,0-0.6,0-0.9-0.1c-0.3-0.1-0.6-0.2-0.8-0.4
		c-0.2-0.2-0.4-0.4-0.6-0.7c-0.1-0.3-0.2-0.6-0.2-1c0-0.8,0.3-1.4,0.8-1.8c0.5-0.5,1.3-0.7,2.3-0.7c0.2,0,0.3,0,0.5,0
		c0.2,0,0.4,0,0.5,0c0.2,0,0.3,0,0.4,0c0.1,0,0.2,0,0.3,0v-0.3c0-0.5-0.2-0.9-0.5-1.1c-0.3-0.2-0.8-0.3-1.3-0.3
		c-0.5,0-1,0.1-1.3,0.2c-0.3,0.1-0.6,0.3-0.8,0.4l-0.6-0.9c0.1-0.1,0.3-0.2,0.4-0.3c0.2-0.1,0.4-0.2,0.6-0.3
		c0.2-0.1,0.5-0.2,0.8-0.2c0.3-0.1,0.6-0.1,1-0.1c0.9,0,1.6,0.2,2.1,0.7c0.5,0.4,0.8,1.1,0.8,1.9v3.3v0.8c0,0.2,0,0.5,0,0.6H95
		L95,50.2z M94.9,47.8c0,0-0.1,0-0.2,0c-0.1,0-0.3,0-0.4,0c-0.2,0-0.3,0-0.5,0c-0.2,0-0.3,0-0.5,0c-0.4,0-0.7,0-0.9,0.1
		c-0.2,0.1-0.4,0.2-0.6,0.3c-0.1,0.1-0.2,0.3-0.3,0.5c-0.1,0.2-0.1,0.3-0.1,0.5c0,0.4,0.1,0.7,0.4,0.9c0.3,0.2,0.6,0.3,1.1,0.3
		c0.3,0,0.5,0,0.8-0.1c0.2-0.1,0.4-0.2,0.6-0.4c0.2-0.2,0.3-0.3,0.4-0.5c0.1-0.2,0.2-0.4,0.2-0.6V47.8z"/>
	<path class="st0" d="M97.7,45.5v-0.8c0-0.2,0-0.4,0-0.7h1.3l0,1.1c0.1-0.1,0.2-0.3,0.3-0.4c0.1-0.1,0.3-0.3,0.5-0.4
		c0.2-0.1,0.4-0.2,0.7-0.3c0.2-0.1,0.5-0.1,0.9-0.1c0.2,0,0.3,0,0.4,0c0.1,0,0.2,0.1,0.4,0.1l-0.3,1.3c-0.2-0.1-0.4-0.1-0.7-0.1
		c-0.3,0-0.6,0.1-0.8,0.2c-0.2,0.1-0.5,0.3-0.6,0.5c-0.2,0.2-0.3,0.4-0.4,0.7c-0.1,0.3-0.2,0.5-0.2,0.8v3.7h-1.4V45.5z"/>
	<path class="st0" d="M103.6,45.2h-0.9V44h0.9v-2.3h1.4V44h2.1v1.1H105v3.5c0,0.6,0.1,1,0.3,1.2c0.2,0.2,0.4,0.3,0.8,0.3
		c0.3,0,0.5,0,0.7-0.1c0.2-0.1,0.3-0.2,0.5-0.4l0.6,0.8c-0.3,0.3-0.6,0.5-0.9,0.6c-0.3,0.1-0.7,0.2-1.1,0.2c-0.7,0-1.3-0.2-1.6-0.6
		c-0.3-0.4-0.5-1-0.5-1.9V45.2z"/>
	<path class="st0" d="M108.8,45.6v-0.8c0-0.2,0-0.5,0-0.7h1.3l0,1.1c0.1-0.1,0.2-0.3,0.3-0.4c0.1-0.1,0.3-0.3,0.5-0.4
		c0.2-0.1,0.4-0.2,0.7-0.3c0.3-0.1,0.5-0.1,0.9-0.1c0.9,0,1.6,0.3,2,0.8c0.4,0.5,0.7,1.3,0.7,2.2v4.2h-1.4V47c0-0.7-0.1-1.1-0.4-1.4
		c-0.3-0.3-0.7-0.5-1.2-0.5c-0.4,0-0.7,0.1-1,0.2c-0.3,0.2-0.5,0.4-0.6,0.6c-0.2,0.3-0.3,0.5-0.3,0.9c-0.1,0.3-0.1,0.7-0.1,1v3.3
		h-1.4V45.6z"/>
	<path class="st0" d="M123,50.1c-0.1,0.1-0.2,0.2-0.4,0.3c-0.2,0.1-0.4,0.3-0.6,0.4c-0.3,0.1-0.6,0.2-0.9,0.3
		c-0.3,0.1-0.7,0.1-1.2,0.1c-0.5,0-1-0.1-1.5-0.3c-0.5-0.2-0.8-0.4-1.2-0.8c-0.3-0.3-0.6-0.7-0.8-1.2c-0.2-0.5-0.3-1-0.3-1.5
		c0-0.5,0.1-1,0.3-1.4s0.4-0.8,0.7-1.2c0.3-0.3,0.7-0.6,1.1-0.8c0.4-0.2,0.9-0.3,1.4-0.3c0.6,0,1.1,0.1,1.6,0.3
		c0.4,0.2,0.8,0.5,1.1,0.9c0.3,0.4,0.5,0.8,0.6,1.3c0.1,0.5,0.2,1,0.2,1.5h-5.6c0,0.3,0.1,0.6,0.2,0.9c0.1,0.3,0.3,0.5,0.5,0.7
		c0.2,0.2,0.5,0.3,0.7,0.5c0.3,0.1,0.6,0.2,0.9,0.2c0.6,0,1.1-0.1,1.5-0.3c0.4-0.2,0.7-0.4,0.8-0.6L123,50.1z M121.8,47
		c0-0.5-0.2-1-0.6-1.4c-0.3-0.4-0.8-0.6-1.5-0.6c-0.3,0-0.6,0.1-0.9,0.2c-0.3,0.1-0.5,0.3-0.7,0.4c-0.2,0.2-0.3,0.4-0.4,0.6
		c-0.1,0.2-0.2,0.5-0.2,0.7H121.8z"/>
	<path class="st0" d="M124.3,45.5v-0.8c0-0.2,0-0.4,0-0.7h1.3l0,1.1c0.1-0.1,0.2-0.3,0.3-0.4c0.1-0.1,0.3-0.3,0.5-0.4
		c0.2-0.1,0.4-0.2,0.7-0.3c0.2-0.1,0.5-0.1,0.9-0.1c0.2,0,0.3,0,0.4,0c0.1,0,0.2,0.1,0.4,0.1l-0.3,1.3c-0.2-0.1-0.4-0.1-0.7-0.1
		c-0.3,0-0.6,0.1-0.8,0.2c-0.2,0.1-0.5,0.3-0.6,0.5c-0.2,0.2-0.3,0.4-0.4,0.7c-0.1,0.3-0.2,0.5-0.2,0.8v3.7h-1.4V45.5z"/>
</g>
</svg>
