<?xml version="1.0" encoding="UTF-8"?>
<svg width="58px" height="64px" viewBox="0 0 58 64" version="1.1" xmlns="http://www.w3.org/2000/svg" xmlns:xlink="http://www.w3.org/1999/xlink">
    <!-- Generator: Sketch 60.1 (88133) - https://sketch.com -->
    <title>Group 43 Copy</title>
    <desc>Created with Sketch.</desc>
    <g id="Page-1" stroke="none" stroke-width="1" fill="none" fill-rule="evenodd">
        <g id="home" transform="translate(-71.000000, -3155.000000)" stroke="#FFC400" stroke-width="2">
            <g id="Group-43-Copy" transform="translate(71.000000, 3156.000000)">
                <line x1="13" y1="39" x2="13" y2="62" id="Stroke-1"></line>
                <line x1="6" y1="62" x2="6" y2="45" id="Stroke-3"></line>
                <path d="M14,8 C14,10.209 12.209,12 10,12 C7.791,12 6,10.209 6,8 C6,5.791 7.791,4 10,4 C12.209,4 14,5.791 14,8 Z" id="Stroke-5"></path>
                <polyline id="Stroke-7" points="11 24 22 24 28 11"></polyline>
                <line x1="22" y1="62" x2="58" y2="62" id="Stroke-9"></line>
                <line x1="0" y1="62" x2="20" y2="62" id="Stroke-11"></line>
                <path d="M24,10 L20,19 L16,19 L13,16 L7,16 C5.344,16 4,17.344 4,19 L4,45 L7,45 L16,36 L16,27" id="Stroke-13"></path>
                <polygon id="Stroke-15" points="18 10 22 10 49 14 51 16 57 16 57 0 51 0 49 2 22 6 18 6"></polygon>
                <line x1="22" y1="6" x2="22" y2="10" id="Stroke-17"></line>
                <line x1="53" y1="13" x2="53" y2="16" id="Stroke-19"></line>
                <line x1="53" y1="0" x2="53" y2="11" id="Stroke-21"></line>
                <line x1="49" y1="2" x2="49" y2="14" id="Stroke-23"></line>
                <line x1="46" y1="8" x2="44" y2="8" id="Stroke-25"></line>
                <line x1="42" y1="8" x2="40" y2="8" id="Stroke-27"></line>
                <line x1="38" y1="8" x2="36" y2="8" id="Stroke-29"></line>
                <polyline id="Stroke-31" points="27 62 27 50 31 50 31 62"></polyline>
                <polyline id="Stroke-33" points="35 62 35 46 39 46 39 62"></polyline>
                <polyline id="Stroke-35" points="43 62 43 40 47 40 47 62"></polyline>
                <polyline id="Stroke-37" points="51 62 51 38 55 38 55 62"></polyline>
                <polyline id="Stroke-39" points="57 26 48 35 40 35 30 45 22 45"></polyline>
                <polyline id="Stroke-41" points="57 32 57 26 51 26"></polyline>
            </g>
        </g>
    </g>
</svg>