<?xml version="1.0" encoding="UTF-8"?>
<svg width="64px" height="64px" viewBox="0 0 64 64" version="1.1" xmlns="http://www.w3.org/2000/svg" xmlns:xlink="http://www.w3.org/1999/xlink">
    <!-- Generator: Sketch 60.1 (88133) - https://sketch.com -->
    <title>Group 51</title>
    <desc>Created with Sketch.</desc>
    <g id="Page-1" stroke="none" stroke-width="1" fill="none" fill-rule="evenodd">
        <g id="home" transform="translate(-65.000000, -2862.000000)" stroke="#FFC400" stroke-width="2">
            <g id="Group-51" transform="translate(65.000000, 2862.000000)">
                <line x1="13" y1="22" x2="15" y2="22" id="Stroke-1" stroke-linejoin="round"></line>
                <line x1="8" y1="19" x2="10" y2="19" id="Stroke-2" stroke-linejoin="round"></line>
                <line x1="3" y1="16" x2="5" y2="16" id="Stroke-3" stroke-linejoin="round"></line>
                <line x1="21" y1="14" x2="23" y2="14" id="Stroke-5" stroke-linejoin="round"></line>
                <line x1="18" y1="9" x2="20" y2="9" id="Stroke-6" stroke-linejoin="round"></line>
                <line x1="15" y1="4" x2="17" y2="4" id="Stroke-7" stroke-linejoin="round"></line>
                <line x1="31" y1="6" x2="33" y2="6" id="Stroke-9" stroke-linejoin="round"></line>
                <line x1="31" y1="11" x2="33" y2="11" id="Stroke-10" stroke-linejoin="round"></line>
                <line x1="31" y1="1" x2="33" y2="1" id="Stroke-11" stroke-linejoin="round"></line>
                <line x1="51" y1="22" x2="49" y2="22" id="Stroke-13" stroke-linejoin="round"></line>
                <line x1="56" y1="19" x2="54" y2="19" id="Stroke-14" stroke-linejoin="round"></line>
                <line x1="61" y1="16" x2="59" y2="16" id="Stroke-15" stroke-linejoin="round"></line>
                <line x1="43" y1="14" x2="41" y2="14" id="Stroke-17" stroke-linejoin="round"></line>
                <line x1="46" y1="9" x2="44" y2="9" id="Stroke-18" stroke-linejoin="round"></line>
                <line x1="49" y1="4" x2="47" y2="4" id="Stroke-19" stroke-linejoin="round"></line>
                <line x1="5" y1="32" x2="7" y2="32" id="Stroke-21" stroke-linejoin="round"></line>
                <line x1="10" y1="32" x2="12" y2="32" id="Stroke-22" stroke-linejoin="round"></line>
                <line x1="0" y1="32" x2="2" y2="32" id="Stroke-23" stroke-linejoin="round"></line>
                <line x1="13" y1="42" x2="15" y2="42" id="Stroke-25" stroke-linejoin="round"></line>
                <line x1="8" y1="45" x2="10" y2="45" id="Stroke-26" stroke-linejoin="round"></line>
                <line x1="3" y1="48" x2="5" y2="48" id="Stroke-27" stroke-linejoin="round"></line>
                <line x1="59" y1="32" x2="57" y2="32" id="Stroke-29" stroke-linejoin="round"></line>
                <line x1="54" y1="32" x2="52" y2="32" id="Stroke-30" stroke-linejoin="round"></line>
                <line x1="64" y1="32" x2="62" y2="32" id="Stroke-31" stroke-linejoin="round"></line>
                <line x1="51" y1="42" x2="49" y2="42" id="Stroke-33" stroke-linejoin="round"></line>
                <line x1="56" y1="45" x2="54" y2="45" id="Stroke-34" stroke-linejoin="round"></line>
                <g id="Group-39" transform="translate(31.000000, 47.000000)">
                    <line x1="30" y1="1" x2="28" y2="1" id="Stroke-35" stroke-linejoin="round"></line>
                    <line x1="1" y1="11" x2="1" y2="17" id="Stroke-37"></line>
                </g>
                <line x1="32" y1="36" x2="32" y2="38" id="Stroke-40"></line>
                <line x1="26" y1="55" x2="38" y2="55" id="Stroke-41"></line>
                <g id="Group-50" transform="translate(22.000000, 21.000000)">
                    <line x1="4" y1="36" x2="4" y2="43" id="Stroke-42"></line>
                    <path d="M16,19 L16,36 L20,36 L20,16 C20,13.791 18.209,12 16,12 L4,12 C1.791,12 0,13.791 0,16 L0,36 L4,36 L4,19" id="Stroke-44"></path>
                    <line x1="16" y1="43" x2="16" y2="36" id="Stroke-46"></line>
                    <path d="M14,4 C14,6.209 12.209,8 10,8 C7.791,8 6,6.209 6,4 C6,1.791 7.791,0 10,0 C12.209,0 14,1.791 14,4 Z" id="Stroke-48"></path>
                </g>
            </g>
        </g>
    </g>
</svg>