<?xml version="1.0" encoding="UTF-8"?>
<svg width="64px" height="64px" viewBox="0 0 64 64" version="1.1" xmlns="http://www.w3.org/2000/svg" xmlns:xlink="http://www.w3.org/1999/xlink">
    <!-- Generator: Sketch 60.1 (88133) - https://sketch.com -->
    <title>Group 15</title>
    <desc>Created with Sketch.</desc>
    <g id="Page-1" stroke="none" stroke-width="1" fill="none" fill-rule="evenodd">
        <g id="home" transform="translate(-485.000000, -2862.000000)" stroke="#FFC400" stroke-width="2">
            <g id="Group-15" transform="translate(485.000000, 2863.000000)">
                <line x1="2" y1="49.9995" x2="0" y2="49.9995" id="Stroke-1"></line>
                <polyline id="Stroke-3" stroke-linejoin="round" points="13 62.9995 13 59.9995 16 56.9995 18 57.9995 20 57.9995 24 53.9995 27 53.9995 27 49.9995 4 49.9995"></polyline>
                <path d="M42,4 C42,6.209 40.209,8 38,8 C35.791,8 34,6.209 34,4 C34,1.791 35.791,-7.10542736e-15 38,-7.10542736e-15 C40.209,-7.10542736e-15 42,1.791 42,4 Z" id="Stroke-5" stroke-linejoin="round"></path>
                <polyline id="Stroke-7" stroke-linejoin="round" points="33 14 25 16 19 22 16 19 23 12 34 9"></polyline>
                <polyline id="Stroke-9" stroke-linejoin="round" points="34 28.9995 42 30.9995 48 40.9995 52 38.9995 47 27.9995 37 22.9995 39 15.9995 48 14.9995 55 7.9995 52 4.9995 46 10.9995 39 10.9995"></polyline>
                <polyline id="Stroke-11" stroke-linejoin="round" points="35 27 32 37 21 46 18 43 26 35 29 26 30.034 14.742"></polyline>
                <path d="M54.002,15.9971 C59.357,18.8581 63,24.5041 63,31.0001 C63,40.3891 55.389,48.0001 46,48.0001 C41.295,48.0001 37.037,46.0891 33.959,43.0011" id="Stroke-13"></path>
            </g>
        </g>
    </g>
</svg>