<svg width="111" height="144" xmlns="http://www.w3.org/2000/svg"><g fill="none" fill-rule="evenodd"><path d="M48.5697706 35.7477477h17.7629851l.0005776 24.4594787C63.0888475 61.3682504 59.5973897 62 55.9601826 62c-4.0279962 0-7.8772413-.7747953-11.410255-2.1852044l-.0003781-13.4848536c3.5552719 3.6306697 9.5236265 4.9203634 17.905064 3.869081l.2547215-.0325736c-1.9624778-5.6533068-3.0138437-8.4799602-3.1540974-8.4799602H56.080539c-3.8275272 0-7.0394031-1.222467-7.5107684-5.9387415z" fill="#00384E"/><path d="M85.8828829 35.7477477c-1.4014248 8.3133943-6.1627754 15.4928818-12.8468469 20.1081082l.3036197-20.1081082h12.5432272z" fill="#962A22"/><path d="M36.7297297 7.26126126V55.2972973C29.56924123 49.6058129 25 40.9601915 25 31.2792793c0-9.6809123 4.56924123-18.3265336 11.7297297-24.01801804z" fill="#00384E"/><path d="M79.1858294 13.4054054c.7646433 0 1.6417223.1113663 2.631258.3341019l.2345201.0541639.1445972.2216361C84.9315826 18.2434014 86.6473802 23.1805607 87 28.4864865H74.1531532l.0188259-1.2261242V18.861561c0-3.6374553 1.6712667-5.4561556 5.0138503-5.4561556zM55.2765338 22.9009009c3.6908118 0 6.3540871 2.3615047 6.5883311 6.7027027H49.018018c.211536-4.341198 2.567704-6.7027027 6.2585158-6.7027027zM56.4578404 0c7.5916264 0 14.5449027 2.76318649 19.929547 7.34903728-2.8887186.22280522-5.1536912 1.2186289-6.7955528 2.98800982-1.843627 1.9868167-2.7821871 4.8081665-2.8157071 8.4641312l-.0009311.2039678.0000887.5444034c-2.34973-2.7257736-6.0059747-4.3002778-11.1360018-4.3002778-4.3997018 0-7.9927917 1.4101164-10.5311752 3.8716353V2.17063391C48.6225415.76962912 52.4512913 0 56.4578404 0z" fill="#962A22"/><text font-family="Muli-Bold, Muli" font-size="16" font-weight="bold" fill="#353535" transform="translate(-63)"><tspan x="76.412" y="98">Leadership</tspan>  <tspan x="62.972" y="120">Empowerment</tspan>  <tspan x="76.132" y="142">Facilitation</tspan></text></g></svg>