<?xml version="1.0" encoding="UTF-8"?>
<svg width="33px" height="33px" viewBox="0 0 33 33" version="1.1" xmlns="http://www.w3.org/2000/svg" xmlns:xlink="http://www.w3.org/1999/xlink">
    <!-- Generator: Sketch 60.1 (88133) - https://sketch.com -->
    <title>Combined Shape</title>
    <desc>Created with Sketch.</desc>
    <g id="Page-1" stroke="none" stroke-width="1" fill="none" fill-rule="evenodd">
        <g id="home" transform="translate(-64.000000, -32.000000)" fill="#FFFFFF">
            <path d="M85.423,50.725 L85.4238326,63.1865772 C83.7485165,63.7781215 81.9456696,64.1 80.0675617,64.1 C77.9877961,64.1 76.0003211,63.7052886 74.1761163,62.9867677 L74.1756431,55.6251368 C75.5834693,57.2377141 77.5747678,58.0996885 80.0675617,58.0996885 L80.0675617,58.0996885 L83.281074,58.0996885 L83.281074,53.8196885 L80.0675617,53.8196885 C78.0775339,53.8196885 76.9654475,52.9392534 76.3985093,50.726259 L85.423,50.725 Z M95.9128512,50.7256879 C95.1821289,55.0753117 92.7000066,58.8316522 89.215629,61.2463835 L89.374,50.725 L95.9128512,50.7256879 Z M69.8909197,35.6290454 L69.8909197,60.4709546 C66.2947599,57.5275367 64,53.0564604 64,48.05 C64,43.0435396 66.2947599,38.5724633 69.8909197,35.6290454 Z M92.043251,39.0834 C92.493145,39.0834 93.0180134,39.1582993 93.617872,39.3081 L93.5320767,39.2884343 C94.9953101,41.5275999 95.9138999,44.1542094 96.1000268,46.9806486 L89.43,46.98 L89.440306,46.338 L89.440306,41.9403 C89.440306,40.0356905 90.3079456,39.0834 92.043251,39.0834 Z M80.0675617,43.77 C81.708472,43.77 82.6828448,44.6532004 83.23125,46.9790437 L76.3697073,46.9789292 C76.9274113,44.6810154 78.043269,43.77 80.0675617,43.77 Z M80.0675617,32 C84.0088445,32 87.6186878,33.4175098 90.4140304,35.7699959 C88.9134969,35.8836465 87.7378187,36.3943952 86.8855637,37.30185 C85.9681328,38.2787019 85.4824406,39.6488815 85.4284749,41.4124257 L85.4234156,41.7477 L85.4241226,41.8445037 C84.1196955,40.3148283 82.3169772,39.49 80.0675617,39.49 C77.5748635,39.49 75.5836223,40.3519082 74.1758054,41.9643659 L74.1761163,33.1132323 C76.0003211,32.3947114 77.9877961,32 80.0675617,32 Z" id="Combined-Shape"></path>
        </g>
    </g>
</svg>