<?xml version="1.0" encoding="UTF-8"?>
<svg width="108px" height="144px" viewBox="0 0 108 144" version="1.1" xmlns="http://www.w3.org/2000/svg" xmlns:xlink="http://www.w3.org/1999/xlink">
    <!-- Generator: Sketch 60.1 (88133) - https://sketch.com -->
    <title>Group 14</title>
    <desc>Created with Sketch.</desc>
    <g id="Page-1" stroke="none" stroke-width="1" fill="none" fill-rule="evenodd">
        <g id="home" transform="translate(-1163.000000, -6975.000000)">
            <g id="Group-14" transform="translate(1163.000000, 6975.000000)">
                <g id="Group-8" transform="translate(23.000000, 0.000000)">
                    <path d="M23.5697706,35.7477477 L41.3327557,35.7477477 L41.3333333,60.2072264 C38.0888475,61.3682504 34.5973897,62 30.9601826,62 C26.9321864,62 23.0829413,61.2252047 19.5499276,59.8147956 L19.5495495,46.329942 C23.1048214,49.9606117 29.073176,51.2503054 37.4546135,50.199023 L37.709335,50.1664494 C35.7468572,44.5131426 34.6954913,41.6864892 34.5552376,41.6864892 C33.7830823,41.6864892 32.6248495,41.6864892 31.080539,41.6864892 C27.2530118,41.6864892 24.0411359,40.4640222 23.5697706,35.7477477 Z" id="Path-Copy-7" fill="#00384E"></path>
                    <path d="M60.8828829,35.7477477 C59.4814581,44.061142 54.7201075,51.2406295 48.036036,55.8558559 L48.3396557,35.7477477 L60.8828829,35.7477477 Z" id="Path-Copy-8" fill="#962A22"></path>
                    <path d="M11.7297297,7.26126126 L11.7297297,55.2972973 C4.56924123,49.6058129 0,40.9601915 0,31.2792793 C0,21.598367 4.56924123,12.9527457 11.7297297,7.26126126 Z" id="Path-Copy-9" fill="#00384E"></path>
                    <path d="M54.1858294,13.4054054 C54.9504727,13.4054054 55.8275517,13.5167717 56.8170874,13.7395073 L57.0516075,13.7936712 L57.1962047,14.0153073 C59.9315826,18.2434014 61.6473802,23.1805607 62,28.4864865 L49.1531532,28.4864865 L49.1719791,27.2603623 L49.1719791,18.861561 C49.1719791,15.2241057 50.8432458,13.4054054 54.1858294,13.4054054 Z" id="Path-Copy-10" fill="#962A22"></path>
                    <path d="M30.2765338,22.9009009 C33.9673456,22.9009009 36.6306209,25.2624056 36.8648649,29.6036036 L24.018018,29.6036036 C24.229554,25.2624056 26.585722,22.9009009 30.2765338,22.9009009 Z" id="Path-Copy-11" fill="#962A22"></path>
                    <path d="M31.4578404,0 C39.0494668,0 46.0027431,2.76318649 51.3873874,7.34903728 C48.4986688,7.5718425 46.2336962,8.56766618 44.5918346,10.3370471 C42.7482076,12.3238638 41.8096475,15.1452136 41.7761275,18.8011783 L41.7751964,19.0051461 L41.7752851,19.5495495 C39.4255551,16.8237759 35.7693104,15.2492717 30.6392833,15.2492717 C26.2395815,15.2492717 22.6464916,16.6593881 20.1081081,19.120907 L20.1081081,2.17063391 C23.6225415,0.769629122 27.4512913,0 31.4578404,0 Z" id="Path-Copy-12" fill="#962A22"></path>
                </g>
                <path d="M20.02,99 L20.02,97.304 L14.708,97.304 L14.708,87.608 L12.644,87.608 L12.644,99 L20.02,99 Z M25.22,99.112 C25.796,99.112 26.364,99.024 26.924,98.848 C27.484,98.672 27.956,98.424 28.34,98.104 L28.34,98.104 L27.764,96.728 C27.4013333,97.0053333 27.0093333,97.216 26.588,97.36 C26.1666667,97.504 25.7373333,97.576 25.3,97.576 C24.5,97.576 23.9026667,97.3493333 23.508,96.896 C23.1850909,96.5250909 22.994281,95.984595 22.9355702,95.2745124 L22.922,95.064 L28.484,95.064 L28.484,94.76 C28.484,93.928 28.3373333,93.208 28.044,92.6 C27.7506667,91.992 27.3373333,91.5253333 26.804,91.2 C26.2706667,90.8746667 25.6306667,90.712 24.884,90.712 C24.116,90.712 23.4386667,90.8906667 22.852,91.248 C22.2653333,91.6053333 21.8066667,92.1013333 21.476,92.736 C21.1453333,93.3706667 20.98,94.104 20.98,94.936 C20.98,95.8 21.1506667,96.5466667 21.492,97.176 C21.8333333,97.8053333 22.3213333,98.2853333 22.956,98.616 C23.5906667,98.9466667 24.3453333,99.112 25.22,99.112 Z M26.733,93.992 L22.977,93.992 L23.00048,93.85824 C23.07088,93.5147733 23.18528,93.2199733 23.34368,92.97384 L23.444,92.832 C23.796,92.3786667 24.292,92.152 24.932,92.152 C25.5293333,92.152 25.9853333,92.3546667 26.3,92.76 C26.5097778,93.0302222 26.6472593,93.3834074 26.7124444,93.8195556 L26.733,93.992 Z M33.316,99.112 C33.9986667,99.112 34.5933333,98.9493333 35.1,98.624 C35.4377778,98.4071111 35.7032593,98.1297778 35.8964444,97.792 L35.94,97.708 L35.94,99 L37.908,99 L37.908,90.92 L35.94,90.92 L35.94,92.148 L35.8964444,92.0622222 C35.7354568,91.7787654 35.5242634,91.5356379 35.2628642,91.3328395 L35.1,91.216 C34.5933333,90.88 33.9986667,90.712 33.316,90.712 C32.612,90.712 31.9906667,90.8906667 31.452,91.248 C30.9133333,91.6053333 30.4946667,92.1013333 30.196,92.736 C29.8973333,93.3706667 29.748,94.1146667 29.748,94.968 C29.748,95.8106667 29.8946667,96.544 30.188,97.168 C30.4813333,97.792 30.9,98.272 31.444,98.608 C31.988,98.944 32.612,99.112 33.316,99.112 Z M33.86,97.576 C33.188,97.576 32.6653333,97.3493333 32.292,96.896 C31.9186667,96.4426667 31.732,95.8 31.732,94.968 C31.732,94.1146667 31.9186667,93.4533333 32.292,92.984 C32.6653333,92.5146667 33.188,92.28 33.86,92.28 C34.5213333,92.28 35.0333333,92.5066667 35.396,92.96 C35.7586667,93.4133333 35.94,94.072 35.94,94.936 C35.94,95.7786667 35.7586667,96.4293333 35.396,96.888 C35.0333333,97.3466667 34.5213333,97.576 33.86,97.576 Z M43.22,99.112 C43.9026667,99.112 44.4973333,98.9493333 45.004,98.624 C45.3417778,98.4071111 45.6072593,98.1297778 45.8004444,97.792 L45.844,97.708 L45.844,99 L47.812,99 L47.812,87.224 L45.812,87.224 L45.812,92.086 L45.8004444,92.0631111 C45.6394568,91.7865679 45.4282634,91.5462387 45.1668642,91.3421235 L45.004,91.224 C44.4973333,90.8826667 43.9026667,90.712 43.22,90.712 C42.516,90.712 41.892,90.8826667 41.348,91.224 C40.804,91.5653333 40.3853333,92.0506667 40.092,92.68 C39.7986667,93.3093333 39.652,94.0453333 39.652,94.888 C39.652,95.7306667 39.8013333,96.472 40.1,97.112 C40.3986667,97.752 40.8173333,98.2453333 41.356,98.592 C41.8946667,98.9386667 42.516,99.112 43.22,99.112 Z M43.764,97.576 C43.092,97.576 42.5693333,97.3413333 42.196,96.872 C41.8226667,96.4026667 41.636,95.7413333 41.636,94.888 C41.636,94.056 41.8226667,93.4133333 42.196,92.96 C42.5693333,92.5066667 43.092,92.28 43.764,92.28 C44.4253333,92.28 44.9373333,92.5093333 45.3,92.968 C45.6626667,93.4266667 45.844,94.0773333 45.844,94.92 C45.844,95.7733333 45.6626667,96.4293333 45.3,96.888 C44.9373333,97.3466667 44.4253333,97.576 43.764,97.576 Z M53.796,99.112 C54.372,99.112 54.94,99.024 55.5,98.848 C56.06,98.672 56.532,98.424 56.916,98.104 L56.916,98.104 L56.34,96.728 C55.9773333,97.0053333 55.5853333,97.216 55.164,97.36 C54.7426667,97.504 54.3133333,97.576 53.876,97.576 C53.076,97.576 52.4786667,97.3493333 52.084,96.896 C51.7610909,96.5250909 51.570281,95.984595 51.5115702,95.2745124 L51.498,95.064 L57.06,95.064 L57.06,94.76 C57.06,93.928 56.9133333,93.208 56.62,92.6 C56.3266667,91.992 55.9133333,91.5253333 55.38,91.2 C54.8466667,90.8746667 54.2066667,90.712 53.46,90.712 C52.692,90.712 52.0146667,90.8906667 51.428,91.248 C50.8413333,91.6053333 50.3826667,92.1013333 50.052,92.736 C49.7213333,93.3706667 49.556,94.104 49.556,94.936 C49.556,95.8 49.7266667,96.5466667 50.068,97.176 C50.4093333,97.8053333 50.8973333,98.2853333 51.532,98.616 C52.1666667,98.9466667 52.9213333,99.112 53.796,99.112 Z M55.309,93.992 L51.553,93.992 L51.57648,93.85824 C51.64688,93.5147733 51.76128,93.2199733 51.91968,92.97384 L52.02,92.832 C52.372,92.3786667 52.868,92.152 53.508,92.152 C54.1053333,92.152 54.5613333,92.3546667 54.876,92.76 C55.0857778,93.0302222 55.2232593,93.3834074 55.2884444,93.8195556 L55.309,93.992 Z M60.74,99 L60.74,94.632 C60.74,94.2266667 60.8173333,93.8613333 60.972,93.536 C61.1266667,93.2106667 61.356,92.952 61.66,92.76 C61.964,92.568 62.356,92.472 62.836,92.472 C63.2093333,92.472 63.5613333,92.5413333 63.892,92.68 L63.892,92.68 L63.924,90.856 C63.8173333,90.8133333 63.6946667,90.7813333 63.556,90.76 C63.4173333,90.7386667 63.268,90.728 63.108,90.728 C62.4893333,90.728 61.9346667,90.9093333 61.444,91.272 C61.1168889,91.5137778 60.868,91.8337778 60.6973333,92.232 L60.654,92.346 L60.5,90.92 L58.612,90.92 C58.6653333,91.2933333 58.7,91.6746667 58.716,92.064 C58.732,92.4533333 58.74,92.8346667 58.74,93.208 L58.74,93.208 L58.74,99 L60.74,99 Z M67.908,99.112 C68.9426667,99.112 69.7586667,98.896 70.356,98.464 C70.9533333,98.032 71.252,97.448 71.252,96.712 C71.252,96.0933333 71.068,95.5946667 70.7,95.216 C70.332,94.8373333 69.748,94.5626667 68.948,94.392 L68.948,94.392 L67.588,94.056 C67.204,93.9706667 66.9346667,93.8586667 66.78,93.72 C66.6253333,93.5813333 66.548,93.3946667 66.548,93.16 C66.548,92.8613333 66.676,92.6266667 66.932,92.456 C67.188,92.2853333 67.5453333,92.2 68.004,92.2 C68.42,92.2 68.8386667,92.2746667 69.26,92.424 C69.6813333,92.5733333 70.0946667,92.8026667 70.5,93.112 L70.5,93.112 L71.076,91.736 C70.6813333,91.4053333 70.2173333,91.152 69.684,90.976 C69.1506667,90.8 68.596,90.712 68.02,90.712 C67.3586667,90.712 66.7773333,90.8186667 66.276,91.032 C65.7746667,91.2453333 65.3853333,91.5413333 65.108,91.92 C64.8306667,92.2986667 64.692,92.7333333 64.692,93.224 C64.692,93.8106667 64.876,94.2933333 65.244,94.672 C65.612,95.0506667 66.164,95.32 66.9,95.48 L66.9,95.48 L68.244,95.784 C68.6813333,95.8906667 68.9906667,96.016 69.172,96.16 C69.3533333,96.304 69.444,96.4986667 69.444,96.744 C69.444,97.032 69.316,97.256 69.06,97.416 C68.804,97.576 68.4306667,97.656 67.94,97.656 C67.396,97.656 66.8733333,97.576 66.372,97.416 C65.8706667,97.256 65.4066667,97.016 64.98,96.696 L64.98,96.696 L64.42,98.104 C65.2733333,98.776 66.436,99.112 67.908,99.112 Z M74.948,99 L74.948,94.424 C74.948,93.784 75.132,93.2693333 75.5,92.88 C75.868,92.4906667 76.3613333,92.296 76.98,92.296 C77.492,92.296 77.8706667,92.4426667 78.116,92.736 C78.3613333,93.0293333 78.484,93.4906667 78.484,94.12 L78.484,94.12 L78.484,99 L80.484,99 L80.484,94.04 C80.484,91.8213333 79.524,90.712 77.604,90.712 C76.9426667,90.712 76.3586667,90.8693333 75.852,91.184 C75.5353333,91.3806667 75.267625,91.634625 75.048875,91.945875 L74.948,92.101 L74.948,87.224 L72.948,87.224 L72.948,99 L74.948,99 Z M84.708,89.224 L84.708,87.256 L82.484,87.256 L82.484,89.224 L84.708,89.224 Z M84.58,99 L84.58,90.92 L82.58,90.92 L82.58,99 L84.58,99 Z M88.74,102.456 L88.74,97.695 L88.7897778,97.792 C88.9458272,98.0734815 89.1529053,98.3129877 89.4110123,98.5105185 L89.572,98.624 C90.0733333,98.9493333 90.6653333,99.112 91.348,99.112 C92.0626667,99.112 92.6866667,98.944 93.22,98.608 C93.7533333,98.272 94.1746667,97.792 94.484,97.168 C94.7933333,96.544 94.948,95.8106667 94.948,94.968 C94.948,94.1146667 94.7933333,93.3706667 94.484,92.736 C94.1746667,92.1013333 93.7506667,91.6053333 93.212,91.248 C92.6733333,90.8906667 92.052,90.712 91.348,90.712 C90.6653333,90.712 90.0733333,90.88 89.572,91.216 C89.1820741,91.4773333 88.8921646,91.8177119 88.7022716,92.2371358 L88.657,92.348 L88.5,90.92 L86.612,90.92 C86.6653333,91.2933333 86.7,91.6746667 86.716,92.064 C86.732,92.4533333 86.74,92.8346667 86.74,93.208 L86.74,93.208 L86.74,102.456 L88.74,102.456 Z M90.836,97.576 C90.1533333,97.576 89.6333333,97.3466667 89.276,96.888 C88.9186667,96.4293333 88.74,95.7786667 88.74,94.936 C88.74,94.072 88.9186667,93.4133333 89.276,92.96 C89.6333333,92.5066667 90.1533333,92.28 90.836,92.28 C91.4973333,92.28 92.0093333,92.5146667 92.372,92.984 C92.7346667,93.4533333 92.916,94.1146667 92.916,94.968 C92.916,95.8 92.7346667,96.4426667 92.372,96.896 C92.0093333,97.3493333 91.4973333,97.576 90.836,97.576 Z M8.028,121 L8.028,119.912 L2.124,119.912 L2.124,115.768 L7.708,115.768 L7.708,114.664 L2.124,114.664 L2.124,110.696 L8.028,110.696 L8.028,109.608 L0.828,109.608 L0.828,121 L8.028,121 Z M11.372,121 L11.372,116.408 C11.372,115.618667 11.5666667,114.994667 11.956,114.536 C12.3453333,114.077333 12.8813333,113.848 13.564,113.848 C14.14,113.848 14.564,114.021333 14.836,114.368 C15.108,114.714667 15.244,115.261333 15.244,116.008 L15.244,116.008 L15.244,121 L16.54,121 L16.54,116.408 C16.54,115.618667 16.7346667,114.994667 17.124,114.536 C17.5133333,114.077333 18.044,113.848 18.716,113.848 C19.292,113.848 19.7133333,114.021333 19.98,114.368 C20.2466667,114.714667 20.38,115.261333 20.38,116.008 L20.38,116.008 L20.38,121 L21.676,121 L21.676,115.944 C21.676,114.877333 21.452,114.08 21.004,113.552 C20.556,113.024 19.8893333,112.76 19.004,112.76 C18.2786667,112.76 17.6573333,112.952 17.14,113.336 C16.7951111,113.592 16.5272593,113.907259 16.3364444,114.281778 L16.308,114.342 L16.27568,114.24608 C16.15408,113.93248 15.9931467,113.669547 15.79288,113.45728 L15.668,113.336 C15.236,112.952 14.6306667,112.76 13.852,112.76 C13.2013333,112.76 12.6386667,112.930667 12.164,113.272 C11.7948148,113.537481 11.5111276,113.890074 11.3129383,114.329778 L11.301,114.356 L11.18,112.952 L9.948,112.952 C10.0013333,113.325333 10.036,113.701333 10.052,114.08 C10.068,114.458667 10.076,114.834667 10.076,115.208 L10.076,115.208 L10.076,121 L11.372,121 Z M25.436,124.456 L25.436,119.508 L25.4964444,119.636444 C25.6584198,119.952494 25.8714239,120.220807 26.1354568,120.441383 L26.3,120.568 C26.812,120.930667 27.4306667,121.112 28.156,121.112 C28.8706667,121.112 29.4946667,120.944 30.028,120.608 C30.5613333,120.272 30.98,119.792 31.284,119.168 C31.588,118.544 31.74,117.810667 31.74,116.968 C31.74,116.125333 31.588,115.389333 31.284,114.76 C30.98,114.130667 30.5586667,113.64 30.02,113.288 C29.4813333,112.936 28.86,112.76 28.156,112.76 C27.4306667,112.76 26.812,112.941333 26.3,113.304 C25.9017778,113.586074 25.603572,113.961712 25.4053827,114.430914 L25.378,114.502 L25.244,112.952 L24.012,112.952 C24.0653333,113.325333 24.1,113.701333 24.116,114.08 C24.132,114.458667 24.14,114.834667 24.14,115.208 L24.14,115.208 L24.14,124.456 L25.436,124.456 Z M27.916,120.04 C27.116,120.04 26.5026667,119.770667 26.076,119.232 C25.6493333,118.693333 25.436,117.928 25.436,116.936 C25.436,115.944 25.6493333,115.181333 26.076,114.648 C26.5026667,114.114667 27.116,113.848 27.916,113.848 C28.6946667,113.848 29.3026667,114.122667 29.74,114.672 C30.1773333,115.221333 30.396,115.986667 30.396,116.968 C30.396,117.949333 30.1773333,118.706667 29.74,119.24 C29.3026667,119.773333 28.6946667,120.04 27.916,120.04 Z M37.068,121.112 C37.836,121.112 38.5053333,120.941333 39.076,120.6 C39.6466667,120.258667 40.0893333,119.776 40.404,119.152 C40.7186667,118.528 40.876,117.789333 40.876,116.936 C40.876,116.093333 40.7186667,115.357333 40.404,114.728 C40.0893333,114.098667 39.6466667,113.613333 39.076,113.272 C38.5053333,112.930667 37.836,112.76 37.068,112.76 C36.3,112.76 35.6306667,112.930667 35.06,113.272 C34.4893333,113.613333 34.0466667,114.098667 33.732,114.728 C33.4173333,115.357333 33.26,116.093333 33.26,116.936 C33.26,117.789333 33.4173333,118.528 33.732,119.152 C34.0466667,119.776 34.4893333,120.258667 35.06,120.6 C35.6306667,120.941333 36.3,121.112 37.068,121.112 Z M37.068,120.04 C36.268,120.04 35.652,119.776 35.22,119.248 C34.788,118.72 34.572,117.949333 34.572,116.936 C34.572,115.944 34.7933333,115.181333 35.236,114.648 C35.6786667,114.114667 36.2893333,113.848 37.068,113.848 C37.8466667,113.848 38.4546667,114.114667 38.892,114.648 C39.3293333,115.181333 39.548,115.944 39.548,116.936 C39.548,117.949333 39.332,118.72 38.9,119.248 C38.468,119.776 37.8573333,120.04 37.068,120.04 Z M46.204,121 L48.493,114.715 L50.796,121 L52.044,121 L55.02,112.952 L53.74,112.952 L51.42,119.457 L49.1,112.952 L47.964,112.952 L45.615,119.455 L43.34,112.952 L41.98,112.952 L44.956,121 L46.204,121 Z M60.156,121.112 C60.732,121.112 61.2946667,121.016 61.844,120.824 C62.3933333,120.632 62.844,120.370667 63.196,120.04 L63.196,120.04 L62.764,119.096 C62.3693333,119.416 61.956,119.653333 61.524,119.808 C61.092,119.962667 60.6413333,120.04 60.172,120.04 C59.276,120.04 58.596,119.773333 58.132,119.24 C57.668,118.706667 57.436,117.917333 57.436,116.872 L57.437,116.936 L63.34,116.936 L63.34,116.696 C63.34,115.874667 63.204,115.170667 62.932,114.584 C62.66,113.997333 62.268,113.546667 61.756,113.232 C61.244,112.917333 60.6306667,112.76 59.916,112.76 C59.1693333,112.76 58.5106667,112.936 57.94,113.288 C57.3693333,113.64 56.924,114.130667 56.604,114.76 C56.284,115.389333 56.124,116.12 56.124,116.952 C56.124,117.816 56.2866667,118.56 56.612,119.184 C56.9373333,119.808 57.4013333,120.285333 58.004,120.616 C58.6066667,120.946667 59.324,121.112 60.156,121.112 Z M62.17,116.088 L57.491,116.088 L57.5238017,115.896661 C57.6116033,115.450777 57.7652562,115.06757 57.9847603,114.747041 L58.1,114.592 C58.5426667,114.042667 59.1533333,113.768 59.932,113.768 C60.6786667,113.768 61.2466667,114.018667 61.636,114.52 C61.9191515,114.884606 62.093697,115.364871 62.1596364,115.960793 L62.17,116.088 Z M66.604,121 L66.604,116.408 C66.604,115.992 66.6813333,115.594667 66.836,115.216 C66.9906667,114.837333 67.236,114.525333 67.572,114.28 C67.908,114.034667 68.3533333,113.912 68.908,113.912 C69.228,113.912 69.5106667,113.954667 69.756,114.04 L69.756,114.04 L69.788,112.856 C69.6813333,112.824 69.5666667,112.8 69.444,112.784 C69.3213333,112.768 69.1906667,112.76 69.052,112.76 C68.4333333,112.76 67.876,112.938667 67.38,113.296 C67.0493333,113.534222 66.7957037,113.849481 66.6191111,114.241778 L66.543,114.43 L66.412,112.952 L65.18,112.952 C65.2333333,113.325333 65.268,113.701333 65.284,114.08 C65.3,114.458667 65.308,114.834667 65.308,115.208 L65.308,115.208 L65.308,121 L66.604,121 Z M72.396,121 L72.396,116.408 C72.396,115.618667 72.5906667,114.994667 72.98,114.536 C73.3693333,114.077333 73.9053333,113.848 74.588,113.848 C75.164,113.848 75.588,114.021333 75.86,114.368 C76.132,114.714667 76.268,115.261333 76.268,116.008 L76.268,116.008 L76.268,121 L77.564,121 L77.564,116.408 C77.564,115.618667 77.7586667,114.994667 78.148,114.536 C78.5373333,114.077333 79.068,113.848 79.74,113.848 C80.316,113.848 80.7373333,114.021333 81.004,114.368 C81.2706667,114.714667 81.404,115.261333 81.404,116.008 L81.404,116.008 L81.404,121 L82.7,121 L82.7,115.944 C82.7,114.877333 82.476,114.08 82.028,113.552 C81.58,113.024 80.9133333,112.76 80.028,112.76 C79.3026667,112.76 78.6813333,112.952 78.164,113.336 C77.8191111,113.592 77.5512593,113.907259 77.3604444,114.281778 L77.332,114.342 L77.29968,114.24608 C77.17808,113.93248 77.0171467,113.669547 76.81688,113.45728 L76.692,113.336 C76.26,112.952 75.6546667,112.76 74.876,112.76 C74.2253333,112.76 73.6626667,112.930667 73.188,113.272 C72.8188148,113.537481 72.5351276,113.890074 72.3369383,114.329778 L72.325,114.356 L72.204,112.952 L70.972,112.952 C71.0253333,113.325333 71.06,113.701333 71.076,114.08 C71.092,114.458667 71.1,114.834667 71.1,115.208 L71.1,115.208 L71.1,121 L72.396,121 Z M88.716,121.112 C89.292,121.112 89.8546667,121.016 90.404,120.824 C90.9533333,120.632 91.404,120.370667 91.756,120.04 L91.756,120.04 L91.324,119.096 C90.9293333,119.416 90.516,119.653333 90.084,119.808 C89.652,119.962667 89.2013333,120.04 88.732,120.04 C87.836,120.04 87.156,119.773333 86.692,119.24 C86.228,118.706667 85.996,117.917333 85.996,116.872 L85.997,116.936 L91.9,116.936 L91.9,116.696 C91.9,115.874667 91.764,115.170667 91.492,114.584 C91.22,113.997333 90.828,113.546667 90.316,113.232 C89.804,112.917333 89.1906667,112.76 88.476,112.76 C87.7293333,112.76 87.0706667,112.936 86.5,113.288 C85.9293333,113.64 85.484,114.130667 85.164,114.76 C84.844,115.389333 84.684,116.12 84.684,116.952 C84.684,117.816 84.8466667,118.56 85.172,119.184 C85.4973333,119.808 85.9613333,120.285333 86.564,120.616 C87.1666667,120.946667 87.884,121.112 88.716,121.112 Z M90.73,116.088 L86.051,116.088 L86.0838017,115.896661 C86.1716033,115.450777 86.3252562,115.06757 86.5447603,114.747041 L86.66,114.592 C87.1026667,114.042667 87.7133333,113.768 88.492,113.768 C89.2386667,113.768 89.8066667,114.018667 90.196,114.52 C90.4791515,114.884606 90.653697,115.364871 90.7196364,115.960793 L90.73,116.088 Z M95.164,121 L95.164,116.392 C95.164,115.613333 95.388,114.994667 95.836,114.536 C96.284,114.077333 96.8813333,113.848 97.628,113.848 C98.268,113.848 98.7373333,114.021333 99.036,114.368 C99.3346667,114.714667 99.484,115.261333 99.484,116.008 L99.484,116.008 L99.484,121 L100.78,121 L100.78,115.944 C100.78,113.821333 99.8146667,112.76 97.884,112.76 C97.2013333,112.76 96.5986667,112.928 96.076,113.264 C95.6694815,113.525333 95.3533004,113.881844 95.1274568,114.333531 L95.097,114.399 L94.972,112.952 L93.74,112.952 C93.7933333,113.325333 93.828,113.701333 93.844,114.08 C93.86,114.458667 93.868,114.834667 93.868,115.208 L93.868,115.208 L93.868,121 L95.164,121 Z M106.108,121.112 C106.321333,121.112 106.516,121.098667 106.692,121.072 C106.868,121.045333 107.046667,121.005333 107.228,120.952 L107.228,120.952 L107.228,119.848 C107.068,119.901333 106.924,119.938667 106.796,119.96 C106.668,119.981333 106.524,119.992 106.364,119.992 C106.097333,119.992 105.857333,119.946667 105.644,119.856 C105.430667,119.765333 105.262667,119.602667 105.14,119.368 C105.017333,119.133333 104.956,118.802667 104.956,118.376 L104.956,118.376 L104.956,113.976 L107.26,113.976 L107.26,112.952 L104.956,112.952 L104.956,110.424 L103.66,110.888 L103.66,112.952 L102.092,112.952 L102.092,113.976 L103.66,113.976 L103.66,118.552 C103.66,119.327758 103.84292,119.927207 104.20876,120.350347 L104.324,120.472 C104.766667,120.898667 105.361333,121.112 106.108,121.112 Z M14.396,143 L14.396,138.04 L19.5,138.04 L19.5,136.392 L14.396,136.392 L14.396,133.256 L19.82,133.256 L19.82,131.608 L12.364,131.608 L12.364,143 L14.396,143 Z M24.348,143.112 C25.0306667,143.112 25.6253333,142.949333 26.132,142.624 C26.4697778,142.407111 26.7352593,142.129778 26.9284444,141.792 L26.972,141.708 L26.972,143 L28.94,143 L28.94,134.92 L26.972,134.92 L26.972,136.148 L26.9284444,136.062222 C26.7674568,135.778765 26.5562634,135.535638 26.2948642,135.33284 L26.132,135.216 C25.6253333,134.88 25.0306667,134.712 24.348,134.712 C23.644,134.712 23.0226667,134.890667 22.484,135.248 C21.9453333,135.605333 21.5266667,136.101333 21.228,136.736 C20.9293333,137.370667 20.78,138.114667 20.78,138.968 C20.78,139.810667 20.9266667,140.544 21.22,141.168 C21.5133333,141.792 21.932,142.272 22.476,142.608 C23.02,142.944 23.644,143.112 24.348,143.112 Z M24.892,141.576 C24.22,141.576 23.6973333,141.349333 23.324,140.896 C22.9506667,140.442667 22.764,139.8 22.764,138.968 C22.764,138.114667 22.9506667,137.453333 23.324,136.984 C23.6973333,136.514667 24.22,136.28 24.892,136.28 C25.5533333,136.28 26.0653333,136.506667 26.428,136.96 C26.7906667,137.413333 26.972,138.072 26.972,138.936 C26.972,139.778667 26.7906667,140.429333 26.428,140.888 C26.0653333,141.346667 25.5533333,141.576 24.892,141.576 Z M34.764,143.112 C35.3613333,143.112 35.9346667,143.024 36.484,142.848 C37.0333333,142.672 37.484,142.424 37.836,142.104 L37.836,142.104 L37.26,140.696 C36.9186667,140.984 36.556,141.2 36.172,141.344 C35.788,141.488 35.4093333,141.56 35.036,141.56 C34.3106667,141.56 33.7453333,141.336 33.34,140.888 C32.9346667,140.44 32.732,139.789333 32.732,138.936 C32.732,138.072 32.9373333,137.416 33.348,136.968 C33.7586667,136.52 34.316,136.296 35.02,136.296 C35.404,136.296 35.788,136.368 36.172,136.512 C36.556,136.656 36.9186667,136.866667 37.26,137.144 L37.26,137.144 L37.836,135.736 C37.4946667,135.416 37.0546667,135.165333 36.516,134.984 C35.9773333,134.802667 35.4253333,134.712 34.86,134.712 C34.0173333,134.712 33.2813333,134.888 32.652,135.24 C32.0226667,135.592 31.5373333,136.088 31.196,136.728 C30.8546667,137.368 30.684,138.114667 30.684,138.968 C30.684,139.810667 30.8466667,140.544 31.172,141.168 C31.4973333,141.792 31.9666667,142.272 32.58,142.608 C33.1933333,142.944 33.9213333,143.112 34.764,143.112 Z M41.292,133.224 L41.292,131.256 L39.068,131.256 L39.068,133.224 L41.292,133.224 Z M41.164,143 L41.164,134.92 L39.164,134.92 L39.164,143 L41.164,143 Z M45.324,143 L45.324,131.224 L43.324,131.224 L43.324,143 L45.324,143 Z M49.612,133.224 L49.612,131.256 L47.388,131.256 L47.388,133.224 L49.612,133.224 Z M49.484,143 L49.484,134.92 L47.484,134.92 L47.484,143 L49.484,143 Z M55.052,143.112 C55.2866667,143.112 55.508,143.098667 55.716,143.072 C55.924,143.045333 56.1346667,142.994667 56.348,142.92 L56.348,142.92 L56.348,141.336 C56.188,141.378667 56.044,141.410667 55.916,141.432 C55.788,141.453333 55.6546667,141.464 55.516,141.464 C55.2706667,141.464 55.0493333,141.421333 54.852,141.336 C54.6546667,141.250667 54.4973333,141.104 54.38,140.896 C54.2626667,140.688 54.204,140.402667 54.204,140.04 L54.204,140.04 L54.204,136.424 L56.348,136.424 L56.348,134.92 L54.204,134.92 L54.204,132.28 L52.204,132.952 L52.204,134.92 L50.652,134.92 L50.652,136.424 L52.204,136.424 L52.204,140.136 C52.204,141.016 52.4123889,141.707778 52.8291667,142.211333 L52.948,142.344 C53.444,142.856 54.1453333,143.112 55.052,143.112 Z M60.86,143.112 C61.5426667,143.112 62.1373333,142.949333 62.644,142.624 C62.9817778,142.407111 63.2472593,142.129778 63.4404444,141.792 L63.484,141.708 L63.484,143 L65.452,143 L65.452,134.92 L63.484,134.92 L63.484,136.148 L63.4404444,136.062222 C63.2794568,135.778765 63.0682634,135.535638 62.8068642,135.33284 L62.644,135.216 C62.1373333,134.88 61.5426667,134.712 60.86,134.712 C60.156,134.712 59.5346667,134.890667 58.996,135.248 C58.4573333,135.605333 58.0386667,136.101333 57.74,136.736 C57.4413333,137.370667 57.292,138.114667 57.292,138.968 C57.292,139.810667 57.4386667,140.544 57.732,141.168 C58.0253333,141.792 58.444,142.272 58.988,142.608 C59.532,142.944 60.156,143.112 60.86,143.112 Z M61.404,141.576 C60.732,141.576 60.2093333,141.349333 59.836,140.896 C59.4626667,140.442667 59.276,139.8 59.276,138.968 C59.276,138.114667 59.4626667,137.453333 59.836,136.984 C60.2093333,136.514667 60.732,136.28 61.404,136.28 C62.0653333,136.28 62.5773333,136.506667 62.94,136.96 C63.3026667,137.413333 63.484,138.072 63.484,138.936 C63.484,139.778667 63.3026667,140.429333 62.94,140.888 C62.5773333,141.346667 62.0653333,141.576 61.404,141.576 Z M71.02,143.112 C71.2546667,143.112 71.476,143.098667 71.684,143.072 C71.892,143.045333 72.1026667,142.994667 72.316,142.92 L72.316,142.92 L72.316,141.336 C72.156,141.378667 72.012,141.410667 71.884,141.432 C71.756,141.453333 71.6226667,141.464 71.484,141.464 C71.2386667,141.464 71.0173333,141.421333 70.82,141.336 C70.6226667,141.250667 70.4653333,141.104 70.348,140.896 C70.2306667,140.688 70.172,140.402667 70.172,140.04 L70.172,140.04 L70.172,136.424 L72.316,136.424 L72.316,134.92 L70.172,134.92 L70.172,132.28 L68.172,132.952 L68.172,134.92 L66.62,134.92 L66.62,136.424 L68.172,136.424 L68.172,140.136 C68.172,141.016 68.3803889,141.707778 68.7971667,142.211333 L68.916,142.344 C69.412,142.856 70.1133333,143.112 71.02,143.112 Z M75.804,133.224 L75.804,131.256 L73.58,131.256 L73.58,133.224 L75.804,133.224 Z M75.676,143 L75.676,134.92 L73.676,134.92 L73.676,143 L75.676,143 Z M81.516,143.112 C82.3373333,143.112 83.0546667,142.941333 83.668,142.6 C84.2813333,142.258667 84.756,141.776 85.092,141.152 C85.428,140.528 85.596,139.784 85.596,138.92 C85.596,138.066667 85.428,137.322667 85.092,136.688 C84.756,136.053333 84.2813333,135.565333 83.668,135.224 C83.0546667,134.882667 82.3373333,134.712 81.516,134.712 C80.6733333,134.712 79.9453333,134.882667 79.332,135.224 C78.7186667,135.565333 78.2466667,136.053333 77.916,136.688 C77.5853333,137.322667 77.42,138.066667 77.42,138.92 C77.42,139.784 77.5853333,140.528 77.916,141.152 C78.2466667,141.776 78.7186667,142.258667 79.332,142.6 C79.9453333,142.941333 80.6733333,143.112 81.516,143.112 Z M81.516,141.576 C80.8333333,141.576 80.3106667,141.354667 79.948,140.912 C79.5853333,140.469333 79.404,139.805333 79.404,138.92 C79.404,138.045333 79.588,137.386667 79.956,136.944 C80.324,136.501333 80.844,136.28 81.516,136.28 C82.1773333,136.28 82.6866667,136.501333 83.044,136.944 C83.4013333,137.386667 83.58,138.045333 83.58,138.92 C83.58,139.805333 83.4013333,140.469333 83.044,140.912 C82.6866667,141.354667 82.1773333,141.576 81.516,141.576 Z M89.308,143 L89.308,138.424 C89.308,137.784 89.492,137.269333 89.86,136.88 C90.228,136.490667 90.7213333,136.296 91.34,136.296 C91.852,136.296 92.2306667,136.442667 92.476,136.736 C92.7213333,137.029333 92.844,137.490667 92.844,138.12 L92.844,138.12 L92.844,143 L94.844,143 L94.844,138.04 C94.844,135.821333 93.884,134.712 91.964,134.712 C91.3026667,134.712 90.7186667,134.869333 90.212,135.184 C89.832,135.42 89.5225,135.7385 89.2835,136.1395 L89.216,136.263 L89.068,134.92 L87.18,134.92 C87.2333333,135.293333 87.268,135.672 87.284,136.056 C87.3,136.44 87.308,136.824 87.308,137.208 L87.308,137.208 L87.308,143 L89.308,143 Z" id="LeadershipEmpowermentFacilitation" fill="#353535" fill-rule="nonzero"></path>
            </g>
        </g>
    </g>
</svg>