<?xml version="1.0" encoding="utf-8"?>
<!-- Generator: Adobe Illustrator 24.0.0, SVG Export Plug-In . SVG Version: 6.00 Build 0)  -->
<svg version="1.1" id="Layer_1" xmlns="http://www.w3.org/2000/svg" xmlns:xlink="http://www.w3.org/1999/xlink" x="0px" y="0px"
	 viewBox="0 0 111 144" style="enable-background:new 0 0 111 144;" xml:space="preserve">
<style type="text/css">
	.st0{fill-rule:evenodd;clip-rule:evenodd;fill:#00384E;}
	.st1{fill-rule:evenodd;clip-rule:evenodd;fill:#962A22;}
	.st2{enable-background:new    ;}
	.st3{fill:#353535;}
</style>
<g>
	<path class="st0" d="M48.6,35.7h17.8l0,24.5C63.1,61.4,59.6,62,56,62c-4,0-7.9-0.8-11.4-2.2l0-13.5c3.6,3.6,9.5,4.9,17.9,3.9l0.3,0
		c-2-5.7-3-8.5-3.2-8.5h-3.5C52.3,41.7,49,40.5,48.6,35.7z"/>
	<path class="st1" d="M85.9,35.7c-1.4,8.3-6.2,15.5-12.8,20.1l0.3-20.1H85.9z"/>
	<path class="st0" d="M36.7,7.3v48C29.6,49.6,25,41,25,31.3S29.6,13,36.7,7.3z"/>
	<path class="st1" d="M79.2,13.4c0.8,0,1.6,0.1,2.6,0.3l0.2,0.1l0.1,0.2c2.7,4.2,4.5,9.2,4.8,14.5H74.2l0-1.2v-8.4
		C74.2,15.2,75.8,13.4,79.2,13.4z M55.3,22.9c3.7,0,6.4,2.4,6.6,6.7H49C49.2,25.3,51.6,22.9,55.3,22.9z M56.5,0
		C64,0,71,2.8,76.4,7.3c-2.9,0.2-5.2,1.2-6.8,3c-1.8,2-2.8,4.8-2.8,8.5l0,0.2l0,0.5c-2.3-2.7-6-4.3-11.1-4.3c-4.4,0-8,1.4-10.5,3.9
		v-17C48.6,0.8,52.5,0,56.5,0z"/>
	<g class="st2">
		<path class="st3" d="M14.6,98V86.6h2.1v9.7H22V98H14.6z"/>
		<path class="st3" d="M30.3,97.1c-0.4,0.3-0.9,0.6-1.4,0.7c-0.6,0.2-1.1,0.3-1.7,0.3c-0.9,0-1.6-0.2-2.3-0.5
			c-0.6-0.3-1.1-0.8-1.5-1.4c-0.3-0.6-0.5-1.4-0.5-2.2c0-0.8,0.2-1.6,0.5-2.2s0.8-1.1,1.4-1.5s1.3-0.5,2-0.5c0.7,0,1.4,0.2,1.9,0.5
			c0.5,0.3,0.9,0.8,1.2,1.4c0.3,0.6,0.4,1.3,0.4,2.2v0.3h-5.7l0-1.1h4.5l-0.5,0.5c0-0.8-0.1-1.4-0.5-1.8c-0.3-0.4-0.8-0.6-1.4-0.6
			c-0.6,0-1.1,0.2-1.5,0.7s-0.5,1.1-0.5,1.9c0,1,0.2,1.7,0.6,2.1c0.4,0.5,1,0.7,1.8,0.7c0.4,0,0.9-0.1,1.3-0.2
			c0.4-0.1,0.8-0.4,1.2-0.6L30.3,97.1z"/>
		<path class="st3" d="M35.3,98.1c-0.7,0-1.3-0.2-1.9-0.5s-1-0.8-1.3-1.4c-0.3-0.6-0.4-1.4-0.4-2.2c0-0.9,0.1-1.6,0.4-2.2
			c0.3-0.6,0.7-1.1,1.3-1.5s1.2-0.5,1.9-0.5c0.7,0,1.3,0.2,1.8,0.5c0.5,0.3,0.9,0.8,1,1.4l-0.2,0.1v-1.8h2V98h-2v-1.8l0.2,0.1
			c-0.2,0.6-0.5,1.1-1,1.4C36.6,97.9,36,98.1,35.3,98.1z M35.9,96.6c0.7,0,1.2-0.2,1.5-0.7c0.4-0.5,0.5-1.1,0.5-2
			c0-0.9-0.2-1.5-0.5-2c-0.4-0.5-0.9-0.7-1.5-0.7c-0.7,0-1.2,0.2-1.6,0.7c-0.4,0.5-0.6,1.1-0.6,2c0,0.8,0.2,1.5,0.6,1.9
			C34.7,96.3,35.2,96.6,35.9,96.6z"/>
		<path class="st3" d="M49.8,98h-2v-2l0.2,0.3c-0.2,0.6-0.5,1.1-1,1.4c-0.5,0.3-1.1,0.5-1.8,0.5c-0.7,0-1.3-0.2-1.9-0.5
			s-1-0.8-1.3-1.5c-0.3-0.6-0.4-1.4-0.4-2.2c0-0.8,0.1-1.6,0.4-2.2c0.3-0.6,0.7-1.1,1.3-1.5c0.5-0.3,1.2-0.5,1.9-0.5
			c0.7,0,1.3,0.2,1.8,0.5c0.5,0.3,0.9,0.8,1,1.4l-0.2,0.2v-5.6h2V98z M45.8,96.6c0.7,0,1.2-0.2,1.5-0.7c0.4-0.5,0.5-1.1,0.5-2
			c0-0.8-0.2-1.5-0.5-2c-0.4-0.5-0.9-0.7-1.5-0.7c-0.7,0-1.2,0.2-1.6,0.7c-0.4,0.5-0.6,1.1-0.6,1.9c0,0.9,0.2,1.5,0.6,2
			C44.6,96.3,45.1,96.6,45.8,96.6z"/>
		<path class="st3" d="M58.9,97.1c-0.4,0.3-0.9,0.6-1.4,0.7c-0.6,0.2-1.1,0.3-1.7,0.3c-0.9,0-1.6-0.2-2.3-0.5
			c-0.6-0.3-1.1-0.8-1.5-1.4c-0.3-0.6-0.5-1.4-0.5-2.2c0-0.8,0.2-1.6,0.5-2.2s0.8-1.1,1.4-1.5s1.3-0.5,2-0.5c0.7,0,1.4,0.2,1.9,0.5
			s0.9,0.8,1.2,1.4c0.3,0.6,0.4,1.3,0.4,2.2v0.3h-5.7l0-1.1h4.5l-0.5,0.5c0-0.8-0.1-1.4-0.5-1.8s-0.8-0.6-1.4-0.6
			c-0.6,0-1.1,0.2-1.5,0.7s-0.5,1.1-0.5,1.9c0,1,0.2,1.7,0.6,2.1c0.4,0.5,1,0.7,1.8,0.7c0.4,0,0.9-0.1,1.3-0.2
			c0.4-0.1,0.8-0.4,1.2-0.6L58.9,97.1z"/>
		<path class="st3" d="M60.7,98v-5.8c0-0.4,0-0.8,0-1.1c0-0.4-0.1-0.8-0.1-1.1h1.9l0.2,2.1l-0.2-0.1c0.1-0.7,0.5-1.3,0.9-1.6
			c0.5-0.4,1-0.5,1.7-0.5c0.2,0,0.3,0,0.4,0c0.1,0,0.3,0.1,0.4,0.1l0,1.8c-0.3-0.1-0.7-0.2-1.1-0.2c-0.5,0-0.9,0.1-1.2,0.3
			c-0.3,0.2-0.5,0.5-0.7,0.8c-0.2,0.3-0.2,0.7-0.2,1.1V98H60.7z"/>
		<path class="st3" d="M69.9,98.1c-1.5,0-2.6-0.3-3.5-1l0.6-1.4c0.4,0.3,0.9,0.6,1.4,0.7s1,0.2,1.6,0.2c0.5,0,0.9-0.1,1.1-0.2
			c0.3-0.2,0.4-0.4,0.4-0.7c0-0.2-0.1-0.4-0.3-0.6c-0.2-0.1-0.5-0.3-0.9-0.4l-1.3-0.3c-0.7-0.2-1.3-0.4-1.7-0.8
			c-0.4-0.4-0.6-0.9-0.6-1.4c0-0.5,0.1-0.9,0.4-1.3s0.7-0.7,1.2-0.9c0.5-0.2,1.1-0.3,1.7-0.3c0.6,0,1.1,0.1,1.7,0.3
			c0.5,0.2,1,0.4,1.4,0.8l-0.6,1.4c-0.4-0.3-0.8-0.5-1.2-0.7c-0.4-0.1-0.8-0.2-1.3-0.2c-0.5,0-0.8,0.1-1.1,0.3
			c-0.3,0.2-0.4,0.4-0.4,0.7c0,0.2,0.1,0.4,0.2,0.6c0.2,0.1,0.4,0.3,0.8,0.3l1.4,0.3c0.8,0.2,1.4,0.4,1.8,0.8
			c0.4,0.4,0.6,0.9,0.6,1.5c0,0.7-0.3,1.3-0.9,1.8C71.8,97.9,70.9,98.1,69.9,98.1z"/>
		<path class="st3" d="M74.9,98V86.2h2v5.3l-0.2,0c0.3-0.6,0.6-1.1,1.1-1.4c0.5-0.3,1.1-0.5,1.8-0.5c1.9,0,2.9,1.1,2.9,3.3v5h-2
			v-4.9c0-0.6-0.1-1.1-0.4-1.4c-0.2-0.3-0.6-0.4-1.1-0.4c-0.6,0-1.1,0.2-1.5,0.6c-0.4,0.4-0.6,0.9-0.6,1.5V98H74.9z"/>
		<path class="st3" d="M84.5,86.3h2.2v2h-2.2V86.3z M84.6,98v-8.1h2V98H84.6z"/>
		<path class="st3" d="M88.7,101.5v-9.2c0-0.4,0-0.8,0-1.1c0-0.4-0.1-0.8-0.1-1.1h1.9l0.2,1.6l-0.1,0.1c0.2-0.6,0.5-1.1,1-1.4
			c0.5-0.3,1.1-0.5,1.8-0.5c0.7,0,1.3,0.2,1.9,0.5c0.5,0.4,1,0.9,1.3,1.5s0.5,1.4,0.5,2.2c0,0.8-0.2,1.6-0.5,2.2s-0.7,1.1-1.3,1.4
			s-1.2,0.5-1.9,0.5c-0.7,0-1.3-0.2-1.8-0.5c-0.5-0.3-0.8-0.8-1-1.4l0.2-0.3v5.5H88.7z M92.8,96.6c0.7,0,1.2-0.2,1.5-0.7
			c0.4-0.5,0.5-1.1,0.5-1.9c0-0.9-0.2-1.5-0.5-2c-0.4-0.5-0.9-0.7-1.5-0.7c-0.7,0-1.2,0.2-1.6,0.7s-0.5,1.1-0.5,2
			c0,0.8,0.2,1.5,0.5,2C91.6,96.3,92.2,96.6,92.8,96.6z"/>
	</g>
	<g class="st2">
		<path class="st3" d="M1.2,120v-11.4h7.6v1.6H3.2v3.2h5.3v1.6H3.2v3.4h5.6v1.6H1.2z"/>
		<path class="st3" d="M10.6,120v-5.8c0-0.4,0-0.8,0-1.1c0-0.4-0.1-0.8-0.1-1.1h1.9l0.2,1.6l-0.2,0c0.2-0.6,0.6-1,1-1.3
			c0.5-0.3,1-0.5,1.7-0.5c0.8,0,1.4,0.2,1.8,0.6c0.4,0.4,0.7,1,0.8,1.7l-0.4-0.4c0.2-0.6,0.6-1.1,1.1-1.4c0.5-0.4,1.1-0.5,1.8-0.5
			c0.9,0,1.6,0.3,2,0.8c0.4,0.5,0.7,1.4,0.7,2.5v5h-2v-4.9c0-0.6-0.1-1.1-0.3-1.4c-0.2-0.3-0.6-0.4-1-0.4c-0.6,0-1,0.2-1.3,0.6
			c-0.3,0.4-0.5,0.9-0.5,1.6v4.5h-2v-4.9c0-0.6-0.1-1.1-0.3-1.4c-0.2-0.3-0.6-0.4-1-0.4c-0.6,0-1,0.2-1.3,0.6
			c-0.3,0.4-0.5,0.9-0.5,1.6v4.5H10.6z"/>
		<path class="st3" d="M24.9,123.5v-9.2c0-0.4,0-0.8,0-1.1c0-0.4-0.1-0.8-0.1-1.1h1.9l0.2,1.6l-0.1,0.1c0.2-0.6,0.5-1.1,1-1.4
			s1.1-0.5,1.8-0.5c0.7,0,1.3,0.2,1.9,0.5s1,0.9,1.3,1.5s0.5,1.4,0.5,2.2c0,0.8-0.2,1.6-0.5,2.2s-0.7,1.1-1.3,1.4
			c-0.5,0.3-1.2,0.5-1.9,0.5c-0.7,0-1.3-0.2-1.8-0.5s-0.8-0.8-1-1.4l0.2-0.3v5.5H24.9z M29,118.6c0.7,0,1.2-0.2,1.5-0.7
			c0.4-0.5,0.5-1.1,0.5-1.9c0-0.9-0.2-1.5-0.5-2c-0.4-0.5-0.9-0.7-1.5-0.7c-0.7,0-1.2,0.2-1.6,0.7s-0.5,1.1-0.5,2
			c0,0.8,0.2,1.5,0.5,2C27.8,118.3,28.4,118.6,29,118.6z"/>
		<path class="st3" d="M38.5,120.1c-0.8,0-1.6-0.2-2.2-0.5c-0.6-0.3-1.1-0.8-1.4-1.4s-0.5-1.4-0.5-2.2c0-0.9,0.2-1.6,0.5-2.2
			c0.3-0.6,0.8-1.1,1.4-1.5c0.6-0.3,1.3-0.5,2.2-0.5c0.8,0,1.5,0.2,2.2,0.5c0.6,0.3,1.1,0.8,1.4,1.5c0.3,0.6,0.5,1.4,0.5,2.2
			c0,0.9-0.2,1.6-0.5,2.2s-0.8,1.1-1.4,1.4C40.1,119.9,39.4,120.1,38.5,120.1z M38.5,118.6c0.7,0,1.2-0.2,1.5-0.7s0.5-1.1,0.5-2
			c0-0.9-0.2-1.5-0.5-2s-0.9-0.7-1.5-0.7c-0.7,0-1.2,0.2-1.6,0.7c-0.4,0.4-0.6,1.1-0.6,2c0,0.9,0.2,1.5,0.5,2
			C37.3,118.4,37.9,118.6,38.5,118.6z"/>
		<path class="st3" d="M46.5,120l-3.2-8.1h2.1l2.3,6.3h-0.4l2.3-6.3H51l2.3,6.3h-0.4l2.3-6.3h1.9l-3.2,8.1h-1.7l-2.5-6.5h0.9
			l-2.4,6.5H46.5z"/>
		<path class="st3" d="M65.2,119.1c-0.4,0.3-0.9,0.6-1.4,0.7c-0.6,0.2-1.1,0.3-1.7,0.3c-0.9,0-1.6-0.2-2.3-0.5
			c-0.6-0.3-1.1-0.8-1.5-1.4c-0.3-0.6-0.5-1.4-0.5-2.2c0-0.8,0.2-1.6,0.5-2.2c0.3-0.6,0.8-1.1,1.4-1.5c0.6-0.4,1.3-0.5,2-0.5
			c0.7,0,1.4,0.2,1.9,0.5s0.9,0.8,1.2,1.4c0.3,0.6,0.4,1.3,0.4,2.2v0.3h-5.7l0-1.1h4.5l-0.5,0.5c0-0.8-0.1-1.4-0.5-1.8
			s-0.8-0.6-1.4-0.6c-0.6,0-1.1,0.2-1.5,0.7c-0.4,0.5-0.5,1.1-0.5,1.9c0,1,0.2,1.7,0.6,2.1c0.4,0.5,1,0.7,1.8,0.7
			c0.4,0,0.9-0.1,1.3-0.2c0.4-0.1,0.8-0.4,1.2-0.6L65.2,119.1z"/>
		<path class="st3" d="M67,120v-5.8c0-0.4,0-0.8,0-1.1c0-0.4-0.1-0.8-0.1-1.1h1.9L69,114l-0.2-0.1c0.1-0.7,0.5-1.3,0.9-1.6
			c0.5-0.4,1-0.5,1.7-0.5c0.2,0,0.3,0,0.4,0c0.1,0,0.3,0.1,0.4,0.1l0,1.8c-0.3-0.1-0.7-0.2-1.1-0.2c-0.5,0-0.9,0.1-1.2,0.3
			c-0.3,0.2-0.5,0.5-0.7,0.8c-0.2,0.3-0.2,0.7-0.2,1.1v4.4H67z"/>
		<path class="st3" d="M73.3,120v-5.8c0-0.4,0-0.8,0-1.1c0-0.4-0.1-0.8-0.1-1.1H75l0.2,1.6l-0.2,0c0.2-0.6,0.6-1,1-1.3
			c0.5-0.3,1-0.5,1.7-0.5c0.8,0,1.4,0.2,1.8,0.6c0.4,0.4,0.7,1,0.8,1.7l-0.4-0.4c0.2-0.6,0.6-1.1,1.1-1.4c0.5-0.4,1.1-0.5,1.8-0.5
			c0.9,0,1.6,0.3,2,0.8c0.4,0.5,0.7,1.4,0.7,2.5v5h-2v-4.9c0-0.6-0.1-1.1-0.3-1.4c-0.2-0.3-0.6-0.4-1-0.4c-0.6,0-1,0.2-1.3,0.6
			c-0.3,0.4-0.5,0.9-0.5,1.6v4.5h-2v-4.9c0-0.6-0.1-1.1-0.3-1.4c-0.2-0.3-0.6-0.4-1-0.4c-0.6,0-1,0.2-1.3,0.6
			c-0.3,0.4-0.5,0.9-0.5,1.6v4.5H73.3z"/>
		<path class="st3" d="M94.6,119.1c-0.4,0.3-0.9,0.6-1.4,0.7c-0.6,0.2-1.1,0.3-1.7,0.3c-0.9,0-1.6-0.2-2.3-0.5
			c-0.6-0.3-1.1-0.8-1.5-1.4c-0.3-0.6-0.5-1.4-0.5-2.2c0-0.8,0.2-1.6,0.5-2.2c0.3-0.6,0.8-1.1,1.4-1.5c0.6-0.4,1.3-0.5,2-0.5
			c0.7,0,1.4,0.2,1.9,0.5c0.5,0.3,0.9,0.8,1.2,1.4c0.3,0.6,0.4,1.3,0.4,2.2v0.3H89l0-1.1h4.5l-0.5,0.5c0-0.8-0.1-1.4-0.5-1.8
			c-0.3-0.4-0.8-0.6-1.4-0.6c-0.6,0-1.1,0.2-1.5,0.7c-0.4,0.5-0.5,1.1-0.5,1.9c0,1,0.2,1.7,0.6,2.1c0.4,0.5,1,0.7,1.8,0.7
			c0.4,0,0.9-0.1,1.3-0.2c0.4-0.1,0.8-0.4,1.2-0.6L94.6,119.1z"/>
		<path class="st3" d="M96.4,120v-5.8c0-0.4,0-0.8,0-1.2c0-0.4-0.1-0.8-0.1-1.1h1.9l0.2,1.6l-0.2,0c0.3-0.6,0.6-1.1,1.1-1.4
			c0.5-0.3,1.1-0.5,1.8-0.5c1.9,0,2.9,1.1,2.9,3.3v5h-2v-4.9c0-0.6-0.1-1.1-0.4-1.4c-0.2-0.3-0.6-0.4-1.1-0.4
			c-0.6,0-1.1,0.2-1.5,0.6c-0.4,0.4-0.6,0.9-0.6,1.5v4.6H96.4z"/>
		<path class="st3" d="M105,113.4v-1.5h5.7v1.5H105z M110.7,118.3v1.6c-0.2,0.1-0.4,0.1-0.6,0.2c-0.2,0-0.4,0-0.7,0
			c-0.9,0-1.6-0.3-2.1-0.8c-0.5-0.5-0.7-1.2-0.7-2.2V110l2-0.7v7.8c0,0.4,0.1,0.6,0.2,0.9c0.1,0.2,0.3,0.4,0.5,0.4
			c0.2,0.1,0.4,0.1,0.7,0.1c0.1,0,0.3,0,0.4,0C110.4,118.4,110.6,118.4,110.7,118.3z"/>
	</g>
	<g class="st2">
		<path class="st3" d="M14.4,142v-11.4h7.5v1.6h-5.4v3.1h5.1v1.6h-5.1v5H14.4z"/>
		<path class="st3" d="M26.3,142.1c-0.7,0-1.3-0.2-1.9-0.5s-1-0.8-1.3-1.4c-0.3-0.6-0.4-1.4-0.4-2.2c0-0.9,0.1-1.6,0.4-2.2
			c0.3-0.6,0.7-1.1,1.3-1.5s1.2-0.5,1.9-0.5c0.7,0,1.3,0.2,1.8,0.5c0.5,0.3,0.9,0.8,1,1.4l-0.2,0.1v-1.8h2v8.1h-2v-1.8l0.2,0.1
			c-0.2,0.6-0.5,1.1-1,1.4C27.6,141.9,27,142.1,26.3,142.1z M26.9,140.6c0.7,0,1.2-0.2,1.5-0.7c0.4-0.5,0.5-1.1,0.5-2
			c0-0.9-0.2-1.5-0.5-2c-0.4-0.5-0.9-0.7-1.5-0.7c-0.7,0-1.2,0.2-1.6,0.7c-0.4,0.5-0.6,1.1-0.6,2c0,0.8,0.2,1.5,0.6,1.9
			C25.7,140.3,26.2,140.6,26.9,140.6z"/>
		<path class="st3" d="M36.8,142.1c-0.8,0-1.6-0.2-2.2-0.5s-1.1-0.8-1.4-1.4c-0.3-0.6-0.5-1.4-0.5-2.2c0-0.9,0.2-1.6,0.5-2.2
			c0.3-0.6,0.8-1.1,1.5-1.5c0.6-0.4,1.4-0.5,2.2-0.5c0.6,0,1.1,0.1,1.7,0.3c0.5,0.2,1,0.4,1.3,0.8l-0.6,1.4
			c-0.3-0.3-0.7-0.5-1.1-0.6c-0.4-0.1-0.8-0.2-1.2-0.2c-0.7,0-1.3,0.2-1.7,0.7s-0.6,1.1-0.6,2c0,0.9,0.2,1.5,0.6,2
			c0.4,0.4,1,0.7,1.7,0.7c0.4,0,0.8-0.1,1.1-0.2c0.4-0.1,0.7-0.4,1.1-0.6l0.6,1.4c-0.4,0.3-0.8,0.6-1.4,0.7
			C37.9,142,37.4,142.1,36.8,142.1z"/>
		<path class="st3" d="M41.1,130.3h2.2v2h-2.2V130.3z M41.2,142v-8.1h2v8.1H41.2z"/>
		<path class="st3" d="M45.3,142v-11.8h2V142H45.3z"/>
		<path class="st3" d="M49.4,130.3h2.2v2h-2.2V130.3z M49.5,142v-8.1h2v8.1H49.5z"/>
		<path class="st3" d="M52.7,135.4v-1.5h5.7v1.5H52.7z M58.3,140.3v1.6c-0.2,0.1-0.4,0.1-0.6,0.2c-0.2,0-0.4,0-0.7,0
			c-0.9,0-1.6-0.3-2.1-0.8c-0.5-0.5-0.7-1.2-0.7-2.2V132l2-0.7v7.8c0,0.4,0.1,0.6,0.2,0.9c0.1,0.2,0.3,0.4,0.5,0.4
			c0.2,0.1,0.4,0.1,0.7,0.1c0.1,0,0.3,0,0.4,0C58,140.4,58.2,140.4,58.3,140.3z"/>
		<path class="st3" d="M62.9,142.1c-0.7,0-1.3-0.2-1.9-0.5s-1-0.8-1.3-1.4s-0.4-1.4-0.4-2.2c0-0.9,0.1-1.6,0.4-2.2s0.7-1.1,1.3-1.5
			c0.5-0.4,1.2-0.5,1.9-0.5c0.7,0,1.3,0.2,1.8,0.5s0.9,0.8,1,1.4l-0.2,0.1v-1.8h2v8.1h-2v-1.8l0.2,0.1c-0.2,0.6-0.5,1.1-1,1.4
			S63.5,142.1,62.9,142.1z M63.4,140.6c0.7,0,1.2-0.2,1.5-0.7c0.4-0.5,0.5-1.1,0.5-2c0-0.9-0.2-1.5-0.5-2s-0.9-0.7-1.5-0.7
			c-0.7,0-1.2,0.2-1.6,0.7c-0.4,0.5-0.6,1.1-0.6,2c0,0.8,0.2,1.5,0.6,1.9C62.2,140.3,62.7,140.6,63.4,140.6z"/>
		<path class="st3" d="M68.6,135.4v-1.5h5.7v1.5H68.6z M74.3,140.3v1.6c-0.2,0.1-0.4,0.1-0.6,0.2c-0.2,0-0.4,0-0.7,0
			c-0.9,0-1.6-0.3-2.1-0.8c-0.5-0.5-0.7-1.2-0.7-2.2V132l2-0.7v7.8c0,0.4,0.1,0.6,0.2,0.9c0.1,0.2,0.3,0.4,0.5,0.4
			c0.2,0.1,0.4,0.1,0.7,0.1c0.1,0,0.3,0,0.4,0C74,140.4,74.2,140.4,74.3,140.3z"/>
		<path class="st3" d="M75.6,130.3h2.2v2h-2.2V130.3z M75.7,142v-8.1h2v8.1H75.7z"/>
		<path class="st3" d="M83.5,142.1c-0.8,0-1.6-0.2-2.2-0.5c-0.6-0.3-1.1-0.8-1.4-1.4c-0.3-0.6-0.5-1.4-0.5-2.2
			c0-0.9,0.2-1.6,0.5-2.2c0.3-0.6,0.8-1.1,1.4-1.5c0.6-0.3,1.3-0.5,2.2-0.5c0.8,0,1.5,0.2,2.2,0.5c0.6,0.3,1.1,0.8,1.4,1.5
			c0.3,0.6,0.5,1.4,0.5,2.2c0,0.9-0.2,1.6-0.5,2.2s-0.8,1.1-1.4,1.4C85.1,141.9,84.3,142.1,83.5,142.1z M83.5,140.6
			c0.7,0,1.2-0.2,1.5-0.7s0.5-1.1,0.5-2c0-0.9-0.2-1.5-0.5-2s-0.9-0.7-1.5-0.7c-0.7,0-1.2,0.2-1.6,0.7s-0.6,1.1-0.6,2
			c0,0.9,0.2,1.5,0.5,2C82.3,140.4,82.8,140.6,83.5,140.6z"/>
		<path class="st3" d="M89.3,142v-5.8c0-0.4,0-0.8,0-1.2c0-0.4-0.1-0.8-0.1-1.1h1.9l0.2,1.6l-0.2,0c0.3-0.6,0.6-1.1,1.1-1.4
			c0.5-0.3,1.1-0.5,1.8-0.5c1.9,0,2.9,1.1,2.9,3.3v5h-2v-4.9c0-0.6-0.1-1.1-0.4-1.4c-0.2-0.3-0.6-0.4-1.1-0.4
			c-0.6,0-1.1,0.2-1.5,0.6c-0.4,0.4-0.6,0.9-0.6,1.5v4.6H89.3z"/>
	</g>
</g>
</svg>
