<?xml version="1.0" encoding="UTF-8"?>
<svg width="107px" height="144px" viewBox="0 0 107 144" version="1.1" xmlns="http://www.w3.org/2000/svg" xmlns:xlink="http://www.w3.org/1999/xlink">
    <!-- Generator: Sketch 60.1 (88133) - https://sketch.com -->
    <title>Group 14</title>
    <desc>Created with Sketch.</desc>
    <g id="Page-1" stroke="none" stroke-width="1" fill="none" fill-rule="evenodd">
        <g id="home" transform="translate(-1163.000000, -6975.000000)">
            <g id="Group-14" transform="translate(1098.000000, 6975.000000)">
                <g id="Group-8" transform="translate(88.000000, 0.000000)">
                    <path d="M23.5697706,35.7477477 L41.3327557,35.7477477 L41.3333333,60.2072264 C38.0888475,61.3682504 34.5973897,62 30.9601826,62 C26.9321864,62 23.0829413,61.2252047 19.5499276,59.8147956 L19.5495495,46.329942 C23.1048214,49.9606117 29.073176,51.2503054 37.4546135,50.199023 L37.709335,50.1664494 C35.7468572,44.5131426 34.6954913,41.6864892 34.5552376,41.6864892 C33.7830823,41.6864892 32.6248495,41.6864892 31.080539,41.6864892 C27.2530118,41.6864892 24.0411359,40.4640222 23.5697706,35.7477477 Z" id="Path-Copy-7" fill="#00384E"></path>
                    <path d="M60.8828829,35.7477477 C59.4814581,44.061142 54.7201075,51.2406295 48.036036,55.8558559 L48.3396557,35.7477477 L60.8828829,35.7477477 Z" id="Path-Copy-8" fill="#962A22"></path>
                    <path d="M11.7297297,7.26126126 L11.7297297,55.2972973 C4.56924123,49.6058129 0,40.9601915 0,31.2792793 C0,21.598367 4.56924123,12.9527457 11.7297297,7.26126126 Z" id="Path-Copy-9" fill="#00384E"></path>
                    <path d="M54.1858294,13.4054054 C54.9504727,13.4054054 55.8275517,13.5167717 56.8170874,13.7395073 L57.0516075,13.7936712 L57.1962047,14.0153073 C59.9315826,18.2434014 61.6473802,23.1805607 62,28.4864865 L49.1531532,28.4864865 L49.1719791,27.2603623 L49.1719791,18.861561 C49.1719791,15.2241057 50.8432458,13.4054054 54.1858294,13.4054054 Z" id="Path-Copy-10" fill="#962A22"></path>
                    <path d="M30.2765338,22.9009009 C33.9673456,22.9009009 36.6306209,25.2624056 36.8648649,29.6036036 L24.018018,29.6036036 C24.229554,25.2624056 26.585722,22.9009009 30.2765338,22.9009009 Z" id="Path-Copy-11" fill="#962A22"></path>
                    <path d="M31.4578404,0 C39.0494668,0 46.0027431,2.76318649 51.3873874,7.34903728 C48.4986688,7.5718425 46.2336962,8.56766618 44.5918346,10.3370471 C42.7482076,12.3238638 41.8096475,15.1452136 41.7761275,18.8011783 L41.7751964,19.0051461 L41.7752851,19.5495495 C39.4255551,16.8237759 35.7693104,15.2492717 30.6392833,15.2492717 C26.2395815,15.2492717 22.6464916,16.6593881 20.1081081,19.120907 L20.1081081,2.17063391 C23.6225415,0.769629122 27.4512913,0 31.4578404,0 Z" id="Path-Copy-12" fill="#962A22"></path>
                </g>
                <text id="Leadership-Empowerme" font-family="Muli-Bold, Muli" font-size="16" font-weight="bold" line-spacing="22" fill="#353535">
                    <tspan x="76.412" y="98">Leadership</tspan>
                    <tspan x="160.588" y="98" font-family="Muli-Regular, Muli" font-weight="normal"></tspan>
                    <tspan x="64.42" y="120" font-family="Muli-Regular, Muli" font-weight="normal">Empowerment</tspan>
                    <tspan x="76.132" y="142">Facilitation</tspan>
                </text>
            </g>
        </g>
    </g>
</svg>