<?xml version="1.0" encoding="UTF-8"?>
<svg width="56px" height="64px" viewBox="0 0 56 64" version="1.1" xmlns="http://www.w3.org/2000/svg" xmlns:xlink="http://www.w3.org/1999/xlink">
    <!-- Generator: Sketch 60.1 (88133) - https://sketch.com -->
    <title>Group 31</title>
    <desc>Created with Sketch.</desc>
    <g id="Page-1" stroke="none" stroke-width="1" fill="none" fill-rule="evenodd">
        <g id="home" transform="translate(-492.000000, -3149.000000)" stroke="#FFC400" stroke-width="2">
            <g id="Group-31" transform="translate(493.000000, 3150.000000)">
                <line x1="27" y1="63" x2="27" y2="42" id="Stroke-1" stroke-linejoin="round"></line>
                <path d="M32,5 C32,7.762 29.762,10 27,10 C24.238,10 22,7.762 22,5 C22,2.238 24.238,0 27,0 C29.762,0 32,2.238 32,5 Z" id="Stroke-3" stroke-linejoin="round"></path>
                <path d="M38,21 L38,20 C38,16.687 35.313,14 32,14 L22,14 C18.687,14 16,16.687 16,20 L16,21" id="Stroke-5" stroke-linejoin="round"></path>
                <line x1="10" y1="63" x2="10" y2="46" id="Stroke-7" stroke-linejoin="round"></line>
                <path d="M14,13 C14,15.209 12.209,17 10,17 C7.791,17 6,15.209 6,13 C6,10.791 7.791,9 10,9 C12.209,9 14,10.791 14,13 Z" id="Stroke-9" stroke-linejoin="round"></path>
                <path d="M16,63 L16,43 L20,43 L20,26 C20,23.238 17.762,21 15,21 L5,21 C2.238,21 0,23.238 0,26 L0,43 L4,43 L4,63" id="Stroke-11"></path>
                <line x1="44" y1="63" x2="44" y2="46" id="Stroke-13" stroke-linejoin="round"></line>
                <path d="M48,13 C48,15.209 46.209,17 44,17 C41.791,17 40,15.209 40,13 C40,10.791 41.791,9 44,9 C46.209,9 48,10.791 48,13 Z" id="Stroke-15" stroke-linejoin="round"></path>
                <path d="M50,63 L50,43 L54,43 L54,26 C54,23.238 51.762,21 49,21 L39,21 C36.238,21 34,23.238 34,26 L34,43 L38,43 L38,63" id="Stroke-17"></path>
                <line x1="27" y1="17" x2="27" y2="19" id="Stroke-19" stroke-linejoin="round"></line>
                <line x1="27" y1="21" x2="27" y2="23" id="Stroke-21" stroke-linejoin="round"></line>
                <line x1="44" y1="24" x2="44" y2="26" id="Stroke-23" stroke-linejoin="round"></line>
                <line x1="10" y1="24" x2="10" y2="26" id="Stroke-25" stroke-linejoin="round"></line>
                <line x1="20" y1="43" x2="20" y2="63" id="Stroke-27" stroke-linejoin="round"></line>
                <line x1="34" y1="43" x2="34" y2="63" id="Stroke-29" stroke-linejoin="round"></line>
            </g>
        </g>
    </g>
</svg>