<?xml version="1.0" encoding="UTF-8"?>
<svg width="75px" height="62px" viewBox="0 0 75 62" version="1.1" xmlns="http://www.w3.org/2000/svg" xmlns:xlink="http://www.w3.org/1999/xlink">
    <!-- Generator: Sketch 60.1 (88133) - https://sketch.com -->
    <title>Shape</title>
    <desc>Created with Sketch.</desc>
    <g id="Page-1" stroke="none" stroke-width="1" fill="none" fill-rule="evenodd">
        <g id="Klantervaringen-final" transform="translate(-193.000000, -1235.000000)" fill="#FFFFFF" fill-rule="nonzero">
            <g id="Logo_rijksoverheid-Copy" transform="translate(193.000000, 1235.000000)">
                <path d="M38.8527913,47.5019993 L37.3622249,47.5019993 L37.3622249,43.3441034 L38.8527913,43.3441034 L38.8527913,47.5019993 Z M45.6191785,29.1641094 L44.128612,29.1641094 L44.128612,25.0062135 L45.6191785,25.0062135 L45.6191785,29.1641094 Z M17.847572,21.9858551 C17.7298957,21.9858551 16.9649997,21.9858551 16.9649997,22.1427569 C16.9649997,22.2996586 17.3180286,22.2212077 17.847572,22.3192713 C19.0439477,22.5153985 19.5146529,23.1233927 20.3579997,23.1233927 C21.1228956,23.1233927 21.9074043,22.6134621 21.5936008,21.4955372 C21.5347627,21.3190228 21.4366991,21.3582482 21.4170864,21.4759245 C21.2994101,21.9662424 20.6914159,22.2604332 20.0441962,22.2604332 C19.2596876,22.2604332 19.0831731,21.9858551 17.847572,21.9858551 Z M9.59061835,26.143751 C9.72790736,26.3202655 11.1400229,28.1638608 8.96301142,28.8699186 C8.86494784,28.9091441 8.82572241,28.9875949 8.98262414,29.0660458 C10.5908669,29.7328782 11.3753755,28.497277 11.3753755,28.497277 C12.1794969,30.3408724 10.9438958,31.3607336 10.9438958,31.3607336 C11.1204102,31.6941498 11.8853062,32.2433059 13.0424564,32.5178839 C13.4739362,32.2825313 14.1015431,31.8314388 14.3565084,31.125381 C14.3565084,31.125381 14.6703119,31.9295024 14.3761212,32.6943983 C17.6514448,32.9885891 18.8085951,30.3800978 21.3386355,30.850803 C21.4170864,30.8704157 21.4366991,30.8115776 21.4366991,30.7331267 C21.4366991,29.1248839 20.4560633,26.1633638 17.3180286,25.5553695 C14.1996067,24.9473753 15.0429535,23.6725488 15.0429535,23.6725488 C16.3570055,23.6137106 17.1219015,24.1824794 17.1219015,24.1824794 C17.3572541,23.7902251 17.0238379,23.3587453 17.0238379,23.3587453 C17.1415142,23.2018436 17.2199651,22.6723002 17.2199651,22.6723002 C15.7490113,22.6723002 15.356757,22.3584968 15.356757,22.3584968 C15.1214044,21.4759245 15.7490113,20.2403234 17.9456356,21.5739881 C18.4947916,21.0836702 18.4555662,20.338387 18.4555662,20.338387 C18.6124679,20.2599361 18.7301442,20.0049708 18.7301442,19.8872945 C18.7301442,19.5146529 16.9649997,18.5340171 16.5139073,18.4163408 C16.396231,17.8867974 15.7293986,17.1219015 13.6504507,17.3964795 C12.6698148,17.5141558 11.963757,17.2591905 12.2971732,16.6904217 C12.3560114,16.5923581 12.1794969,16.5727454 12.0814333,16.670809 C11.8460807,16.9061616 11.55189,17.5337685 12.3952368,17.9652483 C13.3366472,18.4359535 13.3954853,19.3969766 13.4150981,19.5342656 C13.4347108,19.7303928 13.1797455,19.7500055 13.14052,19.5538783 C12.7090403,17.9456356 10.512416,17.6122194 9.21797674,18.4555662 C9.2964276,19.3185257 10.2182253,19.8872945 10.7281559,19.8872945 C11.0223466,19.8872945 11.414601,19.5931037 11.414601,19.2008494 C11.414601,19.0047222 11.5126646,19.024335 11.5715027,19.1812367 C11.7872426,19.7500055 10.9438958,20.9267685 9.68868193,20.2207107 C8.41385536,21.4955372 8.92378599,23.0841673 9.04146229,23.652936 C9.27681488,24.69241 8.76688426,25.7122713 7.82547387,25.2415661 C7.78624843,25.2219534 7.72741028,25.2023406 7.72741028,25.3200169 C7.72741028,25.9672366 8.57075709,26.7125198 9.59061835,26.143751 Z M16.6119708,19.71078 C16.0235893,20.3776124 15.0429535,20.2207107 14.8076009,19.1223985 C16.0432021,19.0635604 16.5727454,19.1812367 16.6119708,19.71078 Z M54.6606408,22.2604332 C54.0134211,22.2604332 53.4054269,21.9858551 53.2877506,21.4759245 C53.2681379,21.3582482 53.1504616,21.2994101 53.1112362,21.4955372 C52.7974327,22.5938494 53.5819414,23.1233927 54.3468373,23.1233927 C55.1901841,23.1233927 55.6608893,22.5153985 56.857265,22.3192713 C57.3868084,22.2212077 57.7398373,22.3192713 57.7398373,22.1427569 C57.7398373,21.9858551 56.9553286,21.9858551 56.857265,21.9858551 C55.6216639,21.9858551 55.4647621,22.2604332 54.6606408,22.2604332 Z M66.9970394,25.3200169 C66.9970394,25.2023406 66.957814,25.2219534 66.8989758,25.2415661 C65.9575654,25.7122713 65.4476348,24.69241 65.6829874,23.652936 C65.8202764,23.0645546 66.3302071,21.4955372 65.0357678,20.2207107 C63.7805539,20.9463812 62.9372071,19.7500055 63.152947,19.1812367 C63.2117851,19.024335 63.3098487,19.0047222 63.3098487,19.2008494 C63.3098487,19.5931037 63.7217158,19.8872945 63.9962938,19.8872945 C64.5062244,19.8872945 65.4280221,19.3185257 65.506473,18.4555662 C64.2120337,17.6122194 62.0154094,17.9456356 61.5839297,19.5538783 C61.5250915,19.7500055 61.2897389,19.7303928 61.3093516,19.5342656 C61.3093516,19.3969766 61.3681898,18.4359535 62.3292129,17.9652483 C63.1921724,17.5337685 62.878369,16.9061616 62.6430164,16.670809 C62.5449528,16.5727454 62.3684383,16.5923581 62.4272765,16.6904217 C62.7606927,17.2591905 62.0546349,17.5141558 61.0739991,17.3964795 C59.0146638,17.1219015 58.3282187,17.8867974 58.2105424,18.4163408 C57.75945,18.5340171 55.9943055,19.5146529 55.9943055,19.8872945 C55.9943055,20.0049708 56.0923691,20.2599361 56.2688835,20.338387 C56.2688835,20.338387 56.2296581,21.0836702 56.7788141,21.5739881 C58.9754384,20.2403234 59.5834326,21.4955372 59.3676927,22.3584968 C59.3676927,22.3584968 58.9754384,22.6723002 57.5044847,22.6723002 C57.5044847,22.6723002 57.5829355,23.2018436 57.7006118,23.3587453 C57.7006118,23.3587453 57.3671956,23.7902251 57.6025482,24.1824794 C57.6025482,24.1824794 58.3674442,23.6137106 59.6814962,23.6725488 C59.6814962,23.6725488 60.524843,24.9473753 57.4064211,25.5553695 C54.2879992,26.1633638 53.2877506,29.1052712 53.2877506,30.7331267 C53.2877506,30.8115776 53.326976,30.850803 53.3858142,30.850803 C55.9158546,30.3800978 57.0730049,33.0082018 60.3483285,32.6943983 C60.0541378,31.9295024 60.3679413,31.125381 60.3679413,31.125381 C60.6229066,31.8118261 61.2505135,32.2825313 61.6819933,32.5178839 C62.8391435,32.2629186 63.6040395,31.6941498 63.7805539,31.3607336 C63.7805539,31.3607336 62.5449528,30.3408724 63.3490742,28.497277 C63.3490742,28.497277 64.1335828,29.7328782 65.7418256,29.0660458 C65.8791146,29.0072076 65.8595019,28.9091441 65.7614383,28.8699186 C63.5844268,28.1638608 64.9965423,26.3398782 65.1338314,26.143751 C66.1536926,26.7125198 66.9970394,25.9672366 66.9970394,25.3200169 Z M59.8972361,19.1223985 C59.6618835,20.2207107 58.6812476,20.3776124 58.0928661,19.71078 C58.1517043,19.1812367 58.6812476,19.0635604 59.8972361,19.1223985 Z M36.7934561,0.706057792 C36.7934561,0.980635823 36.9111324,1.21598842 37.009196,1.35327744 C37.2053231,1.62785547 37.1660977,1.7847572 37.0876468,1.86320806 C36.9895832,1.96127165 36.8522942,1.98088436 36.5777162,1.7847572 C36.4404272,1.68669362 36.2050746,1.56901732 35.9304966,1.56901732 C35.4597914,1.56901732 35.2244388,1.88282078 35.2244388,2.13778609 C35.2244388,2.41236412 35.4597914,2.70655487 35.9304966,2.70655487 C36.2050746,2.70655487 36.4404272,2.58887857 36.5777162,2.49081499 C36.8522942,2.29468783 37.009196,2.33391326 37.0876468,2.41236412 C37.1857104,2.51042771 37.0484214,3.4518381 36.9307451,4.19712132 C36.1462364,4.35402305 35.7735948,4.98162998 35.7735948,5.35427159 C35.7735948,6.29568198 36.7738434,6.84483804 37.3818376,7.15864151 C37.9702191,6.84483804 38.9900803,6.29568198 38.9900803,5.35427159 C38.9900803,4.98162998 38.6174387,4.35402305 37.83293,4.19712132 C37.7348665,3.4518381 37.5975775,2.49081499 37.6760283,2.41236412 C37.7740919,2.31430054 37.9113809,2.29468783 38.1859589,2.49081499 C38.323248,2.58887857 38.5586006,2.70655487 38.8331786,2.70655487 C39.3038838,2.70655487 39.5392364,2.39275141 39.5392364,2.13778609 C39.5392364,1.86320806 39.3038838,1.56901732 38.8331786,1.56901732 C38.5586006,1.56901732 38.323248,1.68669362 38.1859589,1.7847572 C37.9113809,1.98088436 37.7544792,1.94165893 37.6760283,1.86320806 C37.5779647,1.76514448 37.558352,1.62785547 37.7544792,1.35327744 C37.8525428,1.21598842 37.9702191,0.980635823 37.9702191,0.706057792 C37.9702191,0.235352597 37.6564156,0 37.4014503,0 C37.0876468,0 36.7934561,0.235352597 36.7934561,0.706057792 Z M37.3622249,7.70779757 C36.7346179,7.70779757 36.2050746,8.2177282 36.2050746,8.86494784 C36.2050746,9.49255477 36.7150052,10.0220981 37.3622249,10.0220981 C37.9898318,10.0220981 38.5193751,9.51216748 38.5193751,8.86494784 C38.5193751,8.2177282 37.9898318,7.70779757 37.3622249,7.70779757 Z M37.3622249,18.7497569 C41.9712132,18.7497569 44.5600918,19.6323292 44.5600918,19.6323292 C44.5797045,17.3180286 44.5600918,16.0039766 45.8937565,16.2001038 C45.168086,14.2388321 48.3061206,13.4739362 48.3061206,10.9438958 C48.3061206,9.27681488 47.1293576,9.08068772 46.7763288,9.08068772 C45.7368548,9.08068772 45.8937565,9.7671328 45.0111843,9.7671328 C44.893508,9.7671328 44.7954444,9.74752008 44.7954444,9.82597095 C44.7954444,10.1201617 45.0504097,10.6104796 45.442664,10.6104796 C45.9918201,10.6104796 45.9918201,10.0613235 46.4036871,10.0613235 C46.5802016,10.0613235 46.8351669,10.1986126 46.8351669,10.7673813 C46.8351669,11.8460807 46.1291091,13.0424564 45.2857623,13.9838668 C45.0896351,13.7092888 44.8346698,13.5523871 44.5208664,13.5523871 C44.0305484,13.5523871 43.5990687,14.0623177 43.5990687,14.7095373 C43.5990687,14.9448899 43.6382941,15.1214044 43.716745,15.3175316 C43.442167,15.4744333 43.1872016,15.5528842 43.0106872,15.5528842 C42.6380456,15.5528842 42.0692768,15.3959824 42.0692768,14.5722483 C42.0692768,12.728653 44.5404791,11.1007975 44.5404791,8.76688426 C44.5404791,7.64895942 43.7951959,6.53103458 42.2457913,6.53103458 C40.5787104,6.53103458 40.8925138,8.06082646 39.4411728,8.06082646 C39.3823346,8.06082646 39.3234965,8.08043918 39.3234965,8.13927733 C39.3234965,8.23734091 39.5784618,9.08068772 40.323745,9.08068772 C41.1278664,9.08068772 41.3436063,7.68818485 42.0496641,7.68818485 C42.3242421,7.68818485 42.7164964,7.84508658 42.7164964,8.78649697 C42.7164964,9.51216748 42.3634675,10.6889305 41.8339242,11.826468 C41.637797,11.6303409 41.3828317,11.4930518 41.1082537,11.4930518 C40.4806468,11.4930518 40.049167,12.1010461 40.049167,12.8071038 C40.049167,13.2581963 40.2256815,13.6896761 40.5394849,13.9838668 C40.1668433,14.454572 39.7942017,14.8272136 39.3038838,14.8272136 C38.3036352,14.8272136 37.8721555,14.2584449 37.8721555,13.6504507 C37.8721555,12.9836183 39.0881439,12.7482657 39.0881439,11.689179 C39.0881439,10.9831212 38.6370514,10.5712542 38.1859589,10.5712542 C37.7152537,10.5712542 37.4602884,10.8850576 37.421063,10.8850576 C37.3622249,10.8850576 37.1268723,10.5712542 36.6561671,10.5712542 C36.2050746,10.5712542 35.7539821,10.9635085 35.7539821,11.689179 C35.7539821,12.728653 36.9699705,12.9836183 36.9699705,13.6504507 C36.9699705,14.2584449 36.5384908,14.8272136 35.5382422,14.8272136 C35.0283116,14.8272136 34.65567,14.454572 34.3026411,13.9838668 C34.6164445,13.6896761 34.792959,13.2581963 34.792959,12.8071038 C34.792959,12.0814333 34.3418665,11.4930518 33.7338723,11.4930518 C33.4396816,11.4930518 33.1847162,11.6303409 33.0082018,11.826468 C32.4982712,10.6889305 32.1256296,9.51216748 32.1256296,8.78649697 C32.1256296,7.84508658 32.5178839,7.68818485 32.7924619,7.68818485 C33.4985197,7.68818485 33.7338723,9.08068772 34.518381,9.08068772 C35.2636642,9.08068772 35.5186295,8.23734091 35.5186295,8.13927733 C35.5186295,8.08043918 35.4597914,8.06082646 35.4009532,8.06082646 C33.9496122,8.06082646 34.2634157,6.53103458 32.5963348,6.53103458 C31.0469302,6.53103458 30.3016469,7.64895942 30.3016469,8.76688426 C30.3016469,11.1007975 32.7728492,12.728653 32.7728492,14.5722483 C32.7728492,15.3959824 32.2040804,15.5528842 31.8314388,15.5528842 C31.6353116,15.5528842 31.399959,15.4548206 31.125381,15.3175316 C31.2038319,15.1214044 31.2430573,14.9448899 31.2430573,14.7095373 C31.2430573,14.0623177 30.8115776,13.5523871 30.3212596,13.5523871 C30.0074562,13.5523871 29.7524909,13.7092888 29.5563637,13.9838668 C28.7130169,13.0620692 28.0069591,11.8460807 28.0069591,10.7673813 C28.0069591,10.2182253 28.2619244,10.0613235 28.4384389,10.0613235 C28.8503059,10.0613235 28.8503059,10.6104796 29.399462,10.6104796 C29.811329,10.6104796 30.0466816,10.100549 30.0466816,9.82597095 C30.0466816,9.74752008 29.9290053,9.7671328 29.8309417,9.7671328 C28.9483695,9.7671328 29.1052712,9.08068772 28.0657973,9.08068772 C27.7127684,9.08068772 26.5360054,9.27681488 26.5360054,10.9438958 C26.5360054,13.4935489 29.67404,14.2584449 28.9483695,16.2001038 C30.2820342,16.0039766 30.2624215,17.2984159 30.2820342,19.6323292 C30.1643579,19.6323292 32.7532365,18.7497569 37.3622249,18.7497569 Z M28.9287568,22.1819823 C27.6735429,22.4565603 26.771358,22.7115257 26.3791036,22.829202 C26.3987164,22.2800459 26.6144562,21.7701153 27.1047741,21.652439 C27.1636123,21.6328263 27.183225,21.5543754 27.1243869,21.51515 C26.006462,20.7698667 25.4180805,22.201595 25.3984678,22.2408205 C25.0062135,22.201595 24.3982193,22.338884 24.3982193,22.8684274 C24.3982193,24.4766701 20.750254,25.3592424 19.8872945,25.4769187 C21.3778609,26.0456875 22.0054679,27.9285082 22.0054679,27.9285082 C23.0841673,26.8498088 24.3589938,25.8887857 24.6335719,25.8887857 C24.9277626,25.8887857 25.0258262,26.2418146 25.0454389,26.4575545 C25.0454389,26.5360054 25.1238898,26.5556181 25.1631152,26.4967799 C25.731884,25.6534331 25.457306,25.457306 25.4180805,25.2023406 C25.3788551,25.0062135 25.4376932,24.2609303 26.2614273,24.3589938 L26.2614273,35.0283116 L25.8299476,35.1067625 C25.6338204,35.1459879 24.0844158,33.8123232 22.2800459,32.576722 C20.4952887,31.3411209 19.5342656,32.0864041 17.4945431,33.1847162 C14.8272136,34.6360573 12.1402715,33.3220053 12.1402715,33.3220053 C9.84558366,34.9694734 9.061075,39.7157508 9.061075,39.7157508 C8.60998253,39.911878 7.84508658,40.1276179 7.11941607,40.1276179 C5.37388431,40.1276179 5.04046813,39.0685312 5.04046813,38.4213115 C5.04046813,35.7147567 8.43346808,34.5576064 8.43346808,31.890277 C8.43346808,31.2430573 8.13927733,28.6149533 4.8835664,28.6149533 C4.47169935,28.6149533 1.98088436,28.6149533 1.96127165,28.6149533 C0.745283225,28.6149533 0.431479762,27.7323811 0.27457803,27.3989649 C0.215739881,27.2812886 0.0980635823,27.3597395 0.137289015,27.457803 C0.235352597,27.6735429 0,28.0265718 0,28.6934042 C0,29.7721036 0.627606927,30.4193232 1.82398263,30.4193232 C2.37313869,30.4193232 2.8634566,30.2624215 3.03997105,30.1643579 C3.15764735,30.1055198 3.2164855,30.2035833 3.15764735,30.2624215 C2.64771672,30.8704157 2.60849129,31.9883405 2.80461845,32.2629186 C2.8634566,32.3217567 2.92229475,32.302144 2.92229475,32.2629186 C3.2164855,31.125381 4.27557219,30.0270689 5.72691321,30.0270689 C7.49205769,30.0270689 7.49205769,31.5372481 7.49205769,31.890277 C7.49205769,34.0672885 3.66757798,35.6559185 3.66757798,38.6370514 C3.66757798,41.6770225 6.86445076,42.3242421 8.72765882,41.8339242 C8.60998253,44.8738953 5.13853171,45.8937565 5.04046813,43.7363577 C5.04046813,43.6382941 4.96201726,43.5990687 4.90317911,43.7363577 C4.47169935,44.8150571 4.62860108,45.7564675 5.98187852,46.0506582 C6.0799421,46.070271 6.02110395,46.1291091 5.94265309,46.1879473 C4.62860108,47.0705195 5.35427159,50.424294 5.41310974,51.4049298 C5.51117332,52.8170454 4.09905774,52.6601437 3.98138144,52.6209183 C3.92254329,52.6013055 3.86370514,52.6209183 3.96176872,52.7385946 C4.96201726,53.954583 6.1976184,52.8366581 6.1976184,52.8366581 C7.13902879,53.1308489 6.5506473,53.9349703 5.92304037,54.3468373 C5.82497679,54.4056755 5.82497679,54.4841263 5.94265309,54.4841263 C6.0799421,54.4841263 7.53128312,54.6214153 7.78624843,53.4642651 C8.43346808,54.229161 9.37487847,53.954583 9.57100563,53.8565194 C9.84558366,53.7192304 11.1988611,53.2289125 11.3361501,54.7390916 C11.3361501,54.8567679 11.414601,54.7783171 11.4538264,54.7194789 C12.4736877,53.4250396 11.3753755,52.640531 10.7673813,52.5424674 C10.8262195,52.4640165 11.6303409,51.7971842 12.3756241,52.7385946 C12.4344622,52.7974327 12.4736877,52.8170454 12.4736877,52.6797564 C12.5521385,51.0519009 11.2380865,50.8949992 10.375127,51.601057 C10.3359016,51.4245426 10.0417108,50.5223576 11.3361501,50.5419703 C11.3753755,50.5419703 11.4342137,50.5027449 11.3557628,50.424294 C10.3555143,49.3652073 9.51216748,50.3262304 9.33565303,50.561583 C8.88456056,51.0911264 7.76663572,50.8753865 7.66857214,50.8753865 C8.02160103,45.2073114 13.003231,47.2078085 13.6896761,44.4620282 C13.7289015,44.3247392 13.7877397,44.3639646 13.8073524,44.4228028 C14.0034796,45.0896351 15.6901732,45.1876987 16.0039766,43.8736467 C16.0235893,43.7951959 16.0039766,43.7363577 15.9451385,43.7951959 C14.4937975,45.2465369 11.2380865,40.7356121 15.6901732,37.0680341 C19.4754274,33.9496122 22.8880401,35.6755312 24.1628667,36.7150052 C24.2217048,37.1660977 23.9667395,37.3229994 23.7902251,37.3622249 C23.7313869,37.3818376 23.7117742,37.4406757 23.8098378,37.4799012 C24.1628667,37.6171902 24.6727973,37.5779647 24.9277626,37.2445486 C25.7514967,37.8133173 25.0454389,38.5389878 24.7120227,38.735115 C24.6335719,38.7939532 24.6727973,38.8331786 24.7316355,38.8527913 C25.4769187,38.9900803 26.0849129,38.2251844 26.1241383,37.7937046 L26.2418146,37.8721555 L26.2418146,41.088641 C26.2418146,45.6780166 31.5372481,46.3056236 37.3426121,50.1889414 C43.1479762,46.3056236 48.4434097,45.6584039 48.4434097,41.088641 L48.4434097,37.8721555 L48.561086,37.7937046 C48.6003114,38.2251844 49.2083056,38.9900803 49.9535888,38.8527913 C50.0320397,38.8331786 50.0516524,38.7939532 49.9732015,38.735115 C49.6397854,38.5389878 48.9533403,37.8133173 49.7574617,37.2445486 C49.9928143,37.5779647 50.5027449,37.6171902 50.8753865,37.4799012 C50.9734501,37.4406757 50.9538374,37.3818376 50.8949992,37.3622249 C50.7184848,37.3033867 50.4439067,37.1660977 50.5223576,36.7150052 C51.8167969,35.695144 55.2097968,33.9496122 58.9950511,37.0680341 C63.427525,40.7356121 60.1718141,45.2465369 58.7400858,43.7951959 C58.6812476,43.7363577 58.6616349,43.7951959 58.6812476,43.8736467 C58.9950511,45.2073114 60.6817447,45.1092479 60.8778719,44.4228028 C60.8974846,44.3639646 60.9563228,44.3247392 60.9955482,44.4620282 C61.6819933,47.2078085 66.683236,45.2073114 67.0166521,50.8753865 C66.9185886,50.8949992 65.8006637,51.0911264 65.3495712,50.561583 C65.1534441,50.3262304 64.32971,49.3652073 63.3294614,50.424294 C63.2706233,50.4831322 63.3294614,50.5419703 63.3490742,50.5419703 C64.6435134,50.5027449 64.3689354,51.4245426 64.3100973,51.601057 C63.4471377,50.8949992 62.1330857,51.0322882 62.2115366,52.6797564 C62.2115366,52.8170454 62.2703748,52.7974327 62.3096002,52.7385946 C63.0548834,51.7971842 63.8590048,52.4836292 63.9178429,52.5424674 C63.3098487,52.640531 62.2115366,53.4250396 63.2313979,54.7194789 C63.2706233,54.7783171 63.3294614,54.8567679 63.3490742,54.7390916 C63.4863632,53.2092998 64.8396406,53.7192304 65.1142186,53.8565194 C65.3103458,53.954583 66.2517562,54.229161 66.8989758,53.4642651 C67.1539412,54.6214153 68.6052822,54.4841263 68.7425712,54.4841263 C68.8406348,54.4841263 68.8602475,54.4056755 68.7621839,54.3468373 C68.134577,53.9349703 67.5658082,53.1308489 68.4876059,52.8366581 C68.4876059,52.8366581 69.723207,53.954583 70.7234555,52.7385946 C70.8019064,52.6209183 70.762681,52.6013055 70.7038428,52.6209183 C70.5861665,52.6601437 69.1740509,52.8366581 69.2721145,51.4049298 C69.3309527,50.424294 70.0566232,47.0705195 68.7229585,46.2271727 C68.6445076,46.1683345 68.5856695,46.1291091 68.683733,46.0898837 C70.0370105,45.7956929 70.2135249,44.8542825 69.7624324,43.7755831 C69.7035943,43.6382941 69.6251434,43.6579068 69.6251434,43.7755831 C69.5270798,45.9525947 66.055629,44.9131207 65.9379527,41.8731496 C67.8011608,42.3438548 70.9980336,41.6966352 70.9980336,38.6762769 C70.9980336,35.695144 67.1735539,34.0869012 67.1735539,31.9295024 C67.1735539,31.5568608 67.1735539,30.0662943 68.9386984,30.0662943 C70.3900394,30.0662943 71.4491261,31.1449937 71.7433168,32.302144 C71.7629295,32.3609822 71.8217677,32.3805949 71.8609931,32.302144 C72.076733,32.027566 72.0375076,30.8900284 71.5079642,30.3016469 C71.4491261,30.2428088 71.5079642,30.1447452 71.6256405,30.2035833 C71.7825422,30.3016469 72.2924729,30.4585487 72.8416289,30.4585487 C74.0183919,30.4585487 74.6656116,29.811329 74.6656116,28.7326296 C74.6656116,28.0461845 74.430259,27.7127684 74.5283225,27.4970285 C74.567548,27.3989649 74.4498717,27.320514 74.3910335,27.457803 C74.2145191,27.7912192 73.9203283,28.6737915 72.7043399,28.6737915 C72.6847272,28.6737915 70.2135249,28.6737915 69.7820452,28.6737915 C66.5263342,28.6737915 66.2321435,31.3018955 66.2321435,31.9491151 C66.2321435,34.6164445 69.6251434,35.7735948 69.6251434,38.4801497 C69.6251434,39.1077566 69.31134,40.186456 67.5461955,40.186456 C66.820525,40.186456 66.0752417,39.9903289 65.6045366,39.774589 C65.6045366,39.774589 64.8200279,35.0283116 62.5253401,33.3808434 C62.5253401,33.3808434 59.8383979,34.6948954 57.1710685,33.2435544 C55.131346,32.1452423 54.1703229,31.399959 52.3855657,32.6355602 C50.6008085,33.8711613 49.0317911,35.204826 48.8552767,35.1656006 L48.4237969,35.0871497 L48.4237969,24.417832 C49.247531,24.3393811 49.3063692,25.0650516 49.2671437,25.2611788 C49.2279183,25.5161441 48.9533403,25.7122713 49.5221091,26.5556181 C49.5613345,26.6144562 49.6397854,26.5948435 49.6397854,26.5163927 C49.6593981,26.3006528 49.7770744,25.9476239 50.0516524,25.9476239 C50.3262304,25.9476239 51.601057,26.908647 52.6797564,27.9873464 C52.6797564,27.9873464 53.3073633,26.1045256 54.7979298,25.5357568 C53.954583,25.3984678 50.287005,24.5158956 50.287005,22.9272655 C50.287005,22.3977222 49.6790108,22.2604332 49.2867565,22.2996586 C49.2671437,22.2604332 48.6787622,20.8287049 47.5608374,21.5739881 C47.5019993,21.6132135 47.521612,21.6916644 47.5804501,21.7112771 C48.070768,21.8289534 48.2865079,22.338884 48.3061206,22.8880401 C47.2470339,22.5546239 42.6968837,21.2797974 37.3229994,21.2797974 C34.7145081,21.2797974 32.302144,21.5739881 30.3800978,21.927017 L30.3800978,25.6338204 L28.9287568,25.6338204 L28.9287568,22.1819823 L28.9287568,22.1819823 M19.0047222,60.0737505 C18.6124679,59.9168488 18.3378899,59.6618835 18.3378899,59.1323401 L18.3378899,56.8376523 C17.6710575,56.6022997 15.8863003,55.9158546 12.2971732,55.9158546 C9.31604032,55.9158546 8.37462993,56.582687 8.33540449,56.8180396 L7.55089584,61.1916753 C7.55089584,61.1916753 8.76688426,60.0933632 13.0816819,60.3679413 C18.2986645,60.7013574 23.6921615,63.7805539 23.6921615,60.5052303 L23.6921615,58.5831841 C19.5931037,58.5831841 19.0047222,59.8776233 19.0047222,60.0737505 Z M51.0519009,58.5831841 L51.0519009,60.5052303 C51.0519009,63.7805539 56.445398,60.7013574 61.6623805,60.3679413 C65.9771782,60.0933632 67.1931666,61.1916753 67.1931666,61.1916753 L66.4086579,56.8180396 C66.3694325,56.582687 65.4280221,55.9158546 62.4468892,55.9158546 C58.8577621,55.9158546 57.0533922,56.6022997 56.4061725,56.8376523 L56.4061725,59.1323401 C56.4061725,59.6618835 56.1512072,59.9168488 55.7393402,60.0737505 C55.7197275,59.8776233 55.131346,58.5831841 51.0519009,58.5831841 Z M37.3622249,56.6022997 C45.7564675,56.6022997 54.2683864,57.0337795 55.3863113,58.308606 C55.4843749,58.4066696 55.5039876,58.308606 55.5039876,58.2301552 L55.5039876,53.7780685 C55.5039876,52.4836292 46.7174906,51.7187333 37.3622249,51.7187333 C28.0069591,51.7187333 19.2204621,52.4640165 19.2204621,53.7780685 L19.2204621,58.2301552 C19.2204621,58.308606 19.2596876,58.4066696 19.3381384,58.308606 C20.4560633,57.0337795 28.9679822,56.6022997 37.3622249,56.6022997 Z M29.8897799,35.6363058 L29.0464331,35.4205659 L28.9679822,35.5186295 L27.9873464,35.0871497 C27.9873464,35.0871497 28.7130169,35.0871497 28.8699186,35.0871497 C28.9483695,35.0871497 28.9483695,35.0283116 28.9091441,34.9890862 C28.5168897,34.5968318 28.1638608,34.2438029 28.1638608,34.2438029 C28.1638608,34.2438029 28.5561152,34.4007047 29.1444967,34.5968318 C29.2033348,34.6164445 29.2425602,34.5772191 29.2033348,34.5379937 C28.9287568,34.1261266 28.5561152,33.5965833 28.5561152,33.5965833 C28.5561152,33.5965833 29.3406238,34.1261266 29.5171383,34.2438029 C29.5759764,34.2830284 29.6152019,34.2438029 29.5955891,34.1849648 C29.3798493,33.6554214 29.1444967,33.0670399 29.1444967,33.0670399 L30.0074562,33.890774 C30.0466816,33.9299995 30.085907,33.9103868 30.085907,33.8515486 C30.0074562,33.4592943 29.8505544,32.7336238 29.8505544,32.7336238 L30.4977741,33.6750342 C30.5369995,33.7338723 30.576225,33.7142596 30.576225,33.6554214 C30.576225,33.478907 30.5958377,32.6355602 30.5958377,32.6355602 C30.5958377,32.6355602 30.8704157,33.2435544 31.0077047,33.5769706 C31.0273174,33.6358087 31.0861556,33.6358087 31.125381,33.5573579 C31.1646065,33.4592943 31.4587972,32.7728492 31.4587972,32.7728492 L31.4980226,33.8319359 L31.3607336,33.8515486 L31.1842192,35.1263752 C32.4590457,34.8321844 34.0280631,32.6551729 35.2440515,32.6551729 C36.6757798,32.6551729 37.2053231,34.3418665 39.8726526,33.478907 C40.5394849,34.4791555 40.7748375,35.3421151 41.0298028,36.5384908 C42.0496641,37.4995139 43.5010051,37.1857104 43.5010051,36.1658491 C43.5010051,34.792959 41.9908259,34.518381 41.9908259,33.0866527 C41.9908259,32.439433 42.4419184,31.5176353 43.6775196,31.5176353 C44.3247392,31.5176353 45.2857623,31.7922134 45.8349184,31.7922134 C46.482138,31.7922134 46.619427,31.3215082 46.6978779,31.125381 C46.756716,30.988092 46.9332305,31.0273174 46.9136178,31.1449937 C46.8940051,31.2822828 46.9920686,31.4587972 46.9920686,31.7726007 C46.9920686,32.6747856 45.6584039,32.7924619 45.5015022,32.6943983 C45.442664,32.6551729 45.3838259,32.7140111 45.442664,32.7532365 C45.6387912,32.9101382 45.5995658,33.4592943 45.3642132,33.7927105 C45.3446005,33.8319359 45.305375,33.8319359 45.2857623,33.7927105 C45.1484733,33.1454908 44.3835773,32.3413694 43.6971323,32.3413694 C43.442167,32.3413694 42.951849,32.4786585 42.951849,33.0670399 C42.951849,33.890774 44.5993172,34.6360573 44.5993172,36.3227509 C44.5993172,38.0878954 42.8537855,38.4997624 41.088641,38.0682826 C41.1474791,39.7353635 43.6382941,40.7356121 43.6971323,39.5392364 C43.6971323,39.4607855 43.7363577,39.5000109 43.7755831,39.5392364 C44.1482247,40.049167 43.9717103,40.4414213 43.5010051,40.6375485 C43.9324849,40.8336757 44.0109357,41.7162479 44.1482247,42.2261785 C44.3443519,43.0106872 45.168086,42.5792074 45.2073114,42.5595947 C45.2465369,42.539982 45.2661496,42.5595947 45.2465369,42.5988201 C44.9327334,43.4225542 44.0893866,43.1087508 44.0893866,43.1087508 C43.6579068,43.4225542 44.1874502,43.6971323 44.5797045,43.8148086 C44.6385427,43.8344213 44.6385427,43.8736467 44.5797045,43.8932594 C44.2855138,43.991323 43.6579068,44.1874502 43.3637161,43.6775196 C43.1479762,44.2266756 42.677271,44.2070629 42.5007566,44.2070629 C42.1869531,44.2070629 41.9712132,44.5404791 42.0496641,44.9719588 C42.0496641,45.0111843 42.0300514,45.030797 41.9908259,44.9915716 C41.22593,44.4816409 41.6574098,43.8932594 41.9712132,43.7363577 C41.9123751,43.6971323 41.3828317,43.4813924 41.1670918,44.1089993 C41.1474791,44.1482247 41.1278664,44.1678375 41.1082537,44.1089993 C40.7748375,43.2264271 41.500508,42.951849 42.0300514,43.1872016 C41.9908259,43.0695253 41.7162479,42.6184329 41.0298028,42.7753346 C40.9905774,42.7753346 40.9709647,42.7753346 40.9905774,42.7361092 C41.1082537,42.4615311 41.4416699,42.0692768 42.0692768,42.4615311 C42.3830803,42.6576583 42.951849,42.3634675 42.9910745,42.3438548 C41.8731496,40.1276179 39.7157508,41.9908259 39.2254329,40.2452942 C39.2254329,40.2060687 39.1665948,40.186456 39.1469821,40.2649069 C39.0293058,40.6375485 38.0878954,40.6571612 37.9113809,39.9314907 C37.8917682,39.8726526 37.9113809,39.8726526 37.9506063,39.911878 C38.0878954,40.049167 38.3820861,40.186456 38.7743404,39.6176872 C39.0293058,39.2450456 39.0685312,38.7547277 39.0685312,38.4016988 C39.0685312,37.0484214 37.7152537,34.792959 35.6166931,34.792959 C34.2830284,34.792959 32.8513001,35.3028896 31.7922134,36.0873983 L32.7728492,36.3227509 C32.6747856,37.3229994 31.7137625,37.9113809 30.8311903,37.6564156 L30.988092,36.518878 C30.8311903,36.5581035 30.4389359,36.6953925 30.2428088,36.9895832 C30.2231961,37.009196 30.2035833,37.009196 30.1839706,36.9895832 C30.0074562,36.3423636 30.5369995,36.0089474 30.713514,35.9304966 C30.7331267,35.9108838 30.7331267,35.9108838 30.6939013,35.9108838 C30.2231961,35.8912711 29.948618,36.2443 29.8701672,36.3619763 C29.8505544,36.381589 29.8309417,36.381589 29.8309417,36.3619763 C29.7328782,36.2050746 29.6544273,35.8716584 29.8897799,35.6363058 Z M32.8120746,43.3441034 C32.439433,43.8148086 32.1060168,43.3637161 31.5960862,43.3637161 C31.125381,43.3637161 31.0469302,43.7559704 31.0469302,43.9128722 C31.0469302,43.9324849 31.0273174,43.9520976 31.0077047,43.9128722 C30.4781614,43.1872016 31.0665429,42.7949473 31.4195718,42.7361092 C31.3607336,42.677271 30.850803,42.3438548 30.5173868,42.81456 C30.4977741,42.8537855 30.4585487,42.8341727 30.4585487,42.7949473 C30.4389359,41.8927624 31.1449937,41.8339242 31.6156989,42.2261785 C31.6941498,41.8927624 31.4784099,41.6574098 31.1057683,41.637797 C31.0665429,41.637797 31.0469302,41.5985716 31.0665429,41.5789589 C31.2234446,41.4024444 31.3803463,41.3239936 31.5372481,41.3239936 C32.027566,41.3239936 32.1060168,41.9516005 32.4198203,41.9516005 C32.9101382,41.9516005 33.5965833,41.2847681 33.6750342,41.22593 C33.6554214,41.1867046 33.1847162,39.9314907 33.2827798,39.1665948 C33.2827798,39.1273693 33.2631671,39.1273693 33.2435544,39.1469821 C33.0082018,39.2842711 32.4002076,39.2842711 32.4002076,38.5389878 C32.4002076,38.4801497 32.4198203,38.4801497 32.4590457,38.5193751 C32.7140111,38.8920167 33.1454908,38.4801497 33.3612307,38.2251844 C33.5965833,37.9702191 34.8321844,36.1854619 36.4600399,36.1854619 C36.8130688,36.1854619 37.283774,36.381589 37.6564156,36.6365543 C37.0876468,37.3229994 37.6564156,37.9898318 38.0682826,37.9113809 C38.1271208,37.9113809 38.1271208,37.9506063 38.0878954,37.9702191 C35.9108838,38.7939532 34.9498607,39.1077566 34.9498607,40.9317392 C34.9498607,41.8731496 35.2832769,42.402693 35.832433,42.2850167 C35.8716584,42.265404 35.8912711,42.2850167 35.8520457,42.3242421 C35.6559185,42.5595947 35.4205659,42.6380456 35.2244388,42.6380456 C34.7733463,42.6380456 34.6948954,42.3830803 34.4595428,42.3830803 C34.2045775,42.3830803 33.4004561,42.8537855 33.4004561,43.2656525 C33.4004561,43.4225542 33.4985197,43.6186814 33.7730977,43.8148086 C33.7927105,43.8344213 33.7730977,43.8344213 33.7730977,43.854034 C33.5965833,43.9128722 32.9689764,43.9520976 32.8120746,43.3441034 Z M38.5389878,25.6730458 C37.8525428,25.6338204 37.421063,25.7907221 37.4406757,26.006462 C37.7740919,26.3594909 38.2055717,26.3202655 38.5389878,25.6730458 Z M36.0285601,27.3597395 C36.4992653,27.2420632 37.0288087,27.3009013 37.0876468,27.320514 C37.1660977,27.3401267 37.1660977,27.457803 37.0680341,27.4774158 C36.0677856,27.6147048 36.0285601,28.0657973 35.3813405,28.0657973 C34.9694734,28.0657973 34.4987683,27.6343175 34.6752827,27.0263233 C34.6948954,26.9478724 34.7537336,26.9478724 34.7733463,27.0263233 C34.8517971,27.2616759 35.2440515,27.5558666 36.0285601,27.3597395 Z M23.0449418,49.5221091 C23.7117742,50.3654559 24.3393811,49.5809472 25.2023406,49.5809472 C25.6338204,49.5809472 26.143751,49.7182362 26.2418146,50.5811957 C26.2418146,50.6204212 26.2810401,50.6400339 26.3202655,50.5811957 C27.2616759,49.2867565 26.1829765,48.561086 25.5749823,48.4630224 C25.7122713,48.3453461 26.634069,47.7765773 27.2224504,48.6199241 C27.2616759,48.6591495 27.320514,48.6591495 27.320514,48.5806987 C27.320514,46.9528432 26.0849129,46.8351669 25.2023406,47.5412247 C25.0258262,46.8940051 25.5161441,46.482138 26.143751,46.482138 C26.2222019,46.482138 26.2418146,46.4232999 26.2025892,46.3840744 C25.1042771,45.2073114 24.280543,46.6782652 24.1040285,46.9136178 C23.6725488,47.5019993 22.1035314,46.4036871 21.4759245,45.7564675 C21.4759245,45.7564675 22.8684274,44.3051265 22.8684274,42.9714618 C22.8684274,42.8930109 22.8684274,42.7753346 22.8684274,42.7361092 C22.8684274,42.6968837 22.8880401,42.677271 22.9272655,42.6968837 C23.0645546,42.7753346 23.2606817,42.8341727 23.4371962,42.8341727 C23.7509996,42.8341727 24.3589938,42.7361092 24.3589938,41.6181843 C24.3589938,41.5397335 24.3197684,41.5397335 24.280543,41.5789589 C24.1236412,41.8143115 23.9275141,41.8731496 23.7902251,41.8731496 C22.6723002,41.8731496 20.338387,38.1467335 17.5926067,38.1467335 C16.8669362,38.1467335 15.5136587,38.6566641 14.8272136,39.4019474 C15.1606298,39.5980745 15.219468,40.0099416 15.1802425,40.3041323 C15.1214044,40.7748375 14.7487628,41.0101901 14.3761212,41.1278664 C14.317283,41.1474791 14.2976703,41.1867046 14.3761212,41.22593 C15.768624,41.7554733 18.2986645,42.7164964 18.8674332,43.2068144 C19.5538783,43.7951959 19.4165893,44.9131207 19.024335,46.4429126 C18.6516934,47.9138663 17.8279593,47.7177391 17.5337685,47.658901 C17.4945431,47.658901 17.4749304,47.6785137 17.4945431,47.7177391 C17.847572,48.1688316 18.2986645,48.3257334 18.6713061,48.3257334 C19.3969766,48.3257334 19.6715546,47.8746409 20.0441962,47.8746409 C20.6718031,47.8746409 21.9858551,48.7768258 21.9858551,49.4632709 C21.9858551,49.8555252 21.6916644,50.1889414 21.2994101,50.4439067 C21.2797974,50.4635194 21.2797974,50.4831322 21.3190228,50.5027449 C21.5739881,50.5223576 22.8095892,50.6204212 23.0449418,49.5221091 Z M53.4446523,50.4831322 C53.4838778,50.4831322 53.4838778,50.4439067 53.4642651,50.424294 C53.0720107,50.1693287 52.77782,49.8162998 52.77782,49.4436582 C52.77782,48.7572131 54.091872,47.8550282 54.7194789,47.8550282 C55.0921205,47.8550282 55.3666986,48.3061206 56.0923691,48.3061206 C56.4650107,48.3061206 56.8964904,48.1492189 57.2691321,47.6981264 C57.2887448,47.658901 57.2887448,47.6392883 57.2299066,47.6392883 C56.9357159,47.6785137 56.1119818,47.8942536 55.7393402,46.4232999 C55.3470858,44.893508 55.2097968,43.7755831 55.8962419,43.1872016 C56.4650107,42.6968837 58.9950511,41.7358606 60.387554,41.2063173 C60.4660048,41.1670918 60.4463921,41.1278664 60.387554,41.1082537 C59.9952996,41.0101901 59.622658,40.7748375 59.5834326,40.2845196 C59.5442072,39.9903289 59.6030453,39.5784618 59.9364615,39.3823346 C59.2500164,38.6370514 57.896739,38.1271208 57.1710685,38.1271208 C54.4252882,38.1271208 52.0913749,41.8535369 50.9734501,41.8535369 C50.8361611,41.8535369 50.6596466,41.7946988 50.4831322,41.5593462 C50.4439067,41.500508 50.4046813,41.500508 50.4046813,41.5985716 C50.4046813,42.7164964 50.9930628,42.81456 51.326479,42.81456 C51.5029934,42.81456 51.6991206,42.7557219 51.8364096,42.677271 C51.875635,42.6576583 51.8952477,42.677271 51.8952477,42.7164964 C51.8952477,42.7557219 51.8952477,42.8733982 51.8952477,42.951849 C51.8952477,44.2855138 53.2877506,45.7368548 53.2877506,45.7368548 C52.6601437,46.3840744 51.0911264,47.4823865 50.6596466,46.8940051 C50.4635194,46.6586525 49.6593981,45.1876987 48.561086,46.3644617 C48.5218605,46.4036871 48.5414732,46.4625253 48.6199241,46.4625253 C49.2279183,46.4625253 49.7182362,46.8743923 49.5613345,47.521612 C48.6787622,46.8155542 47.4431611,46.9332305 47.4431611,48.561086 C47.4431611,48.6199241 47.5019993,48.6395368 47.5412247,48.6003114 C48.1296062,47.7569646 49.0514039,48.3257334 49.1886929,48.4434097 C48.561086,48.5414732 47.4823865,49.2671437 48.4434097,50.561583 C48.4826351,50.6204212 48.5218605,50.6008085 48.5218605,50.561583 C48.6199241,49.7182362 49.1298547,49.5613345 49.5613345,49.5613345 C50.424294,49.5613345 51.0715137,50.3654559 51.7187333,49.5024963 C51.9148605,50.6204212 53.1504616,50.5223576 53.4446523,50.4831322 Z M31.1842192,28.9679822 C31.1057683,29.0856585 30.8115776,28.9679822 30.6939013,28.9091441 C30.6742885,28.8895313 30.6546758,28.9091441 30.6742885,28.9287568 C30.7527394,29.0856585 31.0273174,29.5563637 31.4391845,29.5563637 C31.6353116,29.5563637 31.890277,29.4386874 31.9687278,29.3210111 C31.9687278,29.3210111 33.5965833,29.8505544 34.381092,30.0662943 C34.0672885,30.4781614 33.8711613,30.988092 33.8319359,31.5176353 C33.1847162,31.125381 30.5958377,29.7328782 30.5958377,29.7328782 L29.7917163,30.8311903 C29.6544273,31.0077047 29.0268204,30.5369995 29.1444967,30.3604851 L29.7524909,29.5171383 C29.5563637,29.3013984 29.0660458,29.4386874 28.9287568,29.4779128 C28.9091441,29.4779128 28.8895313,29.4779128 28.9091441,29.4386874 C28.9875949,29.2817857 29.2817857,28.771855 30.0466816,28.9875949 C30.0466816,28.5168897 29.3602365,28.6737915 29.1837221,28.7130169 C29.1641094,28.7130169 29.1641094,28.7130169 29.1837221,28.6934042 C29.3798493,28.497277 29.9290053,28.0461845 30.5566122,28.4188261 L30.8311903,28.0461845 L30.2820342,27.457803 L30.6350631,26.9870978 L31.0273174,27.5166412 L34.0084503,23.4371962 C34.0869012,23.3391326 34.6752827,23.1626181 34.8910226,23.1233927 C34.9106353,23.3587453 34.930248,23.9667395 34.8714099,24.0648031 L31.9295024,28.1834736 L32.5571093,28.3796007 L32.2236931,28.8503059 L31.4980226,28.5168897 L31.1842192,28.9679822 Z M41.637797,28.3011498 C41.637797,28.6737915 41.8731496,29.2229475 42.3634675,29.0660458 C42.3830803,29.0464331 42.402693,29.0660458 42.402693,29.0856585 C42.3242421,29.4975256 41.5789589,29.8897799 41.2455427,29.399462 C40.951352,30.0466816 41.0101901,30.6350631 41.6574098,30.988092 C41.6966352,31.0077047 41.6966352,31.0469302 41.6574098,31.0861556 C41.2651554,31.3607336 40.6571612,31.3018955 40.3825832,30.7527394 C39.8530398,31.1646065 39.9314907,32.0079533 40.2452942,32.302144 C40.2452942,32.302144 38.7547277,33.1847162 37.421063,32.5571093 C36.5384908,32.1256296 35.8128203,31.5764735 34.65567,31.6745371 C34.8125717,30.0662943 35.6166931,29.6348146 37.1072595,29.399462 C38.2840225,29.2033348 38.4409243,28.6541787 38.2644098,28.2423117 C37.8525428,28.1442481 37.1268723,28.497277 37.1268723,28.497277 C36.9895832,28.2815371 37.1857104,28.0461845 37.1857104,28.0461845 C37.1072595,27.948121 37.0680341,27.6539302 37.0680341,27.6539302 C37.8917682,27.6539302 38.0486699,27.4774158 38.0486699,27.4774158 C38.2055717,26.6144562 37.3229994,26.5163927 36.6561671,26.9870978 C36.3423636,26.7125198 36.4012017,26.3398782 36.4012017,26.3398782 C36.3031382,26.3006528 36.2443,26.143751 36.2443,26.0849129 C36.2443,25.8887857 37.2249358,25.3200169 37.4799012,25.2611788 C37.5387393,24.9669881 37.8917682,24.5747337 38.9508549,24.6727973 C39.0685312,24.3982193 38.872404,23.378358 38.7547277,23.1233927 C38.7155023,23.0449418 38.7743404,22.9861037 38.872404,23.0449418 C39.2450456,23.2802944 39.5980745,24.1236412 39.8530398,24.143254 C39.8530398,24.143254 41.0298028,23.5352597 41.088641,23.5548725 C41.1474791,23.5940979 41.3043809,24.8885372 41.3043809,24.8885372 C41.4612826,25.0846644 42.3634675,24.8885372 42.7557219,25.0650516 C42.8537855,25.1042771 42.8537855,25.1827279 42.7557219,25.2023406 C42.4615311,25.2611788 41.5201207,25.6534331 41.363219,25.9280112 C41.8927624,26.771358 41.637797,27.9677337 41.637797,28.3011498 Z" id="Shape"></path>
            </g>
        </g>
    </g>
</svg>