<?xml version="1.0" encoding="UTF-8"?>
<svg width="134px" height="25px" viewBox="0 0 134 25" version="1.1" xmlns="http://www.w3.org/2000/svg" xmlns:xlink="http://www.w3.org/1999/xlink">
    <!-- Generator: Sketch 60.1 (88133) - https://sketch.com -->
    <title>rabobank-4 copy</title>
    <desc>Created with Sketch.</desc>
    <g id="Page-1" stroke="none" stroke-width="1" fill="none" fill-rule="evenodd">
        <g id="home" transform="translate(-65.000000, -4840.000000)" fill="#010166" fill-rule="nonzero">
            <g id="rabobank-4-copy" transform="translate(65.000000, 4840.000000)">
                <path d="M79.1693091,15.6498909 C78.6005818,19.2773818 76.7262545,21.1789091 74.4760727,21.1789091 C73.0517818,21.1789091 72.2308364,20.1799273 72.4731636,18.6295273 L73.2594909,13.7038545 C73.5661091,11.8789818 74.6541091,10.4522182 76.6050909,10.4522182 C78.7637818,10.4522182 79.7479273,11.9185455 79.1693091,15.6498909 M71.4642909,22.8826182 C71.7684364,22.8826182 72.4978909,24.1634909 74.8667636,24.1634909 C79.9136,24.1634909 82.7992727,20.5112727 83.5905455,15.8032 C84.5895273,9.99476364 81.7656727,7.35389091 78.2074182,7.35389091 C76.5333818,7.35389091 75.2846545,7.50472727 74.3722182,7.98690909 L75.7445818,0 L71.5582545,0 L67.3941818,23.8741818 L70.5493818,23.8741818 C70.5493818,23.8741818 71.0093091,22.8900364 71.4939636,22.8900364 L71.4642909,22.8900364 L71.4642909,22.8826182 L71.4642909,22.8826182 Z M116.064873,12.6999273 C116.705309,9.08232727 115.365091,7.31927273 111.445818,7.31927273 C108.528,7.31927273 107.375709,8.60756364 106.285236,9.70050909 L106.391564,7.69018182 L102.509382,7.71490909 L102.210182,10.6945455 L99.9649455,23.8766545 L104.215564,23.8766545 L105.585455,15.3185455 C106.070109,12.3710545 108.110109,10.1184 110.021527,10.1184 C112.150545,10.1184 112.125818,11.3349818 111.789527,13.1895273 L109.937455,23.8766545 L114.153455,23.8766545 L116.064873,12.6999273 L116.064873,12.6999273 Z M133.784436,7.35636364 L128.829091,7.35636364 L123.136873,13.3898182 L123.055273,13.3725091 L125.3376,0.0123636364 L121.2032,0.0123636364 L117.034182,23.8741818 L121.227927,23.8741818 L121.655709,21.4830545 L122.5088,16.2581818 C124.724364,16.2581818 125.970618,16.5005091 126.9424,20.9044364 L127.612509,23.8741818 L131.895273,23.8741818 C131.895273,23.8741818 130.829527,19.3589818 130.132218,17.5959273 C129.397818,15.7413818 128.604073,14.5149091 126.897891,14.1810909 L133.784436,7.35636364 L133.784436,7.35636364 Z M11.9976727,13.2068364 C15.0638545,12.5367273 16.6587636,10.0565818 17.0865455,8.44436364 C18.1794909,4.00829091 16.2087273,0.544 10.5511273,0.605818182 L4.07010909,0.5984 L0,23.8741818 L4.22341818,23.8741818 L5.89498182,14.5248 C9.78952727,14.4184727 10.2667636,15.3655273 10.9962182,19.9054545 L11.6663273,23.8741818 L16.0455273,23.8741818 C15.5287273,21.4682182 15.1973818,19.2032 14.7720727,17.3832727 C14.3121455,15.4644364 13.6049455,13.9684364 11.7825455,13.2562909 L11.9976727,13.2068364 Z M12.8458182,7.66545455 C12.4823273,9.73265455 10.88,11.1841455 8.90676364,11.1841455 L6.41672727,11.1841455 L7.70254545,3.83272727 L9.96756364,3.82778182 C12.6554182,3.82778182 13.1796364,5.59578182 12.8458182,7.66545455 M31.9426909,12.0619636 C32.5485091,8.53338182 30.6642909,7.31927273 26.8661818,7.31927273 C22.1234909,7.31927273 20.0587636,9.56945455 20.0587636,9.56945455 L21.5152,12.0298182 C21.5152,12.0298182 23.0482909,10.2321455 26.1070545,10.2321455 C27.8107636,10.2321455 27.8478545,11.1025455 27.6846545,12.0298182 L27.3508364,14.1266909 C21.2407273,13.9758545 18.1127273,15.2864 17.4129455,19.2946909 C16.8417455,22.5784727 19.3045818,24.1634909 22.0666182,24.1634909 C23.4933818,24.1634909 24.6481455,23.9458909 26.0427636,22.7342545 C26.3172364,23.5205818 26.8068364,23.9409455 27.3508364,24.0274909 C28.2311273,24.2104727 29.7518545,24.0027636 30.2068364,23.6689455 C30.1722182,23.1818182 30.2068364,21.9405091 30.7236364,19.0226909 L31.9426909,12.0619636 L31.9426909,12.0619636 Z M26.9304727,16.3496727 C26.2529455,21.1492364 25.6149818,21.6289455 23.3005091,21.6289455 C21.7179636,21.6289455 21.1344,20.5458909 21.4014545,19.1265455 C21.7698909,17.1904 23.2312727,16.3496727 26.9304727,16.3496727 M98.9610182,12.0619636 C99.5693091,8.53338182 97.6826182,7.31927273 93.8820364,7.31927273 C89.1418182,7.31927273 87.0746182,9.56945455 87.0746182,9.56945455 L88.536,12.0298182 C88.536,12.0298182 90.0666182,10.2321455 93.1204364,10.2321455 C94.8290909,10.2321455 94.8637091,11.1025455 94.7029818,12.0298182 L94.3691636,14.1266909 C88.2565818,13.9758545 85.1310545,15.2864 84.4288,19.2946909 C83.8501818,22.5784727 86.3130182,24.1634909 89.0775273,24.1634909 C90.5042909,24.1634909 91.6615273,23.9458909 93.0610909,22.7342545 C93.3281455,23.5205818 93.8177455,23.9409455 94.3642182,24.0274909 C95.2445091,24.2104727 96.7652364,24.0027636 97.2177455,23.6689455 C97.1880727,23.1818182 97.2177455,21.9405091 97.7345455,19.0226909 L98.9610182,12.0619636 L98.9610182,12.0619636 Z M93.9463273,16.3496727 C93.2737455,21.1492364 92.6333091,21.6289455 90.3163636,21.6289455 C88.7362909,21.6289455 88.1502545,20.5458909 88.4148364,19.1265455 C88.7857455,17.1904 90.2471273,16.3496727 93.9463273,16.3496727 M40.4266182,24.1634909 C45.4734545,24.1634909 48.3591273,20.5112727 49.1454545,15.8032 C50.1469091,9.99476364 47.3255273,7.35389091 43.7648,7.35389091 C42.0932364,7.35389091 40.8865455,7.50472727 39.9444364,7.98690909 L41.3143273,0 L37.1106909,0 L32.9441455,23.8741818 L36.1067636,23.8741818 C36.1067636,23.8741818 36.5617455,22.8900364 37.0192,22.8900364 C37.3258182,22.8826182 38.0552727,24.1634909 40.4266182,24.1634909 M42.1896727,10.4522182 C44.3483636,10.4522182 45.2632727,11.9111273 44.7538909,15.6498909 C44.2346182,19.4702545 42.3108364,21.1838545 40.0309818,21.1838545 C38.6042182,21.1838545 37.7832727,20.1799273 38.0552727,18.6295273 L38.8440727,13.7088 C39.1457455,11.8814545 40.2386909,10.4571636 42.1575273,10.4571636 L42.1896727,10.4571636 L42.1896727,10.4522182 L42.1896727,10.4522182 Z M50.9159273,17.0989091 C51.5662545,11.0209455 54.3060364,7.25992727 60.8216727,7.25992727 C65.6558545,7.25992727 67.2581818,10.9517091 66.6078545,14.9204364 C65.5693091,21.2654545 63.0990545,24.2549818 56.8974545,24.2549818 C52.8842182,24.2549818 50.5005091,20.9810909 50.9159273,17.0989091 M62.1940364,15.2146909 C62.5056,13.5332364 62.8344727,10.2692364 59.9413818,10.2692364 C57.9978182,10.2692364 56.1828364,11.5872 55.3668364,16.2062545 C54.8698182,19.0325818 55.4138182,21.2976 57.6664727,21.2976 C59.3133091,21.2951273 61.3236364,19.9376 62.1940364,15.2146909" id="Shape"></path>
            </g>
        </g>
    </g>
</svg>