<?xml version="1.0" encoding="UTF-8"?>
<svg width="64px" height="64px" viewBox="0 0 64 64" version="1.1" xmlns="http://www.w3.org/2000/svg" xmlns:xlink="http://www.w3.org/1999/xlink">
    <!-- Generator: Sketch 60.1 (88133) - https://sketch.com -->
    <title>Group 5</title>
    <desc>Created with Sketch.</desc>
    <g id="Page-1" stroke="none" stroke-width="1" fill="none" fill-rule="evenodd">
        <g id="home" transform="translate(-1175.000000, -5576.000000)">
            <g id="Group-5" transform="translate(1176.000000, 5577.000000)">
                <g id="Group-19" stroke="#212829" stroke-linejoin="round" stroke-width="2">
                    <path d="M20.8202783,53.2323232 L8.76767677,41.1797217 C8.76767677,41.1797217 33.8772632,0 62,0 C62,28.1227368 20.8202783,53.2323232 20.8202783,53.2323232 Z" id="Stroke-1"></path>
                    <polyline id="Stroke-3" points="19.4141414 50.7842057 16.3397612 53.8585859 8.14141414 45.6602388 11.2157943 42.5858586"></polyline>
                    <path d="M6.06993007,48.8484848 C-1.43351997e-12,54.9184149 -1.43351997e-12,62 -1.43351997e-12,62 C-1.43351997e-12,62 7.08158508,62 13.1515152,55.9300699" id="Stroke-5"></path>
                    <path d="M48.8484848,17.2222222 C48.8484848,19.4702702 47.0258258,21.2929293 44.7777778,21.2929293 C42.5297298,21.2929293 40.7070707,19.4702702 40.7070707,17.2222222 C40.7070707,14.9741742 42.5297298,13.1515152 44.7777778,13.1515152 C47.0258258,13.1515152 48.8484848,14.9741742 48.8484848,17.2222222 Z" id="Stroke-7"></path>
                    <path d="M40.0808081,25.989899 C40.0808081,28.237947 38.258149,30.0606061 36.010101,30.0606061 C33.762053,30.0606061 31.9393939,28.237947 31.9393939,25.989899 C31.9393939,23.741851 33.762053,21.9191919 36.010101,21.9191919 C38.258149,21.9191919 40.0808081,23.741851 40.0808081,25.989899 Z" id="Stroke-9"></path>
                    <path d="M31.3131313,34.7575758 C31.3131313,37.0056237 29.4904722,38.8282828 27.2424242,38.8282828 C24.9943763,38.8282828 23.1717172,37.0056237 23.1717172,34.7575758 C23.1717172,32.5095278 24.9943763,30.6868687 27.2424242,30.6868687 C29.4904722,30.6868687 31.3131313,32.5095278 31.3131313,34.7575758 Z" id="Stroke-11"></path>
                    <polyline id="Stroke-13" points="53.2323232 23.7979798 36.2768425 62 26.3030303 62 26.3030303 53.9574694"></polyline>
                    <polyline id="Stroke-15" points="38.2020202 8.76767677 5.1159077e-13 25.7231575 5.1159077e-13 35.6969697 8.04253057 35.6969697"></polyline>
                    <path d="M60.1212121,10.020202 C55.6251162,10.020202 51.979798,6.37488384 51.979798,1.87878788" id="Stroke-17"></path>
                </g>
                <rect id="Rectangle-Copy-33" stroke="#FFC500" stroke-width="3" x="20.5" y="25.5" width="21" height="21"></rect>
            </g>
        </g>
    </g>
</svg>