<svg xmlns="http://www.w3.org/2000/svg" xmlns:xlink="http://www.w3.org/1999/xlink" id="Layer_1" x="0px" y="0px" viewBox="0 0 1366 201" style="enable-background:new 0 0 1366 201;" xml:space="preserve"><style type="text/css">
	.st0{fill:#2B026B;}
	.st1{fill:#FFB200;}
</style><rect x="278.1" y="8.4" class="st0" width="33.4" height="181.2"/><path class="st0" d="M393.4,64.8c-37.3,0-62.8,27.8-62.8,64s25.8,63.8,64.8,63.8c26.8,0,48.5-13.3,56.6-36.2h-37  c-4.3,5.4-10.5,6.9-19.4,6.9c-19.1,0-28.3-10.7-30.9-24.8h89.3c0.8-5.1,0.8-8.9,0.8-14C454.9,88.3,428.9,64.8,393.4,64.8z   M365.6,115.8c3.1-12.8,11.7-22.7,28.1-22.7c15.6,0,25.5,7.1,27.3,22.7H365.6z"/><path class="st0" d="M89.9,161.7c-12.5,0-21.4-6.4-21.4-20.7V95.9h44.7V67.8H68.4V23.7H35v44.1H9v28.1h26v45.2  c0,31.1,18.4,51.5,51,51.5c8.9,0,18.1-1,29.3-5.4l-4.6-30.4C104.7,159.4,97.5,161.7,89.9,161.7z"/><path class="st0" d="M219.4,74.7c-9.4-6.1-21.4-10-35-10c-33.7,0-60.7,28.6-60.7,64c0,35.2,27,63.8,60.7,63.8c13.5,0,25.5-3.8,35-10  v6.9h33.4V67.8h-33.4V74.7z M219.4,148c-7.9,11.2-18.9,14.3-29.9,14.3c-19.1,0-32.4-15.3-32.4-33.4c0-18.4,13.3-33.7,32.4-33.7  c11,0,21.9,3.1,29.9,14.3V148z"/><path class="st0" d="M540.9,64.8c-13.8,0-25.3,4.3-35.2,12.2v-9.2h-33.4v121.7h33.4v-78.8c8.7-10.2,18.9-15.6,28.1-15.6  c17.6,0,27.6,10.5,27.6,30.4v64h33.4v-66.1C594.7,87.7,573.3,64.8,540.9,64.8z"/><path class="st0" d="M686.5,161.7c-12.5,0-21.4-6.4-21.4-20.7V95.9h44.7V67.8H665V23.7h-33.4v44.1h-26v28.1h26v45.2  c0,31.1,18.4,51.5,51,51.5c8.9,0,18.1-1,29.3-5.4l-4.6-30.4C701.3,159.4,694.1,161.7,686.5,161.7z"/><path class="st1" d="M1092.3,74.7c-9.4-6.1-21.4-10-35-10c-33.7,0-60.7,28.6-60.7,64c0,35.2,27,63.8,60.7,63.8  c13.5,0,25.5-3.8,35-10v6.9h33.4V67.8h-33.4V74.7z M1092.3,148c-7.9,11.2-18.9,14.3-29.9,14.3c-19.1,0-32.4-15.3-32.4-33.4  c0-18.4,13.3-33.7,32.4-33.7c11,0,21.9,3.1,29.9,14.3V148z"/><path class="st1" d="M1182.3,67.8h-33.4v121.7h33.4v-73.7c10.5-11.7,24.2-17.4,43.1-18.4V65.8c-18.1,0-32.1,5.6-43.1,16.1V67.8z"/><path class="st1" d="M925.9,95.1c13.8,0,24,8.2,26.5,19.9h34.2c-3.8-29.3-29.3-50.3-60.7-50.3c-36.5,0-64.8,27.8-64.8,64  s28.3,63.8,64.8,63.8c31.4,0,56.9-20.7,60.7-50h-34.2c-2.6,11.7-12.8,19.6-26.5,19.6c-19.1,0-31.4-14.8-31.4-33.4  C894.5,110.2,906.7,95.1,925.9,95.1z"/><path class="st1" d="M1357,124.5c0-36.2-26-59.7-61.5-59.7c-37.3,0-62.8,27.8-62.8,64s25.8,63.8,64.8,63.8  c26.8,0,48.5-13.3,56.6-36.2h-37c-4.3,5.4-10.5,6.9-19.4,6.9c-19.1,0-28.3-10.7-30.9-24.8h89.3C1357,133.4,1357,129.6,1357,124.5z   M1267.7,115.8c3.1-12.8,11.7-22.7,28.1-22.7c15.6,0,25.5,7.1,27.3,22.7H1267.7z"/><polygon class="st1" points="849.2,67.8 805,67.8 805,23.7 777,23.7 777,67.8 732.8,67.8 732.8,95.9 777,95.9 777,140 805,140   805,95.9 849.2,95.9 "/></svg>