<?xml version="1.0" encoding="UTF-8"?>
<svg width="166px" height="23px" viewBox="0 0 166 23" version="1.1" xmlns="http://www.w3.org/2000/svg" xmlns:xlink="http://www.w3.org/1999/xlink">
    <!-- Generator: Sketch 60.1 (88133) - https://sketch.com -->
    <title>Logo-geel Copy 5</title>
    <desc>Created with Sketch.</desc>
    <g id="Page-1" stroke="none" stroke-width="1" fill="none" fill-rule="evenodd">
        <g id="Klantervaringen-final" transform="translate(-620.000000, -1786.000000)" fill="#1d1d1b" fill-rule="nonzero">
            <g id="Logo-geel-Copy-5" transform="translate(620.000000, 1786.000000)">
                <rect id="Rectangle_1252" x="33.3627451" y="0" width="4.06862745" height="22.1785714"></rect>
                <path d="M46.8550245,7.39285714 C42.4724689,7.48632757 38.9897529,11.0249017 39.0598638,15.313042 C39.1299746,19.6011822 42.7265901,23.0289675 47.1099592,22.9852545 C50.1986995,23.1821281 53.0596373,21.3917214 54.1719958,18.5657533 L49.5577935,18.5657533 C48.9366461,19.2125624 48.0342575,19.5257644 47.1353373,19.406542 C45.2280129,19.5870557 43.5208622,18.2482012 43.2859391,16.3876029 L54.4200092,16.3876029 C54.4993812,15.8204095 54.531402,15.2478337 54.5157539,14.675554 C54.5215216,10.2560529 51.2765839,7.39285714 46.8550245,7.39285714 Z M43.3874515,13.6169503 C43.6674968,11.958931 45.171481,10.7683111 46.887324,10.8462978 C47.7213567,10.7366551 48.5641911,10.9739178 49.2111201,11.5004596 C49.8580492,12.0270014 50.2498824,12.7946467 50.2914517,13.6169503 L43.3874515,13.6169503 Z" id="Path_3908"></path>
                <path d="M9.89576246,19.0963484 C9.1936481,19.1868556 8.48957775,18.9444596 7.9803251,18.4369051 C7.47107245,17.9293506 7.21125943,17.2110774 7.27349863,16.4828288 L7.27349863,10.7726276 L12.7388128,10.7726276 L12.7388128,7.22320122 L7.27463087,7.22320122 L7.27463087,1.64285714 L3.18498625,1.64285714 L3.18498625,7.22320122 L0,7.22320122 L0,10.7726276 L3.18498625,10.7726276 L3.18498625,16.4828288 C3.18498625,20.4183167 5.43247921,22.9990796 9.4292803,22.9990796 C10.6572857,23.0165021 11.8768028,22.7864242 13.0196078,22.3217171 L12.4534887,18.4833295 C11.648344,18.8598366 10.7791059,19.0681698 9.89576246,19.0963484 L9.89576246,19.0963484 Z" id="Path_3909"></path>
                <path d="M26.1050649,8.60870706 C24.8543415,7.79977652 23.4005474,7.37761648 21.9194861,7.39327759 C17.8444017,7.60543687 14.6470588,11.0361124 14.6470588,15.1964251 C14.6470588,19.3567379 17.8444017,22.7874134 21.9194861,22.9995727 C23.4005645,23.0153633 24.8543939,22.593193 26.1050649,21.7841432 L26.1050649,22.6256813 L30.1078431,22.6256813 L30.1078431,7.767169 L26.1050649,7.767169 L26.1050649,8.60870706 Z M26.1050649,17.5482134 C25.2908081,18.7219663 23.9383592,19.3819417 22.5310371,19.2922869 C20.3643259,19.218903 18.6450841,17.4067924 18.6450841,15.1964251 C18.6450841,12.9860579 20.3643259,11.1739473 22.5310371,11.1005634 C23.938317,11.0111301 25.2906654,11.6710564 26.1050649,12.8446369 L26.1050649,17.5482134 Z" id="Path_3910"></path>
                <path d="M65.1740231,6.57199766 C63.6422109,6.55134064 62.1520569,7.09362564 60.9633826,8.10430049 L60.9633826,6.95507337 L56.9607843,6.95507337 L56.9607843,22.1785714 L60.9578496,22.1785714 L60.9578496,12.3169759 C61.7556383,11.1914095 62.9798435,10.481623 64.3152959,10.3703495 C66.4178496,10.3703495 67.6107722,11.6781307 67.6107722,14.1675441 L67.6107722,22.1785714 L71.6078431,22.1785714 L71.6078431,13.9129318 C71.6122638,9.4444868 69.0493615,6.57199766 65.1740231,6.57199766 Z" id="Path_3911"></path>
                <path d="M83.1333211,19.0963534 C82.4312067,19.1868606 81.7271363,18.9444645 81.2178837,18.4369099 C80.708631,17.9293552 80.448818,17.2110819 80.5110572,16.482833 L80.5110572,10.7726302 L85.9752391,10.7726302 L85.9752391,7.22320281 L80.5110572,7.22320281 L80.5110572,1.64285714 L76.4202804,1.64285714 L76.4202804,7.22320281 L73.2352941,7.22320281 L73.2352941,10.7726302 L76.4202804,10.7726302 L76.4202804,16.482833 C76.4202804,20.4183221 78.6689056,22.9990857 82.6645744,22.9990857 C83.8925749,23.0164483 85.112081,22.7863724 86.254902,22.321723 L85.6887828,18.4833343 C84.8843474,18.8595709 84.0159016,19.0678987 83.1333211,19.0963534 Z" id="Path_3912"></path>
                <path d="M132.703104,8.60870706 C131.452381,7.79977652 129.998587,7.37761648 128.517525,7.39327759 C124.442441,7.60543687 121.245098,11.0361124 121.245098,15.1964251 C121.245098,19.3567379 124.442441,22.7874134 128.517525,22.9995727 C129.998604,23.0153633 131.452433,22.593193 132.703104,21.7841432 L132.703104,22.6256813 L136.705882,22.6256813 L136.705882,7.767169 L132.703104,7.767169 L132.703104,8.60870706 Z M132.703104,17.5482134 C131.888705,18.7217938 130.536356,19.3817202 129.129076,19.2922869 C126.962365,19.218903 125.243123,17.4067924 125.243123,15.1964251 C125.243123,12.9860579 126.962365,11.1739473 129.129076,11.1005634 C130.536356,11.0111301 131.888705,11.6710564 132.703104,12.8446369 L132.703104,17.5482134 Z" id="Path_3913"></path>
                <path d="M144.225245,7.65543512 L139.960784,7.65543512 L139.960784,23 L144.225245,23 L144.225245,13.7039047 C145.646692,12.2005159 147.64376,11.3593402 149.72549,11.3871717 L149.72549,7.39879804 C147.691474,7.31883509 145.710041,8.04878643 144.225245,9.42506451 L144.225245,7.65543512 Z" id="Path_3914"></path>
                <path d="M112.958979,11.1018514 C114.49743,11.0148519 115.875309,12.0401382 116.221894,13.5298023 L120.431373,13.5298023 C119.881477,9.89655694 116.664941,7.25525167 112.964668,7.398408 C110.124969,7.35046782 107.480055,8.82607665 106.046074,11.2583212 C104.612093,13.6905657 104.612093,16.7011222 106.046074,19.1333667 C107.480055,21.5656112 110.124969,23.0412201 112.964668,22.9932799 C116.65703,23.1507712 119.875944,20.523084 120.431373,16.8980057 L116.221894,16.8980057 C115.870898,18.3807288 114.490805,19.3942949 112.958979,19.2943515 C110.786843,19.1511176 109.098771,17.3613057 109.098771,15.2014877 C109.098771,13.0416697 110.786843,11.2518578 112.958979,11.108624 L112.958979,11.1018514 Z" id="Path_3915"></path>
                <path d="M165.997105,14.675554 C165.997105,10.2560529 162.753177,7.39285714 158.332992,7.39285714 C153.9518,7.48632757 150.470167,11.0249017 150.540256,15.313042 C150.610345,19.6011822 154.205842,23.0289675 158.587848,22.9852545 C161.675627,23.1821281 164.535676,21.3917214 165.647688,18.5657533 L161.034921,18.5657533 C160.413967,19.2125624 159.511859,19.5257644 158.613218,19.406542 C156.706487,19.5870557 154.999867,18.2482012 154.765017,16.3876029 L165.894471,16.3876029 C165.976377,15.8206184 166.010703,15.248022 165.997105,14.675554 Z M154.866498,13.6180789 C155.146408,11.9605057 156.649249,10.7700281 158.364128,10.8474264 C159.197836,10.7381388 160.04021,10.9755317 160.68685,11.5020023 C161.33349,12.0284729 161.725296,12.7959035 161.767198,13.6180789 L154.866498,13.6180789 Z" id="Path_3916"></path>
                <polygon id="Path_3917" points="103.339643 7.2518803 97.7867136 7.2518803 97.7867136 1.64285714 94.2525021 1.64285714 94.2525021 7.2518803 88.6960784 7.2518803 88.6960784 10.8195483 94.2525021 10.8195483 94.2525021 16.4285714 97.7867136 16.4285714 97.7867136 10.8195483 103.343137 10.8195483"></polygon>
            </g>
        </g>
    </g>
</svg>