<?xml version="1.0" encoding="UTF-8"?>
<svg width="64px" height="64px" viewBox="0 0 64 64" version="1.1" xmlns="http://www.w3.org/2000/svg" xmlns:xlink="http://www.w3.org/1999/xlink">
    <!-- Generator: Sketch 60.1 (88133) - https://sketch.com -->
    <title>Group 7</title>
    <desc>Created with Sketch.</desc>
    <g id="Page-1" stroke="none" stroke-width="1" fill="none" fill-rule="evenodd">
        <g id="home" transform="translate(-831.000000, -5576.000000)">
            <g id="Group-7" transform="translate(832.000000, 5577.000000)">
                <rect id="Rectangle-Copy-32" stroke="#FFC500" stroke-width="3" x="33.5" y="21.5" width="21" height="21"></rect>
                <g id="Group-33" stroke="#222829" stroke-width="2">
                    <path d="M28,30 C25.791,30 24,31.791 24,34 L24,37 C24,40.866 20.866,44 17,44 C13.134,44 10,40.866 10,37 C10,35.093 10.763,33.263 12,32 C10.729,33.297 8.959,34 7,34 C3.134,34 0,30.866 0,27 C0,23.134 3.134,20 7,20 C8.959,20 10.729,20.703 12,22 C10.764,20.738 10,18.906 10,17 C10,13.134 13.134,10 17,10 C20.866,10 24,13.134 24,17 L24,20 C24,22.209 25.791,24 28,24 L62,24 L62,30 L28,30 Z" id="Stroke-1"></path>
                    <path d="M20,17 C20,18.657 18.657,20 17,20 C15.343,20 14,18.657 14,17 C14,15.344 15.343,14 17,14 C18.657,14 20,15.344 20,17 Z" id="Stroke-3" stroke-linejoin="round"></path>
                    <path d="M20,37 C20,38.657 18.657,40 17,40 C15.343,40 14,38.657 14,37 C14,35.344 15.343,34 17,34 C18.657,34 20,35.344 20,37 Z" id="Stroke-5" stroke-linejoin="round"></path>
                    <path d="M10,27 C10,28.657 8.657,30 7,30 C5.343,30 4,28.657 4,27 C4,25.344 5.343,24 7,24 C8.657,24 10,25.344 10,27 Z" id="Stroke-7" stroke-linejoin="round"></path>
                    <line x1="18" y1="27" x2="16" y2="27" id="Stroke-9" stroke-linejoin="round"></line>
                    <line x1="22" y1="27" x2="20" y2="27" id="Stroke-11" stroke-linejoin="round"></line>
                    <polyline id="Stroke-13" points="55 38 52 38 52 30 60 30 60 38 57 38"></polyline>
                    <line x1="56" y1="37" x2="56" y2="33" id="Stroke-15" stroke-linejoin="round"></line>
                    <path d="M41,45 C42.224,44.089 43,42.644 43,41 C43,38.238 40.762,36 38,36 C35.238,36 33,38.238 33,41 C33,42.644 33.776,44.089 35,45 L33,56 L33,58 L43,58 L43,56 L41,45 Z" id="Stroke-17"></path>
                    <line x1="30" y1="41" x2="28" y2="41" id="Stroke-19" stroke-linejoin="round"></line>
                    <line x1="48" y1="41" x2="46" y2="41" id="Stroke-21" stroke-linejoin="round"></line>
                    <path d="M6,17 L6,1 C6,0.447 6.447,0 7,0 L55,0 C55.553,0 56,0.447 56,1 L56,21" id="Stroke-23"></path>
                    <path d="M56,41 L56,61 C56,61.553 55.553,62 55,62 L7,62 C6.447,62 6,61.553 6,61 L6,37" id="Stroke-25"></path>
                    <line x1="53" y1="4" x2="9" y2="4" id="Stroke-27"></line>
                    <line x1="9" y1="58" x2="30" y2="58" id="Stroke-29"></line>
                    <line x1="46" y1="58" x2="53" y2="58" id="Stroke-31"></line>
                </g>
            </g>
        </g>
    </g>
</svg>